solid OpenSCAD_Model
  facet normal -0.992099 -0.104276 -0.0697634
    outer loop
      vertex -68.4703 -14.5538 59.5
      vertex -70 0 59.5
      vertex -60 -55 -0.5
    endloop
  endfacet
  facet normal -0.986394 0 -0.164399
    outer loop
      vertex -60 -55 -0.5
      vertex -70 0 59.5
      vertex -60 55 -0.5
    endloop
  endfacet
  facet normal 0.197595 -0.980284 0
    outer loop
      vertex 7.31699 -69.6165 59.5
      vertex 56.9134 -59.6194 0.5
      vertex 7.31699 -69.6165 60.5
    endloop
  endfacet
  facet normal 0.197595 -0.980284 0
    outer loop
      vertex 56.9134 -59.6194 0.5
      vertex 7.31699 -69.6165 59.5
      vertex 56.9134 -59.6194 -0.5
    endloop
  endfacet
  facet normal -0.576104 0.79293 0.19841
    outer loop
      vertex -58.2413 58.5616 1.25
      vertex -46.8391 52.0201 60.5
      vertex -35 60.6218 60.5
    endloop
  endfacet
  facet normal -0.576002 0.793007 0.198399
    outer loop
      vertex -46.8391 52.0201 60.5
      vertex -58.2413 58.5616 1.25
      vertex -58.3893 58.4541 1.25
    endloop
  endfacet
  facet normal 0.545908 0.817 0.185729
    outer loop
      vertex 56.6395 59.6319 1.25
      vertex 35 60.6218 60.5
      vertex 58.2413 58.5616 1.25
    endloop
  endfacet
  facet normal 0.72607 0.653944 0.212553
    outer loop
      vertex 46.8391 52.0201 60.5
      vertex 58.5117 58.3182 1.25
      vertex 58.3893 58.4541 1.25
    endloop
  endfacet
  facet normal 0.726159 0.653844 0.212559
    outer loop
      vertex 58.5117 58.3182 1.25
      vertex 46.8391 52.0201 60.5
      vertex 56.6312 41.145 60.5
    endloop
  endfacet
  facet normal 0.19509 0.980783 -0.00215335
    outer loop
      vertex 55 60 -0.5
      vertex 7.31699 69.6165 59.5
      vertex 56.9134 59.6194 -0.5
    endloop
  endfacet
  facet normal -0.545908 0.817 0.185729
    outer loop
      vertex -56.6395 59.6319 1.25
      vertex -58.2413 58.5616 1.25
      vertex -35 60.6218 60.5
    endloop
  endfacet
  facet normal -0.817254 -0.546044 0.184205
    outer loop
      vertex -56.6312 -41.145 60.5
      vertex -59.582 -56.7163 1.25
      vertex -58.5117 -58.3182 1.25
    endloop
  endfacet
  facet normal 0.19509 -0.980783 -0.00215335
    outer loop
      vertex 56.9134 -59.6194 -0.5
      vertex 7.31699 -69.6165 59.5
      vertex 55 -60 -0.5
    endloop
  endfacet
  facet normal -0.817254 0.546044 0.184205
    outer loop
      vertex -58.5117 58.3182 1.25
      vertex -59.582 56.7163 1.25
      vertex -56.6312 41.145 60.5
    endloop
  endfacet
  facet normal -0.992099 0.104276 -0.0697634
    outer loop
      vertex -60 55 -0.5
      vertex -70 0 59.5
      vertex -68.4703 14.5538 59.5
    endloop
  endfacet
  facet normal 0.207898 -0.97811 0.00887948
    outer loop
      vertex 7.31699 -69.6165 60.5
      vertex 56.4143 -59.7187 1.25
      vertex 21.6312 -66.574 60.5
    endloop
  endfacet
  facet normal 0.207712 -0.978151 0.00871802
    outer loop
      vertex 56.4143 -59.7187 1.25
      vertex 7.31699 -69.6165 60.5
      vertex 56.9134 -59.6194 0.5
    endloop
  endfacet
  facet normal 0.208715 -0.977931 0.00937969
    outer loop
      vertex 21.6312 -66.574 60.5
      vertex 56.4143 -59.7187 1.25
      vertex 56.4724 -59.7063 1.25
    endloop
  endfacet
  facet normal 0 -1 0
    outer loop
      vertex -7.31699 -69.6165 59.5
      vertex 7.31699 -69.6165 60.5
      vertex -7.31699 -69.6165 60.5
    endloop
  endfacet
  facet normal 0 -1 -0
    outer loop
      vertex 7.31699 -69.6165 60.5
      vertex -7.31699 -69.6165 59.5
      vertex 7.31699 -69.6165 59.5
    endloop
  endfacet
  facet normal -0.831458 0.555587 0
    outer loop
      vertex -59.6194 56.9134 -0.5
      vertex -58.5355 58.5355 -1.25
      vertex -59.6194 56.9134 -1.25
    endloop
  endfacet
  facet normal -0.831458 0.555587 0
    outer loop
      vertex -58.5355 58.5355 -1.25
      vertex -59.6194 56.9134 -0.5
      vertex -58.5355 58.5355 1.25
    endloop
  endfacet
  facet normal -0.831458 0.555587 0
    outer loop
      vertex -59.6194 56.9134 0.5
      vertex -58.5355 58.5355 1.25
      vertex -59.6194 56.9134 -0.5
    endloop
  endfacet
  facet normal -0.831458 0.555587 0
    outer loop
      vertex -58.5355 58.5355 1.25
      vertex -59.6194 56.9134 0.5
      vertex -59.6194 56.9134 1.25
    endloop
  endfacet
  facet normal 0.831458 -0.555587 0
    outer loop
      vertex 58.5355 -58.5355 1.25
      vertex 59.6194 -56.9134 0.5
      vertex 59.6194 -56.9134 1.25
    endloop
  endfacet
  facet normal 0.831458 -0.555587 0
    outer loop
      vertex 59.6194 -56.9134 0.5
      vertex 58.5355 -58.5355 1.25
      vertex 59.6194 -56.9134 -0.5
    endloop
  endfacet
  facet normal 0.831458 -0.555587 0
    outer loop
      vertex 58.5355 -58.5355 -1.25
      vertex 59.6194 -56.9134 -0.5
      vertex 58.5355 -58.5355 1.25
    endloop
  endfacet
  facet normal 0.831458 -0.555587 0
    outer loop
      vertex 59.6194 -56.9134 -0.5
      vertex 58.5355 -58.5355 -1.25
      vertex 59.6194 -56.9134 -1.25
    endloop
  endfacet
  facet normal -0.853011 0.492743 0.171978
    outer loop
      vertex -59.6735 56.5579 1.25
      vertex -56.6312 41.145 60.5
      vertex -59.582 56.7163 1.25
    endloop
  endfacet
  facet normal -0.853128 0.492555 0.171935
    outer loop
      vertex -56.6312 41.145 60.5
      vertex -59.6735 56.5579 1.25
      vertex -63.9482 28.4716 60.5
    endloop
  endfacet
  facet normal -0.948188 0.30808 0.0776303
    outer loop
      vertex -59.7163 56.4261 1.25
      vertex -68.4703 14.5538 60.5
      vertex -63.9482 28.4716 60.5
    endloop
  endfacet
  facet normal -0.947983 0.308608 0.0780338
    outer loop
      vertex -68.4703 14.5538 60.5
      vertex -59.7163 56.4261 1.25
      vertex -59.6194 56.9134 0.5
    endloop
  endfacet
  facet normal -0.948244 0.307927 0.0775542
    outer loop
      vertex -59.6735 56.5579 1.25
      vertex -59.7163 56.4261 1.25
      vertex -63.9482 28.4716 60.5
    endloop
  endfacet
  facet normal 0 -0.987398 -0.158255
    outer loop
      vertex -55 -60 -0.5
      vertex 7.31699 -69.6165 59.5
      vertex -7.31699 -69.6165 59.5
    endloop
  endfacet
  facet normal 0 -0.987398 -0.158255
    outer loop
      vertex 7.31699 -69.6165 59.5
      vertex -55 -60 -0.5
      vertex 55 -60 -0.5
    endloop
  endfacet
  facet normal -0.19509 0.980783 -0.00215335
    outer loop
      vertex -55 60 -0.5
      vertex -56.9134 59.6194 -0.5
      vertex -7.31699 69.6165 59.5
    endloop
  endfacet
  facet normal -0.208715 -0.977931 0.00937969
    outer loop
      vertex -56.4143 -59.7187 1.25
      vertex -21.6312 -66.574 60.5
      vertex -56.4724 -59.7063 1.25
    endloop
  endfacet
  facet normal -0.207898 -0.97811 0.00887948
    outer loop
      vertex -21.6312 -66.574 60.5
      vertex -56.4143 -59.7187 1.25
      vertex -7.31699 -69.6165 60.5
    endloop
  endfacet
  facet normal -0.207712 -0.978151 0.00871802
    outer loop
      vertex -7.31699 -69.6165 60.5
      vertex -56.4143 -59.7187 1.25
      vertex -56.9134 -59.6194 0.5
    endloop
  endfacet
  facet normal -0.980762 0.195086 -0.00694752
    outer loop
      vertex -60 55 -0.5
      vertex -68.4703 14.5538 59.5
      vertex -59.6194 56.9134 -0.5
    endloop
  endfacet
  facet normal -0.403173 0.905536 0.132119
    outer loop
      vertex -56.4724 59.7063 1.25
      vertex -35 60.6218 60.5
      vertex -21.6312 66.574 60.5
    endloop
  endfacet
  facet normal -0.403181 0.905532 0.132122
    outer loop
      vertex -35 60.6218 60.5
      vertex -56.4724 59.7063 1.25
      vertex -56.6395 59.6319 1.25
    endloop
  endfacet
  facet normal -0.853128 -0.492555 0.171935
    outer loop
      vertex -59.6735 -56.5579 1.25
      vertex -56.6312 -41.145 60.5
      vertex -63.9482 -28.4716 60.5
    endloop
  endfacet
  facet normal -0.853011 -0.492743 0.171978
    outer loop
      vertex -56.6312 -41.145 60.5
      vertex -59.6735 -56.5579 1.25
      vertex -59.582 -56.7163 1.25
    endloop
  endfacet
  facet normal 0.576104 -0.79293 0.19841
    outer loop
      vertex 58.2413 -58.5616 1.25
      vertex 46.8391 -52.0201 60.5
      vertex 35 -60.6218 60.5
    endloop
  endfacet
  facet normal 0.576002 -0.793007 0.198399
    outer loop
      vertex 46.8391 -52.0201 60.5
      vertex 58.2413 -58.5616 1.25
      vertex 58.3893 -58.4541 1.25
    endloop
  endfacet
  facet normal 0.555587 -0.831458 0
    outer loop
      vertex 56.9134 -59.6194 0.5
      vertex 58.5355 -58.5355 1.25
      vertex 56.9134 -59.6194 1.25
    endloop
  endfacet
  facet normal 0.555587 -0.831458 0
    outer loop
      vertex 56.9134 -59.6194 -0.5
      vertex 58.5355 -58.5355 1.25
      vertex 56.9134 -59.6194 0.5
    endloop
  endfacet
  facet normal 0.555587 -0.831458 0
    outer loop
      vertex 58.5355 -58.5355 -1.25
      vertex 56.9134 -59.6194 -0.5
      vertex 56.9134 -59.6194 -1.25
    endloop
  endfacet
  facet normal 0.555587 -0.831458 0
    outer loop
      vertex 56.9134 -59.6194 -0.5
      vertex 58.5355 -58.5355 -1.25
      vertex 58.5355 -58.5355 1.25
    endloop
  endfacet
  facet normal -0.994522 0.104531 0
    outer loop
      vertex -70 0 59.5
      vertex -68.4703 14.5538 60.5
      vertex -68.4703 14.5538 59.5
    endloop
  endfacet
  facet normal -0.994522 0.104531 0
    outer loop
      vertex -68.4703 14.5538 60.5
      vertex -70 0 59.5
      vertex -70 0 60.5
    endloop
  endfacet
  facet normal 0.948244 -0.307927 0.0775542
    outer loop
      vertex 63.9482 -28.4716 60.5
      vertex 59.6735 -56.5579 1.25
      vertex 59.7163 -56.4261 1.25
    endloop
  endfacet
  facet normal 0.948188 -0.30808 0.0776303
    outer loop
      vertex 59.7163 -56.4261 1.25
      vertex 68.4703 -14.5538 60.5
      vertex 63.9482 -28.4716 60.5
    endloop
  endfacet
  facet normal 0.947983 -0.308608 0.0780338
    outer loop
      vertex 68.4703 -14.5538 60.5
      vertex 59.7163 -56.4261 1.25
      vertex 59.6194 -56.9134 0.5
    endloop
  endfacet
  facet normal -0.72607 0.653944 0.212553
    outer loop
      vertex -58.5117 58.3182 1.25
      vertex -46.8391 52.0201 60.5
      vertex -58.3893 58.4541 1.25
    endloop
  endfacet
  facet normal -0.726159 0.653844 0.212559
    outer loop
      vertex -46.8391 52.0201 60.5
      vertex -58.5117 58.3182 1.25
      vertex -56.6312 41.145 60.5
    endloop
  endfacet
  facet normal -0.555587 -0.831458 0
    outer loop
      vertex -58.5355 -58.5355 1.25
      vertex -56.9134 -59.6194 0.5
      vertex -56.9134 -59.6194 1.25
    endloop
  endfacet
  facet normal -0.555587 -0.831458 0
    outer loop
      vertex -58.5355 -58.5355 1.25
      vertex -56.9134 -59.6194 -0.5
      vertex -56.9134 -59.6194 0.5
    endloop
  endfacet
  facet normal -0.555587 -0.831458 0
    outer loop
      vertex -58.5355 -58.5355 -1.25
      vertex -56.9134 -59.6194 -0.5
      vertex -58.5355 -58.5355 1.25
    endloop
  endfacet
  facet normal -0.555587 -0.831458 -0
    outer loop
      vertex -56.9134 -59.6194 -0.5
      vertex -58.5355 -58.5355 -1.25
      vertex -56.9134 -59.6194 -1.25
    endloop
  endfacet
  facet normal -0.948188 -0.30808 0.0776303
    outer loop
      vertex -68.4703 -14.5538 60.5
      vertex -59.7163 -56.4261 1.25
      vertex -63.9482 -28.4716 60.5
    endloop
  endfacet
  facet normal -0.947983 -0.308608 0.0780338
    outer loop
      vertex -59.7163 -56.4261 1.25
      vertex -68.4703 -14.5538 60.5
      vertex -59.6194 -56.9134 0.5
    endloop
  endfacet
  facet normal -0.948244 -0.307927 0.0775542
    outer loop
      vertex -63.9482 -28.4716 60.5
      vertex -59.7163 -56.4261 1.25
      vertex -59.6735 -56.5579 1.25
    endloop
  endfacet
  facet normal 0.726159 -0.653844 0.212559
    outer loop
      vertex 46.8391 -52.0201 60.5
      vertex 58.5117 -58.3182 1.25
      vertex 56.6312 -41.145 60.5
    endloop
  endfacet
  facet normal 0.72607 -0.653944 0.212553
    outer loop
      vertex 58.5117 -58.3182 1.25
      vertex 46.8391 -52.0201 60.5
      vertex 58.3893 -58.4541 1.25
    endloop
  endfacet
  facet normal 0.555587 0.831458 0
    outer loop
      vertex 58.5355 58.5355 1.25
      vertex 56.9134 59.6194 0.5
      vertex 56.9134 59.6194 1.25
    endloop
  endfacet
  facet normal 0.555587 0.831458 0
    outer loop
      vertex 58.5355 58.5355 1.25
      vertex 56.9134 59.6194 -0.5
      vertex 56.9134 59.6194 0.5
    endloop
  endfacet
  facet normal 0.555587 0.831458 -0
    outer loop
      vertex 58.5355 58.5355 -1.25
      vertex 56.9134 59.6194 -0.5
      vertex 58.5355 58.5355 1.25
    endloop
  endfacet
  facet normal 0.555587 0.831458 0
    outer loop
      vertex 56.9134 59.6194 -0.5
      vertex 58.5355 58.5355 -1.25
      vertex 56.9134 59.6194 -1.25
    endloop
  endfacet
  facet normal 0.980762 0.195086 -0.00694752
    outer loop
      vertex 60 55 -0.5
      vertex 59.6194 56.9134 -0.5
      vertex 68.4703 14.5538 59.5
    endloop
  endfacet
  facet normal -0.19509 -0.980783 -0.00215335
    outer loop
      vertex -7.31699 -69.6165 59.5
      vertex -56.9134 -59.6194 -0.5
      vertex -55 -60 -0.5
    endloop
  endfacet
  facet normal -0.831458 -0.555587 0
    outer loop
      vertex -58.5355 -58.5355 -1.25
      vertex -59.6194 -56.9134 -0.5
      vertex -59.6194 -56.9134 -1.25
    endloop
  endfacet
  facet normal -0.831458 -0.555587 0
    outer loop
      vertex -59.6194 -56.9134 -0.5
      vertex -58.5355 -58.5355 -1.25
      vertex -59.6194 -56.9134 0.5
    endloop
  endfacet
  facet normal -0.831458 -0.555587 -0
    outer loop
      vertex -58.5355 -58.5355 1.25
      vertex -59.6194 -56.9134 0.5
      vertex -58.5355 -58.5355 -1.25
    endloop
  endfacet
  facet normal -0.831458 -0.555587 0
    outer loop
      vertex -59.6194 -56.9134 0.5
      vertex -58.5355 -58.5355 1.25
      vertex -59.6194 -56.9134 1.25
    endloop
  endfacet
  facet normal 0.197595 0.980284 0
    outer loop
      vertex 56.9134 59.6194 0.5
      vertex 7.31699 69.6165 59.5
      vertex 7.31699 69.6165 60.5
    endloop
  endfacet
  facet normal 0.197595 0.980284 0
    outer loop
      vertex 7.31699 69.6165 59.5
      vertex 56.9134 59.6194 0.5
      vertex 56.9134 59.6194 -0.5
    endloop
  endfacet
  facet normal 0.986394 0 -0.164399
    outer loop
      vertex 70 0 59.5
      vertex 60 -55 -0.5
      vertex 60 55 -0.5
    endloop
  endfacet
  facet normal -0.197595 0.980284 0
    outer loop
      vertex -7.31699 69.6165 59.5
      vertex -56.9134 59.6194 0.5
      vertex -7.31699 69.6165 60.5
    endloop
  endfacet
  facet normal -0.197595 0.980284 0
    outer loop
      vertex -56.9134 59.6194 0.5
      vertex -7.31699 69.6165 59.5
      vertex -56.9134 59.6194 -0.5
    endloop
  endfacet
  facet normal 0 0 1
    outer loop
      vertex 67.5 0 60.5
      vertex 70 0 60.5
      vertex 68.4703 14.5538 60.5
    endloop
  endfacet
  facet normal 0 0 1
    outer loop
      vertex 70 0 60.5
      vertex 67.5 0 60.5
      vertex 68.4703 -14.5538 60.5
    endloop
  endfacet
  facet normal 0 0 1
    outer loop
      vertex 68.4703 14.5538 60.5
      vertex 66.025 14.034 60.5
      vertex 67.5 0 60.5
    endloop
  endfacet
  facet normal 0 0 1
    outer loop
      vertex 63.9482 28.4716 60.5
      vertex 66.025 14.034 60.5
      vertex 68.4703 14.5538 60.5
    endloop
  endfacet
  facet normal 0 0 1
    outer loop
      vertex 63.9482 28.4716 60.5
      vertex 61.6643 27.4547 60.5
      vertex 66.025 14.034 60.5
    endloop
  endfacet
  facet normal 0 0 1
    outer loop
      vertex 56.6312 41.145 60.5
      vertex 61.6643 27.4547 60.5
      vertex 63.9482 28.4716 60.5
    endloop
  endfacet
  facet normal 0 0 1
    outer loop
      vertex 56.6312 41.145 60.5
      vertex 54.6086 39.6755 60.5
      vertex 61.6643 27.4547 60.5
    endloop
  endfacet
  facet normal 0 0 1
    outer loop
      vertex 46.8391 52.0201 60.5
      vertex 54.6086 39.6755 60.5
      vertex 56.6312 41.145 60.5
    endloop
  endfacet
  facet normal 0 0 1
    outer loop
      vertex 46.8391 52.0201 60.5
      vertex 45.1663 50.1623 60.5
      vertex 54.6086 39.6755 60.5
    endloop
  endfacet
  facet normal 0 0 1
    outer loop
      vertex 35 60.6218 60.5
      vertex 45.1663 50.1623 60.5
      vertex 46.8391 52.0201 60.5
    endloop
  endfacet
  facet normal 0 0 1
    outer loop
      vertex 35 60.6218 60.5
      vertex 33.75 58.4567 60.5
      vertex 45.1663 50.1623 60.5
    endloop
  endfacet
  facet normal 0 0 1
    outer loop
      vertex 21.6312 66.574 60.5
      vertex 33.75 58.4567 60.5
      vertex 35 60.6218 60.5
    endloop
  endfacet
  facet normal 0 0 1
    outer loop
      vertex 21.6312 66.574 60.5
      vertex 20.8586 64.1963 60.5
      vertex 33.75 58.4567 60.5
    endloop
  endfacet
  facet normal 0 0 1
    outer loop
      vertex 7.31699 69.6165 60.5
      vertex 20.8586 64.1963 60.5
      vertex 21.6312 66.574 60.5
    endloop
  endfacet
  facet normal 0 0 1
    outer loop
      vertex 7.31699 69.6165 60.5
      vertex 7.05567 67.1302 60.5
      vertex 20.8586 64.1963 60.5
    endloop
  endfacet
  facet normal 0 0 1
    outer loop
      vertex 7.31699 69.6165 60.5
      vertex -7.05567 67.1302 60.5
      vertex 7.05567 67.1302 60.5
    endloop
  endfacet
  facet normal -0 0 1
    outer loop
      vertex -7.31699 69.6165 60.5
      vertex -7.05567 67.1302 60.5
      vertex 7.31699 69.6165 60.5
    endloop
  endfacet
  facet normal 0 0 1
    outer loop
      vertex -7.31699 69.6165 60.5
      vertex -20.8586 64.1963 60.5
      vertex -7.05567 67.1302 60.5
    endloop
  endfacet
  facet normal -0 0 1
    outer loop
      vertex -21.6312 66.574 60.5
      vertex -20.8586 64.1963 60.5
      vertex -7.31699 69.6165 60.5
    endloop
  endfacet
  facet normal 0 0 1
    outer loop
      vertex -21.6312 66.574 60.5
      vertex -33.75 58.4567 60.5
      vertex -20.8586 64.1963 60.5
    endloop
  endfacet
  facet normal -0 0 1
    outer loop
      vertex -35 60.6218 60.5
      vertex -33.75 58.4567 60.5
      vertex -21.6312 66.574 60.5
    endloop
  endfacet
  facet normal 0 0 1
    outer loop
      vertex -35 60.6218 60.5
      vertex -45.1663 50.1623 60.5
      vertex -33.75 58.4567 60.5
    endloop
  endfacet
  facet normal -0 0 1
    outer loop
      vertex -46.8391 52.0201 60.5
      vertex -45.1663 50.1623 60.5
      vertex -35 60.6218 60.5
    endloop
  endfacet
  facet normal 0 0 1
    outer loop
      vertex -46.8391 52.0201 60.5
      vertex -54.6086 39.6755 60.5
      vertex -45.1663 50.1623 60.5
    endloop
  endfacet
  facet normal -0 0 1
    outer loop
      vertex -56.6312 41.145 60.5
      vertex -54.6086 39.6755 60.5
      vertex -46.8391 52.0201 60.5
    endloop
  endfacet
  facet normal 0 0 1
    outer loop
      vertex -56.6312 41.145 60.5
      vertex -61.6643 27.4547 60.5
      vertex -54.6086 39.6755 60.5
    endloop
  endfacet
  facet normal -0 0 1
    outer loop
      vertex -63.9482 28.4716 60.5
      vertex -61.6643 27.4547 60.5
      vertex -56.6312 41.145 60.5
    endloop
  endfacet
  facet normal 0 0 1
    outer loop
      vertex -63.9482 28.4716 60.5
      vertex -66.025 14.034 60.5
      vertex -61.6643 27.4547 60.5
    endloop
  endfacet
  facet normal 0 0 1
    outer loop
      vertex -66.025 14.034 60.5
      vertex -68.4703 14.5538 60.5
      vertex -67.5 0 60.5
    endloop
  endfacet
  facet normal -0 0 1
    outer loop
      vertex -68.4703 14.5538 60.5
      vertex -66.025 14.034 60.5
      vertex -63.9482 28.4716 60.5
    endloop
  endfacet
  facet normal -0 0 1
    outer loop
      vertex 66.025 -14.034 60.5
      vertex 68.4703 -14.5538 60.5
      vertex 67.5 0 60.5
    endloop
  endfacet
  facet normal 0 0 1
    outer loop
      vertex 66.025 -14.034 60.5
      vertex 63.9482 -28.4716 60.5
      vertex 68.4703 -14.5538 60.5
    endloop
  endfacet
  facet normal -0 0 1
    outer loop
      vertex 61.6643 -27.4547 60.5
      vertex 63.9482 -28.4716 60.5
      vertex 66.025 -14.034 60.5
    endloop
  endfacet
  facet normal 0 0 1
    outer loop
      vertex 61.6643 -27.4547 60.5
      vertex 56.6312 -41.145 60.5
      vertex 63.9482 -28.4716 60.5
    endloop
  endfacet
  facet normal -0 0 1
    outer loop
      vertex 54.6086 -39.6755 60.5
      vertex 56.6312 -41.145 60.5
      vertex 61.6643 -27.4547 60.5
    endloop
  endfacet
  facet normal 0 0 1
    outer loop
      vertex 54.6086 -39.6755 60.5
      vertex 46.8391 -52.0201 60.5
      vertex 56.6312 -41.145 60.5
    endloop
  endfacet
  facet normal -0 0 1
    outer loop
      vertex 45.1663 -50.1623 60.5
      vertex 46.8391 -52.0201 60.5
      vertex 54.6086 -39.6755 60.5
    endloop
  endfacet
  facet normal 0 0 1
    outer loop
      vertex 45.1663 -50.1623 60.5
      vertex 35 -60.6218 60.5
      vertex 46.8391 -52.0201 60.5
    endloop
  endfacet
  facet normal -0 0 1
    outer loop
      vertex 33.75 -58.4567 60.5
      vertex 35 -60.6218 60.5
      vertex 45.1663 -50.1623 60.5
    endloop
  endfacet
  facet normal 0 0 1
    outer loop
      vertex 33.75 -58.4567 60.5
      vertex 21.6312 -66.574 60.5
      vertex 35 -60.6218 60.5
    endloop
  endfacet
  facet normal -0 0 1
    outer loop
      vertex 20.8586 -64.1963 60.5
      vertex 21.6312 -66.574 60.5
      vertex 33.75 -58.4567 60.5
    endloop
  endfacet
  facet normal 0 0 1
    outer loop
      vertex 20.8586 -64.1963 60.5
      vertex 7.31699 -69.6165 60.5
      vertex 21.6312 -66.574 60.5
    endloop
  endfacet
  facet normal -0 0 1
    outer loop
      vertex 7.05567 -67.1302 60.5
      vertex 7.31699 -69.6165 60.5
      vertex 20.8586 -64.1963 60.5
    endloop
  endfacet
  facet normal -0 0 1
    outer loop
      vertex -7.05567 -67.1302 60.5
      vertex 7.31699 -69.6165 60.5
      vertex 7.05567 -67.1302 60.5
    endloop
  endfacet
  facet normal 0 0 1
    outer loop
      vertex -7.05567 -67.1302 60.5
      vertex -7.31699 -69.6165 60.5
      vertex 7.31699 -69.6165 60.5
    endloop
  endfacet
  facet normal 0 0 1
    outer loop
      vertex -20.8586 -64.1963 60.5
      vertex -7.31699 -69.6165 60.5
      vertex -7.05567 -67.1302 60.5
    endloop
  endfacet
  facet normal 0 0 1
    outer loop
      vertex -20.8586 -64.1963 60.5
      vertex -21.6312 -66.574 60.5
      vertex -7.31699 -69.6165 60.5
    endloop
  endfacet
  facet normal 0 0 1
    outer loop
      vertex -33.75 -58.4567 60.5
      vertex -21.6312 -66.574 60.5
      vertex -20.8586 -64.1963 60.5
    endloop
  endfacet
  facet normal 0 0 1
    outer loop
      vertex -33.75 -58.4567 60.5
      vertex -35 -60.6218 60.5
      vertex -21.6312 -66.574 60.5
    endloop
  endfacet
  facet normal 0 0 1
    outer loop
      vertex -45.1663 -50.1623 60.5
      vertex -35 -60.6218 60.5
      vertex -33.75 -58.4567 60.5
    endloop
  endfacet
  facet normal 0 0 1
    outer loop
      vertex -45.1663 -50.1623 60.5
      vertex -46.8391 -52.0201 60.5
      vertex -35 -60.6218 60.5
    endloop
  endfacet
  facet normal 0 0 1
    outer loop
      vertex -54.6086 -39.6755 60.5
      vertex -46.8391 -52.0201 60.5
      vertex -45.1663 -50.1623 60.5
    endloop
  endfacet
  facet normal 0 0 1
    outer loop
      vertex -54.6086 -39.6755 60.5
      vertex -56.6312 -41.145 60.5
      vertex -46.8391 -52.0201 60.5
    endloop
  endfacet
  facet normal 0 0 1
    outer loop
      vertex -61.6643 -27.4547 60.5
      vertex -56.6312 -41.145 60.5
      vertex -54.6086 -39.6755 60.5
    endloop
  endfacet
  facet normal 0 0 1
    outer loop
      vertex -61.6643 -27.4547 60.5
      vertex -63.9482 -28.4716 60.5
      vertex -56.6312 -41.145 60.5
    endloop
  endfacet
  facet normal 0 0 1
    outer loop
      vertex -66.025 -14.034 60.5
      vertex -63.9482 -28.4716 60.5
      vertex -61.6643 -27.4547 60.5
    endloop
  endfacet
  facet normal 0 0 1
    outer loop
      vertex -66.025 -14.034 60.5
      vertex -68.4703 -14.5538 60.5
      vertex -63.9482 -28.4716 60.5
    endloop
  endfacet
  facet normal 0 0 1
    outer loop
      vertex -67.5 0 60.5
      vertex -68.4703 -14.5538 60.5
      vertex -66.025 -14.034 60.5
    endloop
  endfacet
  facet normal 0 0 1
    outer loop
      vertex -70 0 60.5
      vertex -67.5 0 60.5
      vertex -68.4703 14.5538 60.5
    endloop
  endfacet
  facet normal 0 0 1
    outer loop
      vertex -67.5 0 60.5
      vertex -70 0 60.5
      vertex -68.4703 -14.5538 60.5
    endloop
  endfacet
  facet normal 0.403173 -0.905536 0.132119
    outer loop
      vertex 56.4724 -59.7063 1.25
      vertex 35 -60.6218 60.5
      vertex 21.6312 -66.574 60.5
    endloop
  endfacet
  facet normal 0.403181 -0.905532 0.132122
    outer loop
      vertex 35 -60.6218 60.5
      vertex 56.4724 -59.7063 1.25
      vertex 56.6395 -59.6319 1.25
    endloop
  endfacet
  facet normal -0.403181 -0.905532 0.132122
    outer loop
      vertex -56.4724 -59.7063 1.25
      vertex -35 -60.6218 60.5
      vertex -56.6395 -59.6319 1.25
    endloop
  endfacet
  facet normal -0.403173 -0.905536 0.132119
    outer loop
      vertex -35 -60.6218 60.5
      vertex -56.4724 -59.7063 1.25
      vertex -21.6312 -66.574 60.5
    endloop
  endfacet
  facet normal 0.992099 -0.104276 -0.0697634
    outer loop
      vertex 68.4703 -14.5538 59.5
      vertex 60 -55 -0.5
      vertex 70 0 59.5
    endloop
  endfacet
  facet normal 0 1 -0
    outer loop
      vertex 7.31699 69.6165 59.5
      vertex -7.31699 69.6165 60.5
      vertex 7.31699 69.6165 60.5
    endloop
  endfacet
  facet normal 0 1 0
    outer loop
      vertex -7.31699 69.6165 60.5
      vertex 7.31699 69.6165 59.5
      vertex -7.31699 69.6165 59.5
    endloop
  endfacet
  facet normal -0.545908 -0.817 0.185729
    outer loop
      vertex -35 -60.6218 60.5
      vertex -58.2413 -58.5616 1.25
      vertex -56.6395 -59.6319 1.25
    endloop
  endfacet
  facet normal -0.994522 -0.104531 0
    outer loop
      vertex -68.4703 -14.5538 59.5
      vertex -70 0 60.5
      vertex -70 0 59.5
    endloop
  endfacet
  facet normal -0.994522 -0.104531 0
    outer loop
      vertex -70 0 60.5
      vertex -68.4703 -14.5538 59.5
      vertex -68.4703 -14.5538 60.5
    endloop
  endfacet
  facet normal -0.97886 0.20453 0
    outer loop
      vertex -68.4703 14.5538 59.5
      vertex -59.6194 56.9134 0.5
      vertex -59.6194 56.9134 -0.5
    endloop
  endfacet
  facet normal -0.97886 0.20453 0
    outer loop
      vertex -59.6194 56.9134 0.5
      vertex -68.4703 14.5538 59.5
      vertex -68.4703 14.5538 60.5
    endloop
  endfacet
  facet normal 0.545908 -0.817 0.185729
    outer loop
      vertex 58.2413 -58.5616 1.25
      vertex 35 -60.6218 60.5
      vertex 56.6395 -59.6319 1.25
    endloop
  endfacet
  facet normal -0.207898 0.97811 0.00887948
    outer loop
      vertex -7.31699 69.6165 60.5
      vertex -56.4143 59.7187 1.25
      vertex -21.6312 66.574 60.5
    endloop
  endfacet
  facet normal -0.207712 0.978151 0.00871802
    outer loop
      vertex -56.4143 59.7187 1.25
      vertex -7.31699 69.6165 60.5
      vertex -56.9134 59.6194 0.5
    endloop
  endfacet
  facet normal -0.208715 0.977931 0.00937969
    outer loop
      vertex -21.6312 66.574 60.5
      vertex -56.4143 59.7187 1.25
      vertex -56.4724 59.7063 1.25
    endloop
  endfacet
  facet normal -0.197595 -0.980284 0
    outer loop
      vertex -56.9134 -59.6194 0.5
      vertex -7.31699 -69.6165 59.5
      vertex -7.31699 -69.6165 60.5
    endloop
  endfacet
  facet normal -0.197595 -0.980284 0
    outer loop
      vertex -7.31699 -69.6165 59.5
      vertex -56.9134 -59.6194 0.5
      vertex -56.9134 -59.6194 -0.5
    endloop
  endfacet
  facet normal 0.853128 -0.492555 0.171935
    outer loop
      vertex 56.6312 -41.145 60.5
      vertex 59.6735 -56.5579 1.25
      vertex 63.9482 -28.4716 60.5
    endloop
  endfacet
  facet normal 0.853011 -0.492743 0.171978
    outer loop
      vertex 59.6735 -56.5579 1.25
      vertex 56.6312 -41.145 60.5
      vertex 59.582 -56.7163 1.25
    endloop
  endfacet
  facet normal 0.994522 -0.104531 0
    outer loop
      vertex 68.4703 -14.5538 60.5
      vertex 70 0 59.5
      vertex 70 0 60.5
    endloop
  endfacet
  facet normal 0.994522 -0.104531 0
    outer loop
      vertex 70 0 59.5
      vertex 68.4703 -14.5538 60.5
      vertex 68.4703 -14.5538 59.5
    endloop
  endfacet
  facet normal -0.97886 -0.20453 -0
    outer loop
      vertex -59.6194 -56.9134 0.5
      vertex -68.4703 -14.5538 59.5
      vertex -59.6194 -56.9134 -0.5
    endloop
  endfacet
  facet normal -0.97886 -0.20453 0
    outer loop
      vertex -68.4703 -14.5538 59.5
      vertex -59.6194 -56.9134 0.5
      vertex -68.4703 -14.5538 60.5
    endloop
  endfacet
  facet normal -0.980762 -0.195086 -0.00694752
    outer loop
      vertex -59.6194 -56.9134 -0.5
      vertex -68.4703 -14.5538 59.5
      vertex -60 -55 -0.5
    endloop
  endfacet
  facet normal 0.403181 0.905532 0.132122
    outer loop
      vertex 56.4724 59.7063 1.25
      vertex 35 60.6218 60.5
      vertex 56.6395 59.6319 1.25
    endloop
  endfacet
  facet normal 0.403173 0.905536 0.132119
    outer loop
      vertex 35 60.6218 60.5
      vertex 56.4724 59.7063 1.25
      vertex 21.6312 66.574 60.5
    endloop
  endfacet
  facet normal 0.817254 0.546044 0.184205
    outer loop
      vertex 58.5117 58.3182 1.25
      vertex 56.6312 41.145 60.5
      vertex 59.582 56.7163 1.25
    endloop
  endfacet
  facet normal 0.576002 0.793007 0.198399
    outer loop
      vertex 58.2413 58.5616 1.25
      vertex 46.8391 52.0201 60.5
      vertex 58.3893 58.4541 1.25
    endloop
  endfacet
  facet normal 0.576104 0.79293 0.19841
    outer loop
      vertex 46.8391 52.0201 60.5
      vertex 58.2413 58.5616 1.25
      vertex 35 60.6218 60.5
    endloop
  endfacet
  facet normal 0 0.987398 -0.158255
    outer loop
      vertex 55 60 -0.5
      vertex -7.31699 69.6165 59.5
      vertex 7.31699 69.6165 59.5
    endloop
  endfacet
  facet normal 0 0.987398 -0.158255
    outer loop
      vertex -7.31699 69.6165 59.5
      vertex 55 60 -0.5
      vertex -55 60 -0.5
    endloop
  endfacet
  facet normal -0.555587 0.831458 0
    outer loop
      vertex -56.9134 59.6194 0.5
      vertex -58.5355 58.5355 1.25
      vertex -56.9134 59.6194 1.25
    endloop
  endfacet
  facet normal -0.555587 0.831458 0
    outer loop
      vertex -56.9134 59.6194 -0.5
      vertex -58.5355 58.5355 1.25
      vertex -56.9134 59.6194 0.5
    endloop
  endfacet
  facet normal -0.555587 0.831458 0
    outer loop
      vertex -58.5355 58.5355 -1.25
      vertex -56.9134 59.6194 -0.5
      vertex -56.9134 59.6194 -1.25
    endloop
  endfacet
  facet normal -0.555587 0.831458 0
    outer loop
      vertex -56.9134 59.6194 -0.5
      vertex -58.5355 58.5355 -1.25
      vertex -58.5355 58.5355 1.25
    endloop
  endfacet
  facet normal 0.208715 0.977931 0.00937969
    outer loop
      vertex 56.4143 59.7187 1.25
      vertex 21.6312 66.574 60.5
      vertex 56.4724 59.7063 1.25
    endloop
  endfacet
  facet normal 0.207898 0.97811 0.00887948
    outer loop
      vertex 21.6312 66.574 60.5
      vertex 56.4143 59.7187 1.25
      vertex 7.31699 69.6165 60.5
    endloop
  endfacet
  facet normal 0.207712 0.978151 0.00871802
    outer loop
      vertex 7.31699 69.6165 60.5
      vertex 56.4143 59.7187 1.25
      vertex 56.9134 59.6194 0.5
    endloop
  endfacet
  facet normal 0.994522 0.104531 0
    outer loop
      vertex 70 0 60.5
      vertex 68.4703 14.5538 59.5
      vertex 68.4703 14.5538 60.5
    endloop
  endfacet
  facet normal 0.994522 0.104531 0
    outer loop
      vertex 68.4703 14.5538 59.5
      vertex 70 0 60.5
      vertex 70 0 59.5
    endloop
  endfacet
  facet normal 0.992099 0.104276 -0.0697634
    outer loop
      vertex 70 0 59.5
      vertex 60 55 -0.5
      vertex 68.4703 14.5538 59.5
    endloop
  endfacet
  facet normal 0.817254 -0.546044 0.184205
    outer loop
      vertex 59.582 -56.7163 1.25
      vertex 56.6312 -41.145 60.5
      vertex 58.5117 -58.3182 1.25
    endloop
  endfacet
  facet normal 0.97886 0.20453 -0
    outer loop
      vertex 68.4703 14.5538 59.5
      vertex 59.6194 56.9134 0.5
      vertex 68.4703 14.5538 60.5
    endloop
  endfacet
  facet normal 0.97886 0.20453 0
    outer loop
      vertex 59.6194 56.9134 0.5
      vertex 68.4703 14.5538 59.5
      vertex 59.6194 56.9134 -0.5
    endloop
  endfacet
  facet normal 0.980762 -0.195086 -0.00694752
    outer loop
      vertex 68.4703 -14.5538 59.5
      vertex 59.6194 -56.9134 -0.5
      vertex 60 -55 -0.5
    endloop
  endfacet
  facet normal -0.576002 -0.793007 0.198399
    outer loop
      vertex -58.2413 -58.5616 1.25
      vertex -46.8391 -52.0201 60.5
      vertex -58.3893 -58.4541 1.25
    endloop
  endfacet
  facet normal -0.576104 -0.79293 0.19841
    outer loop
      vertex -46.8391 -52.0201 60.5
      vertex -58.2413 -58.5616 1.25
      vertex -35 -60.6218 60.5
    endloop
  endfacet
  facet normal -0.726159 -0.653844 0.212559
    outer loop
      vertex -58.5117 -58.3182 1.25
      vertex -46.8391 -52.0201 60.5
      vertex -56.6312 -41.145 60.5
    endloop
  endfacet
  facet normal -0.72607 -0.653944 0.212553
    outer loop
      vertex -46.8391 -52.0201 60.5
      vertex -58.5117 -58.3182 1.25
      vertex -58.3893 -58.4541 1.25
    endloop
  endfacet
  facet normal 0.853011 0.492743 0.171978
    outer loop
      vertex 56.6312 41.145 60.5
      vertex 59.6735 56.5579 1.25
      vertex 59.582 56.7163 1.25
    endloop
  endfacet
  facet normal 0.853128 0.492555 0.171935
    outer loop
      vertex 59.6735 56.5579 1.25
      vertex 56.6312 41.145 60.5
      vertex 63.9482 28.4716 60.5
    endloop
  endfacet
  facet normal 0.948244 0.307927 0.0775542
    outer loop
      vertex 59.6735 56.5579 1.25
      vertex 63.9482 28.4716 60.5
      vertex 59.7163 56.4261 1.25
    endloop
  endfacet
  facet normal 0.947983 0.308608 0.0780338
    outer loop
      vertex 59.7163 56.4261 1.25
      vertex 68.4703 14.5538 60.5
      vertex 59.6194 56.9134 0.5
    endloop
  endfacet
  facet normal 0.948188 0.30808 0.0776303
    outer loop
      vertex 68.4703 14.5538 60.5
      vertex 59.7163 56.4261 1.25
      vertex 63.9482 28.4716 60.5
    endloop
  endfacet
  facet normal 0.97886 -0.20453 0
    outer loop
      vertex 59.6194 -56.9134 0.5
      vertex 68.4703 -14.5538 59.5
      vertex 68.4703 -14.5538 60.5
    endloop
  endfacet
  facet normal 0.97886 -0.20453 0
    outer loop
      vertex 68.4703 -14.5538 59.5
      vertex 59.6194 -56.9134 0.5
      vertex 59.6194 -56.9134 -0.5
    endloop
  endfacet
  facet normal 0.831458 0.555587 -0
    outer loop
      vertex 59.6194 56.9134 0.5
      vertex 58.5355 58.5355 1.25
      vertex 59.6194 56.9134 1.25
    endloop
  endfacet
  facet normal 0.831458 0.555587 0
    outer loop
      vertex 58.5355 58.5355 1.25
      vertex 59.6194 56.9134 0.5
      vertex 58.5355 58.5355 -1.25
    endloop
  endfacet
  facet normal 0.831458 0.555587 -0
    outer loop
      vertex 59.6194 56.9134 -0.5
      vertex 58.5355 58.5355 -1.25
      vertex 59.6194 56.9134 0.5
    endloop
  endfacet
  facet normal 0.831458 0.555587 0
    outer loop
      vertex 58.5355 58.5355 -1.25
      vertex 59.6194 56.9134 -0.5
      vertex 59.6194 56.9134 -1.25
    endloop
  endfacet
  facet normal 1 -0 0
    outer loop
      vertex 60 -55 -0.5
      vertex 60 55 -1.25
      vertex 60 55 -0.5
    endloop
  endfacet
  facet normal 1 0 0
    outer loop
      vertex 60 55 -1.25
      vertex 60 -55 -0.5
      vertex 60 -55 -1.25
    endloop
  endfacet
  facet normal 0.195091 0.980785 -0
    outer loop
      vertex 56.9134 59.6194 -1.25
      vertex 55 60 -0.5
      vertex 56.9134 59.6194 -0.5
    endloop
  endfacet
  facet normal 0.195091 0.980785 0
    outer loop
      vertex 55 60 -0.5
      vertex 56.9134 59.6194 -1.25
      vertex 55 60 -1.25
    endloop
  endfacet
  facet normal 0.195133 0.980777 -0
    outer loop
      vertex 56.9134 59.6194 0.5
      vertex 56.4143 59.7187 1.25
      vertex 56.9134 59.6194 1.25
    endloop
  endfacet
  facet normal -0.980785 0.195091 0
    outer loop
      vertex -60 55 -1.25
      vertex -59.6194 56.9134 -0.5
      vertex -59.6194 56.9134 -1.25
    endloop
  endfacet
  facet normal -0.980785 0.195091 0
    outer loop
      vertex -59.6194 56.9134 -0.5
      vertex -60 55 -1.25
      vertex -60 55 -0.5
    endloop
  endfacet
  facet normal -0.980797 0.195032 0
    outer loop
      vertex -59.6194 56.9134 0.5
      vertex -59.7163 56.4261 1.25
      vertex -59.6194 56.9134 1.25
    endloop
  endfacet
  facet normal 0 0 -1
    outer loop
      vertex -50.909 50.909 -1.25
      vertex 50.909 50.909 -1.25
      vertex -50.909 -50.909 -1.25
    endloop
  endfacet
  facet normal 0 0 -1
    outer loop
      vertex 50.909 50.909 -1.25
      vertex -50.909 50.909 -1.25
      vertex -50.25 52.5 -1.25
    endloop
  endfacet
  facet normal 0 0 -1
    outer loop
      vertex -52.5 -50.25 -1.25
      vertex -50.909 50.909 -1.25
      vertex -50.909 -50.909 -1.25
    endloop
  endfacet
  facet normal 0 0 -1
    outer loop
      vertex -52.5 -50.25 -1.25
      vertex -52.5 50.25 -1.25
      vertex -50.909 50.909 -1.25
    endloop
  endfacet
  facet normal 0 0 -1
    outer loop
      vertex -54.091 -50.909 -1.25
      vertex -52.5 50.25 -1.25
      vertex -52.5 -50.25 -1.25
    endloop
  endfacet
  facet normal 0 0 -1
    outer loop
      vertex -54.091 -50.909 -1.25
      vertex -54.091 50.909 -1.25
      vertex -52.5 50.25 -1.25
    endloop
  endfacet
  facet normal 0 0 -1
    outer loop
      vertex -60 -55 -1.25
      vertex -54.091 -50.909 -1.25
      vertex -54.75 -52.5 -1.25
    endloop
  endfacet
  facet normal -0 0 -1
    outer loop
      vertex -54.091 -50.909 -1.25
      vertex -60 -55 -1.25
      vertex -54.091 50.909 -1.25
    endloop
  endfacet
  facet normal 0 0 -1
    outer loop
      vertex 54.091 50.909 -1.25
      vertex 60 55 -1.25
      vertex 54.091 -50.909 -1.25
    endloop
  endfacet
  facet normal 0 0 -1
    outer loop
      vertex 60 55 -1.25
      vertex 54.091 50.909 -1.25
      vertex 54.75 52.5 -1.25
    endloop
  endfacet
  facet normal 0 0 -1
    outer loop
      vertex 52.5 -50.25 -1.25
      vertex 54.091 50.909 -1.25
      vertex 54.091 -50.909 -1.25
    endloop
  endfacet
  facet normal 0 0 -1
    outer loop
      vertex 52.5 -50.25 -1.25
      vertex 52.5 50.25 -1.25
      vertex 54.091 50.909 -1.25
    endloop
  endfacet
  facet normal 0 0 -1
    outer loop
      vertex 50.909 -50.909 -1.25
      vertex 52.5 50.25 -1.25
      vertex 52.5 -50.25 -1.25
    endloop
  endfacet
  facet normal 0 0 -1
    outer loop
      vertex 50.909 -50.909 -1.25
      vertex 50.909 50.909 -1.25
      vertex 52.5 50.25 -1.25
    endloop
  endfacet
  facet normal 0 0 -1
    outer loop
      vertex -50.25 -52.5 -1.25
      vertex 50.909 -50.909 -1.25
      vertex 50.25 -52.5 -1.25
    endloop
  endfacet
  facet normal 0 0 -1
    outer loop
      vertex -50.909 -50.909 -1.25
      vertex 50.909 -50.909 -1.25
      vertex -50.25 -52.5 -1.25
    endloop
  endfacet
  facet normal 0 0 -1
    outer loop
      vertex 54.091 -54.091 -1.25
      vertex 60 -55 -1.25
      vertex 59.6194 -56.9134 -1.25
    endloop
  endfacet
  facet normal 0 0 -1
    outer loop
      vertex 54.091 -50.909 -1.25
      vertex 60 -55 -1.25
      vertex 54.75 -52.5 -1.25
    endloop
  endfacet
  facet normal 0 0 -1
    outer loop
      vertex 54.091 -54.091 -1.25
      vertex 59.6194 -56.9134 -1.25
      vertex 58.5355 -58.5355 -1.25
    endloop
  endfacet
  facet normal 0 0 -1
    outer loop
      vertex 60 -55 -1.25
      vertex 54.091 -50.909 -1.25
      vertex 60 55 -1.25
    endloop
  endfacet
  facet normal 0 0 -1
    outer loop
      vertex 54.091 -54.091 -1.25
      vertex 58.5355 -58.5355 -1.25
      vertex 56.9134 -59.6194 -1.25
    endloop
  endfacet
  facet normal 0 0 -1
    outer loop
      vertex 54.091 54.091 -1.25
      vertex 60 55 -1.25
      vertex 54.75 52.5 -1.25
    endloop
  endfacet
  facet normal 0 0 -1
    outer loop
      vertex 54.091 -54.091 -1.25
      vertex 56.9134 -59.6194 -1.25
      vertex 55 -60 -1.25
    endloop
  endfacet
  facet normal -0 0 -1
    outer loop
      vertex 60 55 -1.25
      vertex 54.091 54.091 -1.25
      vertex 59.6194 56.9134 -1.25
    endloop
  endfacet
  facet normal -0 0 -1
    outer loop
      vertex 59.6194 56.9134 -1.25
      vertex 54.091 54.091 -1.25
      vertex 58.5355 58.5355 -1.25
    endloop
  endfacet
  facet normal 0 0 -1
    outer loop
      vertex 60 -55 -1.25
      vertex 54.091 -54.091 -1.25
      vertex 54.75 -52.5 -1.25
    endloop
  endfacet
  facet normal 0 0 -1
    outer loop
      vertex 55 -60 -1.25
      vertex 52.5 -54.75 -1.25
      vertex 54.091 -54.091 -1.25
    endloop
  endfacet
  facet normal 0 0 -1
    outer loop
      vertex 55 -60 -1.25
      vertex 50.909 -54.091 -1.25
      vertex 52.5 -54.75 -1.25
    endloop
  endfacet
  facet normal 0 0 -1
    outer loop
      vertex 50.909 -50.909 -1.25
      vertex -50.909 -50.909 -1.25
      vertex 50.909 50.909 -1.25
    endloop
  endfacet
  facet normal 0 0 -1
    outer loop
      vertex 50.909 -54.091 -1.25
      vertex -50.25 -52.5 -1.25
      vertex 50.25 -52.5 -1.25
    endloop
  endfacet
  facet normal 0 0 -1
    outer loop
      vertex -50.909 -54.091 -1.25
      vertex 50.909 -54.091 -1.25
      vertex 55 -60 -1.25
    endloop
  endfacet
  facet normal 0 0 -1
    outer loop
      vertex 50.909 -54.091 -1.25
      vertex -50.909 -54.091 -1.25
      vertex -50.25 -52.5 -1.25
    endloop
  endfacet
  facet normal 0 0 -1
    outer loop
      vertex -55 -60 -1.25
      vertex -50.909 -54.091 -1.25
      vertex 55 -60 -1.25
    endloop
  endfacet
  facet normal 0 0 -1
    outer loop
      vertex -58.5355 -58.5355 -1.25
      vertex -54.091 -54.091 -1.25
      vertex -56.9134 -59.6194 -1.25
    endloop
  endfacet
  facet normal 0 0 -1
    outer loop
      vertex -56.9134 -59.6194 -1.25
      vertex -54.091 -54.091 -1.25
      vertex -55 -60 -1.25
    endloop
  endfacet
  facet normal -0 0 -1
    outer loop
      vertex -52.5 -54.75 -1.25
      vertex -55 -60 -1.25
      vertex -54.091 -54.091 -1.25
    endloop
  endfacet
  facet normal 0 0 -1
    outer loop
      vertex -50.909 -54.091 -1.25
      vertex -55 -60 -1.25
      vertex -52.5 -54.75 -1.25
    endloop
  endfacet
  facet normal -0 0 -1
    outer loop
      vertex 58.5355 58.5355 -1.25
      vertex 54.091 54.091 -1.25
      vertex 56.9134 59.6194 -1.25
    endloop
  endfacet
  facet normal -0 0 -1
    outer loop
      vertex 56.9134 59.6194 -1.25
      vertex 54.091 54.091 -1.25
      vertex 55 60 -1.25
    endloop
  endfacet
  facet normal 0 0 -1
    outer loop
      vertex 52.5 54.75 -1.25
      vertex 55 60 -1.25
      vertex 54.091 54.091 -1.25
    endloop
  endfacet
  facet normal 0 0 -1
    outer loop
      vertex 50.909 54.091 -1.25
      vertex 55 60 -1.25
      vertex 52.5 54.75 -1.25
    endloop
  endfacet
  facet normal 0 0 -1
    outer loop
      vertex 50.909 50.909 -1.25
      vertex -50.25 52.5 -1.25
      vertex 50.25 52.5 -1.25
    endloop
  endfacet
  facet normal 0 0 -1
    outer loop
      vertex 50.25 52.5 -1.25
      vertex -50.25 52.5 -1.25
      vertex 50.909 54.091 -1.25
    endloop
  endfacet
  facet normal 0 0 -1
    outer loop
      vertex -50.909 54.091 -1.25
      vertex 50.909 54.091 -1.25
      vertex -50.25 52.5 -1.25
    endloop
  endfacet
  facet normal 0 0 -1
    outer loop
      vertex 50.909 54.091 -1.25
      vertex -50.909 54.091 -1.25
      vertex 55 60 -1.25
    endloop
  endfacet
  facet normal 0 0 -1
    outer loop
      vertex -55 60 -1.25
      vertex -50.909 54.091 -1.25
      vertex -52.5 54.75 -1.25
    endloop
  endfacet
  facet normal 0 0 -1
    outer loop
      vertex -50.909 54.091 -1.25
      vertex -55 60 -1.25
      vertex 55 60 -1.25
    endloop
  endfacet
  facet normal 0 0 -1
    outer loop
      vertex -54.091 54.091 -1.25
      vertex -55 60 -1.25
      vertex -52.5 54.75 -1.25
    endloop
  endfacet
  facet normal 0 0 -1
    outer loop
      vertex -60 55 -1.25
      vertex -54.091 54.091 -1.25
      vertex -54.75 52.5 -1.25
    endloop
  endfacet
  facet normal 0 0 -1
    outer loop
      vertex -60 55 -1.25
      vertex -54.091 50.909 -1.25
      vertex -60 -55 -1.25
    endloop
  endfacet
  facet normal 0 0 -1
    outer loop
      vertex -59.6194 -56.9134 -1.25
      vertex -54.091 -54.091 -1.25
      vertex -58.5355 -58.5355 -1.25
    endloop
  endfacet
  facet normal 0 0 -1
    outer loop
      vertex -54.091 50.909 -1.25
      vertex -60 55 -1.25
      vertex -54.75 52.5 -1.25
    endloop
  endfacet
  facet normal 0 0 -1
    outer loop
      vertex -60 -55 -1.25
      vertex -54.091 -54.091 -1.25
      vertex -59.6194 -56.9134 -1.25
    endloop
  endfacet
  facet normal 0 0 -1
    outer loop
      vertex -54.091 54.091 -1.25
      vertex -60 55 -1.25
      vertex -59.6194 56.9134 -1.25
    endloop
  endfacet
  facet normal -0 0 -1
    outer loop
      vertex -54.091 -54.091 -1.25
      vertex -60 -55 -1.25
      vertex -54.75 -52.5 -1.25
    endloop
  endfacet
  facet normal 0 0 -1
    outer loop
      vertex -54.091 54.091 -1.25
      vertex -56.9134 59.6194 -1.25
      vertex -55 60 -1.25
    endloop
  endfacet
  facet normal 0 0 -1
    outer loop
      vertex -54.091 54.091 -1.25
      vertex -58.5355 58.5355 -1.25
      vertex -56.9134 59.6194 -1.25
    endloop
  endfacet
  facet normal 0 0 -1
    outer loop
      vertex -54.091 54.091 -1.25
      vertex -59.6194 56.9134 -1.25
      vertex -58.5355 58.5355 -1.25
    endloop
  endfacet
  facet normal 0 1 -0
    outer loop
      vertex 55 60 -1.25
      vertex -55 60 -0.5
      vertex 55 60 -0.5
    endloop
  endfacet
  facet normal 0 1 0
    outer loop
      vertex -55 60 -0.5
      vertex 55 60 -1.25
      vertex -55 60 -1.25
    endloop
  endfacet
  facet normal -0.195133 -0.980777 -0
    outer loop
      vertex -56.9134 -59.6194 1.25
      vertex -56.9134 -59.6194 0.5
      vertex -56.4143 -59.7187 1.25
    endloop
  endfacet
  facet normal -0.195091 -0.980785 0
    outer loop
      vertex -56.9134 -59.6194 -1.25
      vertex -55 -60 -0.5
      vertex -56.9134 -59.6194 -0.5
    endloop
  endfacet
  facet normal -0.195091 -0.980785 -0
    outer loop
      vertex -55 -60 -0.5
      vertex -56.9134 -59.6194 -1.25
      vertex -55 -60 -1.25
    endloop
  endfacet
  facet normal 0.980785 0.195091 0
    outer loop
      vertex 60 55 -0.5
      vertex 59.6194 56.9134 -1.25
      vertex 59.6194 56.9134 -0.5
    endloop
  endfacet
  facet normal 0.980785 0.195091 0
    outer loop
      vertex 59.6194 56.9134 -1.25
      vertex 60 55 -0.5
      vertex 60 55 -1.25
    endloop
  endfacet
  facet normal 0.980797 0.195032 0
    outer loop
      vertex 59.7163 56.4261 1.25
      vertex 59.6194 56.9134 0.5
      vertex 59.6194 56.9134 1.25
    endloop
  endfacet
  facet normal 0 -1 0
    outer loop
      vertex -55 -60 -1.25
      vertex 55 -60 -0.5
      vertex -55 -60 -0.5
    endloop
  endfacet
  facet normal 0 -1 -0
    outer loop
      vertex 55 -60 -0.5
      vertex -55 -60 -1.25
      vertex 55 -60 -1.25
    endloop
  endfacet
  facet normal 0.195091 -0.980785 0
    outer loop
      vertex 55 -60 -1.25
      vertex 56.9134 -59.6194 -0.5
      vertex 55 -60 -0.5
    endloop
  endfacet
  facet normal 0.195091 -0.980785 0
    outer loop
      vertex 56.9134 -59.6194 -0.5
      vertex 55 -60 -1.25
      vertex 56.9134 -59.6194 -1.25
    endloop
  endfacet
  facet normal 0.195133 -0.980777 0
    outer loop
      vertex 56.9134 -59.6194 1.25
      vertex 56.4143 -59.7187 1.25
      vertex 56.9134 -59.6194 0.5
    endloop
  endfacet
  facet normal -1 0 0
    outer loop
      vertex -60 -55 -1.25
      vertex -60 55 -0.5
      vertex -60 55 -1.25
    endloop
  endfacet
  facet normal -1 -0 0
    outer loop
      vertex -60 55 -0.5
      vertex -60 -55 -1.25
      vertex -60 -55 -0.5
    endloop
  endfacet
  facet normal -0.195091 0.980785 0
    outer loop
      vertex -55 60 -1.25
      vertex -56.9134 59.6194 -0.5
      vertex -55 60 -0.5
    endloop
  endfacet
  facet normal -0.195091 0.980785 0
    outer loop
      vertex -56.9134 59.6194 -0.5
      vertex -55 60 -1.25
      vertex -56.9134 59.6194 -1.25
    endloop
  endfacet
  facet normal -0.195133 0.980777 0
    outer loop
      vertex -56.4143 59.7187 1.25
      vertex -56.9134 59.6194 0.5
      vertex -56.9134 59.6194 1.25
    endloop
  endfacet
  facet normal -0.980785 -0.195091 0
    outer loop
      vertex -59.6194 -56.9134 -1.25
      vertex -60 -55 -0.5
      vertex -60 -55 -1.25
    endloop
  endfacet
  facet normal -0.980785 -0.195091 0
    outer loop
      vertex -60 -55 -0.5
      vertex -59.6194 -56.9134 -1.25
      vertex -59.6194 -56.9134 -0.5
    endloop
  endfacet
  facet normal -0.980797 -0.195032 -0
    outer loop
      vertex -59.6194 -56.9134 1.25
      vertex -59.7163 -56.4261 1.25
      vertex -59.6194 -56.9134 0.5
    endloop
  endfacet
  facet normal 0.980797 -0.195032 0
    outer loop
      vertex 59.6194 -56.9134 1.25
      vertex 59.6194 -56.9134 0.5
      vertex 59.7163 -56.4261 1.25
    endloop
  endfacet
  facet normal 0.980785 -0.195091 0
    outer loop
      vertex 59.6194 -56.9134 -0.5
      vertex 60 -55 -1.25
      vertex 60 -55 -0.5
    endloop
  endfacet
  facet normal 0.980785 -0.195091 0
    outer loop
      vertex 60 -55 -1.25
      vertex 59.6194 -56.9134 -0.5
      vertex 59.6194 -56.9134 -1.25
    endloop
  endfacet
  facet normal 0 0 1
    outer loop
      vertex -56.9134 59.6194 1.25
      vertex -56.4724 59.7063 1.25
      vertex -56.4143 59.7187 1.25
    endloop
  endfacet
  facet normal 0 0 1
    outer loop
      vertex -56.9134 59.6194 1.25
      vertex -56.6395 59.6319 1.25
      vertex -56.4724 59.7063 1.25
    endloop
  endfacet
  facet normal -0 0 1
    outer loop
      vertex -56.9134 59.6194 1.25
      vertex -58.2413 58.5616 1.25
      vertex -56.6395 59.6319 1.25
    endloop
  endfacet
  facet normal 0 0 1
    outer loop
      vertex -58.5355 58.5355 1.25
      vertex -58.2413 58.5616 1.25
      vertex -56.9134 59.6194 1.25
    endloop
  endfacet
  facet normal 0 0 1
    outer loop
      vertex -58.2413 58.5616 1.25
      vertex -58.5355 58.5355 1.25
      vertex -58.3893 58.4541 1.25
    endloop
  endfacet
  facet normal 0 0 1
    outer loop
      vertex -58.5355 58.5355 1.25
      vertex -58.5117 58.3182 1.25
      vertex -58.3893 58.4541 1.25
    endloop
  endfacet
  facet normal 0 0 1
    outer loop
      vertex -59.6194 56.9134 1.25
      vertex -58.5117 58.3182 1.25
      vertex -58.5355 58.5355 1.25
    endloop
  endfacet
  facet normal 0 0 1
    outer loop
      vertex -58.5117 58.3182 1.25
      vertex -59.6194 56.9134 1.25
      vertex -59.582 56.7163 1.25
    endloop
  endfacet
  facet normal 0 0 1
    outer loop
      vertex -59.6194 56.9134 1.25
      vertex -59.6735 56.5579 1.25
      vertex -59.582 56.7163 1.25
    endloop
  endfacet
  facet normal 0 -0 1
    outer loop
      vertex -59.6735 56.5579 1.25
      vertex -59.6194 56.9134 1.25
      vertex -59.7163 56.4261 1.25
    endloop
  endfacet
  facet normal 0 0 1
    outer loop
      vertex -56.4724 -59.7063 1.25
      vertex -56.9134 -59.6194 1.25
      vertex -56.4143 -59.7187 1.25
    endloop
  endfacet
  facet normal 0 0 1
    outer loop
      vertex -56.6395 -59.6319 1.25
      vertex -56.9134 -59.6194 1.25
      vertex -56.4724 -59.7063 1.25
    endloop
  endfacet
  facet normal 0 0 1
    outer loop
      vertex -58.2413 -58.5616 1.25
      vertex -56.9134 -59.6194 1.25
      vertex -56.6395 -59.6319 1.25
    endloop
  endfacet
  facet normal -0 0 1
    outer loop
      vertex -58.5355 -58.5355 1.25
      vertex -58.2413 -58.5616 1.25
      vertex -58.3893 -58.4541 1.25
    endloop
  endfacet
  facet normal 0 0 1
    outer loop
      vertex -58.2413 -58.5616 1.25
      vertex -58.5355 -58.5355 1.25
      vertex -56.9134 -59.6194 1.25
    endloop
  endfacet
  facet normal 0 0 1
    outer loop
      vertex -58.5117 -58.3182 1.25
      vertex -58.5355 -58.5355 1.25
      vertex -58.3893 -58.4541 1.25
    endloop
  endfacet
  facet normal -0 0 1
    outer loop
      vertex -59.6194 -56.9134 1.25
      vertex -58.5117 -58.3182 1.25
      vertex -59.582 -56.7163 1.25
    endloop
  endfacet
  facet normal 0 0 1
    outer loop
      vertex -58.5117 -58.3182 1.25
      vertex -59.6194 -56.9134 1.25
      vertex -58.5355 -58.5355 1.25
    endloop
  endfacet
  facet normal 0 0 1
    outer loop
      vertex -59.6735 -56.5579 1.25
      vertex -59.6194 -56.9134 1.25
      vertex -59.582 -56.7163 1.25
    endloop
  endfacet
  facet normal 0 0 1
    outer loop
      vertex -59.6194 -56.9134 1.25
      vertex -59.6735 -56.5579 1.25
      vertex -59.7163 -56.4261 1.25
    endloop
  endfacet
  facet normal 0 0 1
    outer loop
      vertex 59.6194 56.9134 1.25
      vertex 59.6735 56.5579 1.25
      vertex 59.7163 56.4261 1.25
    endloop
  endfacet
  facet normal 0 0 1
    outer loop
      vertex 59.6194 56.9134 1.25
      vertex 59.582 56.7163 1.25
      vertex 59.6735 56.5579 1.25
    endloop
  endfacet
  facet normal -0 0 1
    outer loop
      vertex 58.5117 58.3182 1.25
      vertex 59.6194 56.9134 1.25
      vertex 58.5355 58.5355 1.25
    endloop
  endfacet
  facet normal 0 0 1
    outer loop
      vertex 59.6194 56.9134 1.25
      vertex 58.5117 58.3182 1.25
      vertex 59.582 56.7163 1.25
    endloop
  endfacet
  facet normal 0 0 1
    outer loop
      vertex 58.5355 58.5355 1.25
      vertex 58.3893 58.4541 1.25
      vertex 58.5117 58.3182 1.25
    endloop
  endfacet
  facet normal 0 0 1
    outer loop
      vertex 58.5355 58.5355 1.25
      vertex 58.2413 58.5616 1.25
      vertex 58.3893 58.4541 1.25
    endloop
  endfacet
  facet normal 0 0 1
    outer loop
      vertex 56.9134 59.6194 1.25
      vertex 58.2413 58.5616 1.25
      vertex 58.5355 58.5355 1.25
    endloop
  endfacet
  facet normal 0 0 1
    outer loop
      vertex 56.9134 59.6194 1.25
      vertex 56.6395 59.6319 1.25
      vertex 58.2413 58.5616 1.25
    endloop
  endfacet
  facet normal 0 0 1
    outer loop
      vertex 56.9134 59.6194 1.25
      vertex 56.4724 59.7063 1.25
      vertex 56.6395 59.6319 1.25
    endloop
  endfacet
  facet normal -0 -0 1
    outer loop
      vertex 56.4724 59.7063 1.25
      vertex 56.9134 59.6194 1.25
      vertex 56.4143 59.7187 1.25
    endloop
  endfacet
  facet normal -0 0 1
    outer loop
      vertex 59.6735 -56.5579 1.25
      vertex 59.6194 -56.9134 1.25
      vertex 59.7163 -56.4261 1.25
    endloop
  endfacet
  facet normal -0 0 1
    outer loop
      vertex 59.582 -56.7163 1.25
      vertex 59.6194 -56.9134 1.25
      vertex 59.6735 -56.5579 1.25
    endloop
  endfacet
  facet normal 0 0 1
    outer loop
      vertex 58.5117 -58.3182 1.25
      vertex 59.6194 -56.9134 1.25
      vertex 59.582 -56.7163 1.25
    endloop
  endfacet
  facet normal 0 0 1
    outer loop
      vertex 59.6194 -56.9134 1.25
      vertex 58.5117 -58.3182 1.25
      vertex 58.5355 -58.5355 1.25
    endloop
  endfacet
  facet normal -0 0 1
    outer loop
      vertex 58.3893 -58.4541 1.25
      vertex 58.5355 -58.5355 1.25
      vertex 58.5117 -58.3182 1.25
    endloop
  endfacet
  facet normal 0 0 1
    outer loop
      vertex 58.2413 -58.5616 1.25
      vertex 58.5355 -58.5355 1.25
      vertex 58.3893 -58.4541 1.25
    endloop
  endfacet
  facet normal -0 0 1
    outer loop
      vertex 58.2413 -58.5616 1.25
      vertex 56.9134 -59.6194 1.25
      vertex 58.5355 -58.5355 1.25
    endloop
  endfacet
  facet normal 0 0 1
    outer loop
      vertex 56.6395 -59.6319 1.25
      vertex 56.9134 -59.6194 1.25
      vertex 58.2413 -58.5616 1.25
    endloop
  endfacet
  facet normal 0 0 1
    outer loop
      vertex 56.4724 -59.7063 1.25
      vertex 56.9134 -59.6194 1.25
      vertex 56.6395 -59.6319 1.25
    endloop
  endfacet
  facet normal 0 0 1
    outer loop
      vertex 56.9134 -59.6194 1.25
      vertex 56.4724 -59.7063 1.25
      vertex 56.4143 -59.7187 1.25
    endloop
  endfacet
  facet normal -0.382677 -0.923882 0
    outer loop
      vertex -52.5 -50.25 -1.25
      vertex -50.909 -50.909 1
      vertex -52.5 -50.25 1
    endloop
  endfacet
  facet normal -0.382677 -0.923882 -0
    outer loop
      vertex -50.909 -50.909 1
      vertex -52.5 -50.25 -1.25
      vertex -50.909 -50.909 -1.25
    endloop
  endfacet
  facet normal -0.923882 -0.382677 0
    outer loop
      vertex -50.25 -52.5 -1.25
      vertex -50.909 -50.909 1
      vertex -50.909 -50.909 -1.25
    endloop
  endfacet
  facet normal -0.923882 -0.382677 0
    outer loop
      vertex -50.909 -50.909 1
      vertex -50.25 -52.5 -1.25
      vertex -50.25 -52.5 1
    endloop
  endfacet
  facet normal 0.382677 -0.923882 0
    outer loop
      vertex -54.091 -50.909 -1.25
      vertex -52.5 -50.25 1
      vertex -54.091 -50.909 1
    endloop
  endfacet
  facet normal 0.382677 -0.923882 0
    outer loop
      vertex -52.5 -50.25 1
      vertex -54.091 -50.909 -1.25
      vertex -52.5 -50.25 -1.25
    endloop
  endfacet
  facet normal 0.923882 -0.382677 0
    outer loop
      vertex -54.75 -52.5 1
      vertex -54.091 -50.909 -1.25
      vertex -54.091 -50.909 1
    endloop
  endfacet
  facet normal 0.923882 -0.382677 0
    outer loop
      vertex -54.091 -50.909 -1.25
      vertex -54.75 -52.5 1
      vertex -54.75 -52.5 -1.25
    endloop
  endfacet
  facet normal 0 0 -1
    outer loop
      vertex -50.909 -54.091 1
      vertex -50.909 -50.909 1
      vertex -50.25 -52.5 1
    endloop
  endfacet
  facet normal 0 0 -1
    outer loop
      vertex -52.5 -54.75 1
      vertex -50.909 -50.909 1
      vertex -50.909 -54.091 1
    endloop
  endfacet
  facet normal 0 0 -1
    outer loop
      vertex -52.5 -54.75 1
      vertex -52.5 -50.25 1
      vertex -50.909 -50.909 1
    endloop
  endfacet
  facet normal 0 0 -1
    outer loop
      vertex -54.091 -54.091 1
      vertex -52.5 -50.25 1
      vertex -52.5 -54.75 1
    endloop
  endfacet
  facet normal 0 0 -1
    outer loop
      vertex -54.091 -54.091 1
      vertex -54.091 -50.909 1
      vertex -52.5 -50.25 1
    endloop
  endfacet
  facet normal 0 -0 -1
    outer loop
      vertex -54.091 -50.909 1
      vertex -54.091 -54.091 1
      vertex -54.75 -52.5 1
    endloop
  endfacet
  facet normal -0.382677 0.923882 0
    outer loop
      vertex -50.909 -54.091 -1.25
      vertex -52.5 -54.75 1
      vertex -50.909 -54.091 1
    endloop
  endfacet
  facet normal -0.382677 0.923882 0
    outer loop
      vertex -52.5 -54.75 1
      vertex -50.909 -54.091 -1.25
      vertex -52.5 -54.75 -1.25
    endloop
  endfacet
  facet normal 0.923882 0.382677 0
    outer loop
      vertex -54.091 -54.091 1
      vertex -54.75 -52.5 -1.25
      vertex -54.75 -52.5 1
    endloop
  endfacet
  facet normal 0.923882 0.382677 0
    outer loop
      vertex -54.75 -52.5 -1.25
      vertex -54.091 -54.091 1
      vertex -54.091 -54.091 -1.25
    endloop
  endfacet
  facet normal -0.923882 0.382677 0
    outer loop
      vertex -50.909 -54.091 -1.25
      vertex -50.25 -52.5 1
      vertex -50.25 -52.5 -1.25
    endloop
  endfacet
  facet normal -0.923882 0.382677 0
    outer loop
      vertex -50.25 -52.5 1
      vertex -50.909 -54.091 -1.25
      vertex -50.909 -54.091 1
    endloop
  endfacet
  facet normal 0.382677 0.923882 -0
    outer loop
      vertex -52.5 -54.75 -1.25
      vertex -54.091 -54.091 1
      vertex -52.5 -54.75 1
    endloop
  endfacet
  facet normal 0.382677 0.923882 0
    outer loop
      vertex -54.091 -54.091 1
      vertex -52.5 -54.75 -1.25
      vertex -54.091 -54.091 -1.25
    endloop
  endfacet
  facet normal 0.923882 0.382677 0
    outer loop
      vertex -54.091 50.909 1
      vertex -54.75 52.5 -1.25
      vertex -54.75 52.5 1
    endloop
  endfacet
  facet normal 0.923882 0.382677 0
    outer loop
      vertex -54.75 52.5 -1.25
      vertex -54.091 50.909 1
      vertex -54.091 50.909 -1.25
    endloop
  endfacet
  facet normal -0.382677 -0.923882 0
    outer loop
      vertex -52.5 54.75 -1.25
      vertex -50.909 54.091 1
      vertex -52.5 54.75 1
    endloop
  endfacet
  facet normal -0.382677 -0.923882 -0
    outer loop
      vertex -50.909 54.091 1
      vertex -52.5 54.75 -1.25
      vertex -50.909 54.091 -1.25
    endloop
  endfacet
  facet normal -0.923882 -0.382677 0
    outer loop
      vertex -50.25 52.5 -1.25
      vertex -50.909 54.091 1
      vertex -50.909 54.091 -1.25
    endloop
  endfacet
  facet normal -0.923882 -0.382677 0
    outer loop
      vertex -50.909 54.091 1
      vertex -50.25 52.5 -1.25
      vertex -50.25 52.5 1
    endloop
  endfacet
  facet normal 0.382677 -0.923882 0
    outer loop
      vertex -54.091 54.091 -1.25
      vertex -52.5 54.75 1
      vertex -54.091 54.091 1
    endloop
  endfacet
  facet normal 0.382677 -0.923882 0
    outer loop
      vertex -52.5 54.75 1
      vertex -54.091 54.091 -1.25
      vertex -52.5 54.75 -1.25
    endloop
  endfacet
  facet normal -0.382677 0.923882 0
    outer loop
      vertex -50.909 50.909 -1.25
      vertex -52.5 50.25 1
      vertex -50.909 50.909 1
    endloop
  endfacet
  facet normal -0.382677 0.923882 0
    outer loop
      vertex -52.5 50.25 1
      vertex -50.909 50.909 -1.25
      vertex -52.5 50.25 -1.25
    endloop
  endfacet
  facet normal 0.923882 -0.382677 0
    outer loop
      vertex -54.75 52.5 1
      vertex -54.091 54.091 -1.25
      vertex -54.091 54.091 1
    endloop
  endfacet
  facet normal 0.923882 -0.382677 0
    outer loop
      vertex -54.091 54.091 -1.25
      vertex -54.75 52.5 1
      vertex -54.75 52.5 -1.25
    endloop
  endfacet
  facet normal -0.923882 0.382677 0
    outer loop
      vertex -50.909 50.909 -1.25
      vertex -50.25 52.5 1
      vertex -50.25 52.5 -1.25
    endloop
  endfacet
  facet normal -0.923882 0.382677 0
    outer loop
      vertex -50.25 52.5 1
      vertex -50.909 50.909 -1.25
      vertex -50.909 50.909 1
    endloop
  endfacet
  facet normal 0 0 -1
    outer loop
      vertex -50.909 50.909 1
      vertex -50.909 54.091 1
      vertex -50.25 52.5 1
    endloop
  endfacet
  facet normal 0 0 -1
    outer loop
      vertex -52.5 50.25 1
      vertex -50.909 54.091 1
      vertex -50.909 50.909 1
    endloop
  endfacet
  facet normal 0 0 -1
    outer loop
      vertex -52.5 50.25 1
      vertex -52.5 54.75 1
      vertex -50.909 54.091 1
    endloop
  endfacet
  facet normal 0 0 -1
    outer loop
      vertex -54.091 50.909 1
      vertex -52.5 54.75 1
      vertex -52.5 50.25 1
    endloop
  endfacet
  facet normal 0 0 -1
    outer loop
      vertex -54.091 50.909 1
      vertex -54.091 54.091 1
      vertex -52.5 54.75 1
    endloop
  endfacet
  facet normal 0 -0 -1
    outer loop
      vertex -54.091 54.091 1
      vertex -54.091 50.909 1
      vertex -54.75 52.5 1
    endloop
  endfacet
  facet normal 0.382677 0.923882 -0
    outer loop
      vertex -52.5 50.25 -1.25
      vertex -54.091 50.909 1
      vertex -52.5 50.25 1
    endloop
  endfacet
  facet normal 0.382677 0.923882 0
    outer loop
      vertex -54.091 50.909 1
      vertex -52.5 50.25 -1.25
      vertex -54.091 50.909 -1.25
    endloop
  endfacet
  facet normal -0.382677 -0.923882 0
    outer loop
      vertex 52.5 -50.25 -1.25
      vertex 54.091 -50.909 1
      vertex 52.5 -50.25 1
    endloop
  endfacet
  facet normal -0.382677 -0.923882 -0
    outer loop
      vertex 54.091 -50.909 1
      vertex 52.5 -50.25 -1.25
      vertex 54.091 -50.909 -1.25
    endloop
  endfacet
  facet normal -0.923882 -0.382677 0
    outer loop
      vertex 54.75 -52.5 -1.25
      vertex 54.091 -50.909 1
      vertex 54.091 -50.909 -1.25
    endloop
  endfacet
  facet normal -0.923882 -0.382677 0
    outer loop
      vertex 54.091 -50.909 1
      vertex 54.75 -52.5 -1.25
      vertex 54.75 -52.5 1
    endloop
  endfacet
  facet normal 0.382677 -0.923882 0
    outer loop
      vertex 50.909 -50.909 -1.25
      vertex 52.5 -50.25 1
      vertex 50.909 -50.909 1
    endloop
  endfacet
  facet normal 0.382677 -0.923882 0
    outer loop
      vertex 52.5 -50.25 1
      vertex 50.909 -50.909 -1.25
      vertex 52.5 -50.25 -1.25
    endloop
  endfacet
  facet normal 0 0 -1
    outer loop
      vertex 54.091 -54.091 1
      vertex 54.091 -50.909 1
      vertex 54.75 -52.5 1
    endloop
  endfacet
  facet normal 0 0 -1
    outer loop
      vertex 52.5 -54.75 1
      vertex 54.091 -50.909 1
      vertex 54.091 -54.091 1
    endloop
  endfacet
  facet normal 0 0 -1
    outer loop
      vertex 52.5 -54.75 1
      vertex 52.5 -50.25 1
      vertex 54.091 -50.909 1
    endloop
  endfacet
  facet normal 0 0 -1
    outer loop
      vertex 50.909 -54.091 1
      vertex 52.5 -50.25 1
      vertex 52.5 -54.75 1
    endloop
  endfacet
  facet normal 0 0 -1
    outer loop
      vertex 50.909 -54.091 1
      vertex 50.909 -50.909 1
      vertex 52.5 -50.25 1
    endloop
  endfacet
  facet normal 0 -0 -1
    outer loop
      vertex 50.909 -50.909 1
      vertex 50.909 -54.091 1
      vertex 50.25 -52.5 1
    endloop
  endfacet
  facet normal -0.923882 0.382677 0
    outer loop
      vertex 54.091 -54.091 -1.25
      vertex 54.75 -52.5 1
      vertex 54.75 -52.5 -1.25
    endloop
  endfacet
  facet normal -0.923882 0.382677 0
    outer loop
      vertex 54.75 -52.5 1
      vertex 54.091 -54.091 -1.25
      vertex 54.091 -54.091 1
    endloop
  endfacet
  facet normal 0.923882 -0.382677 0
    outer loop
      vertex 50.25 -52.5 1
      vertex 50.909 -50.909 -1.25
      vertex 50.909 -50.909 1
    endloop
  endfacet
  facet normal 0.923882 -0.382677 0
    outer loop
      vertex 50.909 -50.909 -1.25
      vertex 50.25 -52.5 1
      vertex 50.25 -52.5 -1.25
    endloop
  endfacet
  facet normal 0.382677 0.923882 -0
    outer loop
      vertex 52.5 -54.75 -1.25
      vertex 50.909 -54.091 1
      vertex 52.5 -54.75 1
    endloop
  endfacet
  facet normal 0.382677 0.923882 0
    outer loop
      vertex 50.909 -54.091 1
      vertex 52.5 -54.75 -1.25
      vertex 50.909 -54.091 -1.25
    endloop
  endfacet
  facet normal -0.382677 0.923882 0
    outer loop
      vertex 54.091 -54.091 -1.25
      vertex 52.5 -54.75 1
      vertex 54.091 -54.091 1
    endloop
  endfacet
  facet normal -0.382677 0.923882 0
    outer loop
      vertex 52.5 -54.75 1
      vertex 54.091 -54.091 -1.25
      vertex 52.5 -54.75 -1.25
    endloop
  endfacet
  facet normal 0.923882 0.382677 0
    outer loop
      vertex 50.909 -54.091 1
      vertex 50.25 -52.5 -1.25
      vertex 50.25 -52.5 1
    endloop
  endfacet
  facet normal 0.923882 0.382677 0
    outer loop
      vertex 50.25 -52.5 -1.25
      vertex 50.909 -54.091 1
      vertex 50.909 -54.091 -1.25
    endloop
  endfacet
  facet normal 0.382677 0.923882 -0
    outer loop
      vertex 52.5 50.25 -1.25
      vertex 50.909 50.909 1
      vertex 52.5 50.25 1
    endloop
  endfacet
  facet normal 0.382677 0.923882 0
    outer loop
      vertex 50.909 50.909 1
      vertex 52.5 50.25 -1.25
      vertex 50.909 50.909 -1.25
    endloop
  endfacet
  facet normal -0.382677 -0.923882 0
    outer loop
      vertex 52.5 54.75 -1.25
      vertex 54.091 54.091 1
      vertex 52.5 54.75 1
    endloop
  endfacet
  facet normal -0.382677 -0.923882 -0
    outer loop
      vertex 54.091 54.091 1
      vertex 52.5 54.75 -1.25
      vertex 54.091 54.091 -1.25
    endloop
  endfacet
  facet normal -0.923882 -0.382677 0
    outer loop
      vertex 54.75 52.5 -1.25
      vertex 54.091 54.091 1
      vertex 54.091 54.091 -1.25
    endloop
  endfacet
  facet normal -0.923882 -0.382677 0
    outer loop
      vertex 54.091 54.091 1
      vertex 54.75 52.5 -1.25
      vertex 54.75 52.5 1
    endloop
  endfacet
  facet normal 0.382677 -0.923882 0
    outer loop
      vertex 50.909 54.091 -1.25
      vertex 52.5 54.75 1
      vertex 50.909 54.091 1
    endloop
  endfacet
  facet normal 0.382677 -0.923882 0
    outer loop
      vertex 52.5 54.75 1
      vertex 50.909 54.091 -1.25
      vertex 52.5 54.75 -1.25
    endloop
  endfacet
  facet normal -0.382677 0.923882 0
    outer loop
      vertex 54.091 50.909 -1.25
      vertex 52.5 50.25 1
      vertex 54.091 50.909 1
    endloop
  endfacet
  facet normal -0.382677 0.923882 0
    outer loop
      vertex 52.5 50.25 1
      vertex 54.091 50.909 -1.25
      vertex 52.5 50.25 -1.25
    endloop
  endfacet
  facet normal -0.923882 0.382677 0
    outer loop
      vertex 54.091 50.909 -1.25
      vertex 54.75 52.5 1
      vertex 54.75 52.5 -1.25
    endloop
  endfacet
  facet normal -0.923882 0.382677 0
    outer loop
      vertex 54.75 52.5 1
      vertex 54.091 50.909 -1.25
      vertex 54.091 50.909 1
    endloop
  endfacet
  facet normal 0.923882 0.382677 0
    outer loop
      vertex 50.909 50.909 1
      vertex 50.25 52.5 -1.25
      vertex 50.25 52.5 1
    endloop
  endfacet
  facet normal 0.923882 0.382677 0
    outer loop
      vertex 50.25 52.5 -1.25
      vertex 50.909 50.909 1
      vertex 50.909 50.909 -1.25
    endloop
  endfacet
  facet normal 0.923882 -0.382677 0
    outer loop
      vertex 50.25 52.5 1
      vertex 50.909 54.091 -1.25
      vertex 50.909 54.091 1
    endloop
  endfacet
  facet normal 0.923882 -0.382677 0
    outer loop
      vertex 50.909 54.091 -1.25
      vertex 50.25 52.5 1
      vertex 50.25 52.5 -1.25
    endloop
  endfacet
  facet normal 0 0 -1
    outer loop
      vertex 54.091 50.909 1
      vertex 54.091 54.091 1
      vertex 54.75 52.5 1
    endloop
  endfacet
  facet normal 0 0 -1
    outer loop
      vertex 52.5 50.25 1
      vertex 54.091 54.091 1
      vertex 54.091 50.909 1
    endloop
  endfacet
  facet normal 0 0 -1
    outer loop
      vertex 52.5 50.25 1
      vertex 52.5 54.75 1
      vertex 54.091 54.091 1
    endloop
  endfacet
  facet normal 0 0 -1
    outer loop
      vertex 50.909 50.909 1
      vertex 52.5 54.75 1
      vertex 52.5 50.25 1
    endloop
  endfacet
  facet normal 0 0 -1
    outer loop
      vertex 50.909 50.909 1
      vertex 50.909 54.091 1
      vertex 52.5 54.75 1
    endloop
  endfacet
  facet normal 0 -0 -1
    outer loop
      vertex 50.909 54.091 1
      vertex 50.909 50.909 1
      vertex 50.25 52.5 1
    endloop
  endfacet
  facet normal -0.950773 -0.308928 -0.0243647
    outer loop
      vertex 66.025 14.034 60.5
      vertex 61.6643 27.4547 60.5
      vertex 55 52.5 3
    endloop
  endfacet
  facet normal 0.207728 -0.977285 0.041993
    outer loop
      vertex -7.05567 67.1302 59.5
      vertex -20.8586 64.1963 59.5
      vertex -52.5 55 2
    endloop
  endfacet
  facet normal 0.994522 0.104526 0
    outer loop
      vertex -66.025 -14.034 60.5
      vertex -67.5 0 59.5
      vertex -67.5 0 60.5
    endloop
  endfacet
  facet normal 0.994522 0.104526 0
    outer loop
      vertex -67.5 0 59.5
      vertex -66.025 -14.034 60.5
      vertex -66.025 -14.034 59.5
    endloop
  endfacet
  facet normal 0 1 -0
    outer loop
      vertex 7.05567 -67.1302 59.5
      vertex -7.05567 -67.1302 60.5
      vertex 7.05567 -67.1302 60.5
    endloop
  endfacet
  facet normal 0 1 0
    outer loop
      vertex -7.05567 -67.1302 60.5
      vertex 7.05567 -67.1302 59.5
      vertex -7.05567 -67.1302 59.5
    endloop
  endfacet
  facet normal -0.922252 0.381985 -0.0594915
    outer loop
      vertex 61.6643 -27.4547 60.5
      vertex 55 -52.5 3
      vertex 54.2678 -54.2678 3
    endloop
  endfacet
  facet normal -0.581212 0.799973 -0.149116
    outer loop
      vertex 45.1663 -50.1623 60.5
      vertex 54.2678 -54.2678 3
      vertex 33.75 -58.4567 60.5
    endloop
  endfacet
  facet normal 0.994522 -0.104526 0
    outer loop
      vertex -67.5 0 60.5
      vertex -66.025 14.034 59.5
      vertex -66.025 14.034 60.5
    endloop
  endfacet
  facet normal 0.994522 -0.104526 0
    outer loop
      vertex -66.025 14.034 59.5
      vertex -67.5 0 60.5
      vertex -67.5 0 59.5
    endloop
  endfacet
  facet normal 0 -1 0
    outer loop
      vertex -7.05567 67.1302 59.5
      vertex 7.05567 67.1302 60.5
      vertex -7.05567 67.1302 60.5
    endloop
  endfacet
  facet normal 0 -1 -0
    outer loop
      vertex 7.05567 67.1302 60.5
      vertex -7.05567 67.1302 59.5
      vertex 7.05567 67.1302 59.5
    endloop
  endfacet
  facet normal 0.987349 -0.103772 0.119892
    outer loop
      vertex -55 52.5 2
      vertex -66.025 14.034 59.5
      vertex -67.5 0 59.5
    endloop
  endfacet
  facet normal -0.38191 -0.922071 -0.0626874
    outer loop
      vertex 52.5 55 3
      vertex 54.2678 54.2678 3
      vertex 20.8586 64.1963 60.5
    endloop
  endfacet
  facet normal 0.923888 -0.382663 0
    outer loop
      vertex -55 52.5 3
      vertex -54.2678 54.2678 2
      vertex -54.2678 54.2678 3
    endloop
  endfacet
  facet normal 0.923888 -0.382663 0
    outer loop
      vertex -54.2678 54.2678 2
      vertex -55 52.5 3
      vertex -55 52.5 2
    endloop
  endfacet
  facet normal 0.382663 -0.923888 0
    outer loop
      vertex -54.2678 54.2678 2
      vertex -52.5 55 3
      vertex -54.2678 54.2678 3
    endloop
  endfacet
  facet normal 0.382663 -0.923888 0
    outer loop
      vertex -52.5 55 3
      vertex -54.2678 54.2678 2
      vertex -52.5 55 2
    endloop
  endfacet
  facet normal -0.977176 0 0.21243
    outer loop
      vertex 67.5 0 59.5
      vertex 55 52.5 2
      vertex 55 -52.5 2
    endloop
  endfacet
  facet normal -0.961294 -0.275523 0
    outer loop
      vertex 66.025 14.034 59.5
      vertex 55 52.5 3
      vertex 55 52.5 2
    endloop
  endfacet
  facet normal -0.961294 -0.275523 0
    outer loop
      vertex 55 52.5 3
      vertex 66.025 14.034 59.5
      vertex 66.025 14.034 60.5
    endloop
  endfacet
  facet normal -0.859676 0.496335 -0.120864
    outer loop
      vertex 54.6086 -39.6755 60.5
      vertex 61.6643 -27.4547 60.5
      vertex 54.2678 -54.2678 3
    endloop
  endfacet
  facet normal -0.581212 -0.799973 -0.149116
    outer loop
      vertex 54.2678 54.2678 3
      vertex 45.1663 50.1623 60.5
      vertex 33.75 58.4567 60.5
    endloop
  endfacet
  facet normal -0.405485 -0.910738 -0.0783422
    outer loop
      vertex 54.2678 54.2678 3
      vertex 33.75 58.4567 60.5
      vertex 20.8586 64.1963 60.5
    endloop
  endfacet
  facet normal 0.859676 0.496335 -0.120864
    outer loop
      vertex -54.6086 -39.6755 60.5
      vertex -54.2678 -54.2678 3
      vertex -61.6643 -27.4547 60.5
    endloop
  endfacet
  facet normal 0.950773 0.308928 -0.0243647
    outer loop
      vertex -61.6643 -27.4547 60.5
      vertex -55 -52.5 3
      vertex -66.025 -14.034 60.5
    endloop
  endfacet
  facet normal -0.207911 -0.978148 0
    outer loop
      vertex 7.05567 67.1302 59.5
      vertex 20.8586 64.1963 60.5
      vertex 7.05567 67.1302 60.5
    endloop
  endfacet
  facet normal -0.207911 -0.978148 -0
    outer loop
      vertex 20.8586 64.1963 60.5
      vertex 7.05567 67.1302 59.5
      vertex 20.8586 64.1963 59.5
    endloop
  endfacet
  facet normal -0.38191 0.922071 -0.0626874
    outer loop
      vertex 54.2678 -54.2678 3
      vertex 52.5 -55 3
      vertex 20.8586 -64.1963 60.5
    endloop
  endfacet
  facet normal -0.207911 0.978148 0
    outer loop
      vertex 20.8586 -64.1963 59.5
      vertex 7.05567 -67.1302 60.5
      vertex 20.8586 -64.1963 60.5
    endloop
  endfacet
  facet normal -0.207911 0.978148 0
    outer loop
      vertex 7.05567 -67.1302 60.5
      vertex 20.8586 -64.1963 59.5
      vertex 7.05567 -67.1302 59.5
    endloop
  endfacet
  facet normal 0.207911 -0.978148 0
    outer loop
      vertex -20.8586 64.1963 59.5
      vertex -7.05567 67.1302 60.5
      vertex -20.8586 64.1963 60.5
    endloop
  endfacet
  facet normal 0.207911 -0.978148 0
    outer loop
      vertex -7.05567 67.1302 60.5
      vertex -20.8586 64.1963 59.5
      vertex -7.05567 67.1302 59.5
    endloop
  endfacet
  facet normal -0.733185 0.660159 -0.163189
    outer loop
      vertex 54.6086 -39.6755 60.5
      vertex 54.2678 -54.2678 3
      vertex 45.1663 -50.1623 60.5
    endloop
  endfacet
  facet normal -0.733185 -0.660159 -0.163189
    outer loop
      vertex 54.2678 54.2678 3
      vertex 54.6086 39.6755 60.5
      vertex 45.1663 50.1623 60.5
    endloop
  endfacet
  facet normal -0.859676 -0.496335 -0.120864
    outer loop
      vertex 61.6643 27.4547 60.5
      vertex 54.6086 39.6755 60.5
      vertex 54.2678 54.2678 3
    endloop
  endfacet
  facet normal 0.950773 -0.308928 -0.0243647
    outer loop
      vertex -55 52.5 3
      vertex -61.6643 27.4547 60.5
      vertex -66.025 14.034 60.5
    endloop
  endfacet
  facet normal -0.923888 0.382663 0
    outer loop
      vertex 54.2678 -54.2678 2
      vertex 55 -52.5 3
      vertex 55 -52.5 2
    endloop
  endfacet
  facet normal -0.923888 0.382663 0
    outer loop
      vertex 55 -52.5 3
      vertex 54.2678 -54.2678 2
      vertex 54.2678 -54.2678 3
    endloop
  endfacet
  facet normal 0.859676 -0.496335 -0.120864
    outer loop
      vertex -54.2678 54.2678 3
      vertex -54.6086 39.6755 60.5
      vertex -61.6643 27.4547 60.5
    endloop
  endfacet
  facet normal 0.279093 -0.960264 0
    outer loop
      vertex -52.5 55 3
      vertex -20.8586 64.1963 59.5
      vertex -20.8586 64.1963 60.5
    endloop
  endfacet
  facet normal 0.279093 -0.960264 0
    outer loop
      vertex -20.8586 64.1963 59.5
      vertex -52.5 55 3
      vertex -52.5 55 2
    endloop
  endfacet
  facet normal 0.279093 0.960264 -0
    outer loop
      vertex -20.8586 -64.1963 59.5
      vertex -52.5 -55 3
      vertex -20.8586 -64.1963 60.5
    endloop
  endfacet
  facet normal 0.279093 0.960264 0
    outer loop
      vertex -52.5 -55 3
      vertex -20.8586 -64.1963 59.5
      vertex -52.5 -55 2
    endloop
  endfacet
  facet normal 0.581212 0.799973 -0.149116
    outer loop
      vertex -45.1663 -50.1623 60.5
      vertex -33.75 -58.4567 60.5
      vertex -54.2678 -54.2678 3
    endloop
  endfacet
  facet normal 0.733185 -0.660159 -0.163189
    outer loop
      vertex -54.2678 54.2678 3
      vertex -45.1663 50.1623 60.5
      vertex -54.6086 39.6755 60.5
    endloop
  endfacet
  facet normal -0.950773 0.308928 -0.0243647
    outer loop
      vertex 61.6643 -27.4547 60.5
      vertex 66.025 -14.034 60.5
      vertex 55 -52.5 3
    endloop
  endfacet
  facet normal 0.977176 -0 0.21243
    outer loop
      vertex -55 -52.5 2
      vertex -55 52.5 2
      vertex -67.5 0 59.5
    endloop
  endfacet
  facet normal -0.382663 -0.923888 0
    outer loop
      vertex 52.5 55 2
      vertex 54.2678 54.2678 3
      vertex 52.5 55 3
    endloop
  endfacet
  facet normal -0.382663 -0.923888 -0
    outer loop
      vertex 54.2678 54.2678 3
      vertex 52.5 55 2
      vertex 54.2678 54.2678 2
    endloop
  endfacet
  facet normal 0 0.978464 0.206417
    outer loop
      vertex 52.5 -55 2
      vertex -7.05567 -67.1302 59.5
      vertex 7.05567 -67.1302 59.5
    endloop
  endfacet
  facet normal 0 0.978464 0.206417
    outer loop
      vertex -7.05567 -67.1302 59.5
      vertex 52.5 -55 2
      vertex -52.5 -55 2
    endloop
  endfacet
  facet normal -0.405485 0.910738 -0.0783422
    outer loop
      vertex 33.75 -58.4567 60.5
      vertex 54.2678 -54.2678 3
      vertex 20.8586 -64.1963 60.5
    endloop
  endfacet
  facet normal -0.382663 0.923888 0
    outer loop
      vertex 54.2678 -54.2678 2
      vertex 52.5 -55 3
      vertex 54.2678 -54.2678 3
    endloop
  endfacet
  facet normal -0.382663 0.923888 0
    outer loop
      vertex 52.5 -55 3
      vertex 54.2678 -54.2678 2
      vertex 52.5 -55 2
    endloop
  endfacet
  facet normal 0.922252 0.381985 -0.0594915
    outer loop
      vertex -54.2678 -54.2678 3
      vertex -55 -52.5 3
      vertex -61.6643 -27.4547 60.5
    endloop
  endfacet
  facet normal 0.961294 -0.275523 0
    outer loop
      vertex -66.025 14.034 59.5
      vertex -55 52.5 3
      vertex -66.025 14.034 60.5
    endloop
  endfacet
  facet normal 0.961294 -0.275523 0
    outer loop
      vertex -55 52.5 3
      vertex -66.025 14.034 59.5
      vertex -55 52.5 2
    endloop
  endfacet
  facet normal -0.922252 -0.381985 -0.0594915
    outer loop
      vertex 55 52.5 3
      vertex 61.6643 27.4547 60.5
      vertex 54.2678 54.2678 3
    endloop
  endfacet
  facet normal 0 -0.978464 0.206417
    outer loop
      vertex -52.5 55 2
      vertex 7.05567 67.1302 59.5
      vertex -7.05567 67.1302 59.5
    endloop
  endfacet
  facet normal 0 -0.978464 0.206417
    outer loop
      vertex 7.05567 67.1302 59.5
      vertex -52.5 55 2
      vertex 52.5 55 2
    endloop
  endfacet
  facet normal -0.923888 -0.382663 0
    outer loop
      vertex 55 52.5 2
      vertex 54.2678 54.2678 3
      vertex 54.2678 54.2678 2
    endloop
  endfacet
  facet normal -0.923888 -0.382663 0
    outer loop
      vertex 54.2678 54.2678 3
      vertex 55 52.5 2
      vertex 55 52.5 3
    endloop
  endfacet
  facet normal -0.279093 -0.960264 0
    outer loop
      vertex 20.8586 64.1963 59.5
      vertex 52.5 55 3
      vertex 20.8586 64.1963 60.5
    endloop
  endfacet
  facet normal -0.279093 -0.960264 -0
    outer loop
      vertex 52.5 55 3
      vertex 20.8586 64.1963 59.5
      vertex 52.5 55 2
    endloop
  endfacet
  facet normal -0.207728 -0.977285 0.041993
    outer loop
      vertex 52.5 55 2
      vertex 20.8586 64.1963 59.5
      vertex 7.05567 67.1302 59.5
    endloop
  endfacet
  facet normal 0.581212 -0.799973 -0.149116
    outer loop
      vertex -33.75 58.4567 60.5
      vertex -45.1663 50.1623 60.5
      vertex -54.2678 54.2678 3
    endloop
  endfacet
  facet normal 0.405485 -0.910738 -0.0783422
    outer loop
      vertex -20.8586 64.1963 60.5
      vertex -33.75 58.4567 60.5
      vertex -54.2678 54.2678 3
    endloop
  endfacet
  facet normal 0 0 1
    outer loop
      vertex 52.5 55 2
      vertex 55 52.5 2
      vertex 54.2678 54.2678 2
    endloop
  endfacet
  facet normal 0 0 1
    outer loop
      vertex 55 52.5 2
      vertex 52.5 55 2
      vertex 55 -52.5 2
    endloop
  endfacet
  facet normal 0 0 1
    outer loop
      vertex 52.5 -55 2
      vertex 55 -52.5 2
      vertex 52.5 55 2
    endloop
  endfacet
  facet normal 0 0 1
    outer loop
      vertex 55 -52.5 2
      vertex 52.5 -55 2
      vertex 54.2678 -54.2678 2
    endloop
  endfacet
  facet normal -0 0 1
    outer loop
      vertex -52.5 55 2
      vertex 52.5 -55 2
      vertex 52.5 55 2
    endloop
  endfacet
  facet normal 0 0 1
    outer loop
      vertex -52.5 55 2
      vertex -52.5 -55 2
      vertex 52.5 -55 2
    endloop
  endfacet
  facet normal 0 0 1
    outer loop
      vertex -55 52.5 2
      vertex -52.5 55 2
      vertex -54.2678 54.2678 2
    endloop
  endfacet
  facet normal 0 0 1
    outer loop
      vertex -52.5 55 2
      vertex -55 52.5 2
      vertex -52.5 -55 2
    endloop
  endfacet
  facet normal -0 0 1
    outer loop
      vertex -55 -52.5 2
      vertex -52.5 -55 2
      vertex -55 52.5 2
    endloop
  endfacet
  facet normal 0 0 1
    outer loop
      vertex -52.5 -55 2
      vertex -55 -52.5 2
      vertex -54.2678 -54.2678 2
    endloop
  endfacet
  facet normal 0.405485 0.910738 -0.0783422
    outer loop
      vertex -33.75 -58.4567 60.5
      vertex -20.8586 -64.1963 60.5
      vertex -54.2678 -54.2678 3
    endloop
  endfacet
  facet normal 0.987349 0.103772 0.119892
    outer loop
      vertex -66.025 -14.034 59.5
      vertex -55 -52.5 2
      vertex -67.5 0 59.5
    endloop
  endfacet
  facet normal 0.961294 0.275523 0
    outer loop
      vertex -55 -52.5 3
      vertex -66.025 -14.034 59.5
      vertex -66.025 -14.034 60.5
    endloop
  endfacet
  facet normal 0.961294 0.275523 0
    outer loop
      vertex -66.025 -14.034 59.5
      vertex -55 -52.5 3
      vertex -55 -52.5 2
    endloop
  endfacet
  facet normal 0.733185 0.660159 -0.163189
    outer loop
      vertex -45.1663 -50.1623 60.5
      vertex -54.2678 -54.2678 3
      vertex -54.6086 -39.6755 60.5
    endloop
  endfacet
  facet normal -0.994522 0.104526 0
    outer loop
      vertex 66.025 -14.034 59.5
      vertex 67.5 0 60.5
      vertex 67.5 0 59.5
    endloop
  endfacet
  facet normal -0.994522 0.104526 0
    outer loop
      vertex 67.5 0 60.5
      vertex 66.025 -14.034 59.5
      vertex 66.025 -14.034 60.5
    endloop
  endfacet
  facet normal 0.207911 0.978148 -0
    outer loop
      vertex -7.05567 -67.1302 59.5
      vertex -20.8586 -64.1963 60.5
      vertex -7.05567 -67.1302 60.5
    endloop
  endfacet
  facet normal 0.207911 0.978148 0
    outer loop
      vertex -20.8586 -64.1963 60.5
      vertex -7.05567 -67.1302 59.5
      vertex -20.8586 -64.1963 59.5
    endloop
  endfacet
  facet normal -0.207728 0.977285 0.041993
    outer loop
      vertex 20.8586 -64.1963 59.5
      vertex 52.5 -55 2
      vertex 7.05567 -67.1302 59.5
    endloop
  endfacet
  facet normal -0.279093 0.960264 0
    outer loop
      vertex 52.5 -55 3
      vertex 20.8586 -64.1963 59.5
      vertex 20.8586 -64.1963 60.5
    endloop
  endfacet
  facet normal -0.279093 0.960264 0
    outer loop
      vertex 20.8586 -64.1963 59.5
      vertex 52.5 -55 3
      vertex 52.5 -55 2
    endloop
  endfacet
  facet normal -0.987349 0.103772 0.119892
    outer loop
      vertex 66.025 -14.034 59.5
      vertex 67.5 0 59.5
      vertex 55 -52.5 2
    endloop
  endfacet
  facet normal 0.38191 -0.922071 -0.0626874
    outer loop
      vertex -52.5 55 3
      vertex -20.8586 64.1963 60.5
      vertex -54.2678 54.2678 3
    endloop
  endfacet
  facet normal 0.922252 -0.381985 -0.0594915
    outer loop
      vertex -55 52.5 3
      vertex -54.2678 54.2678 3
      vertex -61.6643 27.4547 60.5
    endloop
  endfacet
  facet normal 0.923888 0.382663 0
    outer loop
      vertex -54.2678 -54.2678 3
      vertex -55 -52.5 2
      vertex -55 -52.5 3
    endloop
  endfacet
  facet normal 0.923888 0.382663 0
    outer loop
      vertex -55 -52.5 2
      vertex -54.2678 -54.2678 3
      vertex -54.2678 -54.2678 2
    endloop
  endfacet
  facet normal 0.207728 0.977285 0.041993
    outer loop
      vertex -20.8586 -64.1963 59.5
      vertex -7.05567 -67.1302 59.5
      vertex -52.5 -55 2
    endloop
  endfacet
  facet normal -0.987349 -0.103772 0.119892
    outer loop
      vertex 67.5 0 59.5
      vertex 66.025 14.034 59.5
      vertex 55 52.5 2
    endloop
  endfacet
  facet normal 0.38191 0.922071 -0.0626874
    outer loop
      vertex -20.8586 -64.1963 60.5
      vertex -52.5 -55 3
      vertex -54.2678 -54.2678 3
    endloop
  endfacet
  facet normal 0.382663 0.923888 -0
    outer loop
      vertex -52.5 -55 2
      vertex -54.2678 -54.2678 3
      vertex -52.5 -55 3
    endloop
  endfacet
  facet normal 0.382663 0.923888 0
    outer loop
      vertex -54.2678 -54.2678 3
      vertex -52.5 -55 2
      vertex -54.2678 -54.2678 2
    endloop
  endfacet
  facet normal -0.994522 -0.104526 0
    outer loop
      vertex 67.5 0 59.5
      vertex 66.025 14.034 60.5
      vertex 66.025 14.034 59.5
    endloop
  endfacet
  facet normal -0.994522 -0.104526 0
    outer loop
      vertex 66.025 14.034 60.5
      vertex 67.5 0 59.5
      vertex 67.5 0 60.5
    endloop
  endfacet
  facet normal -0.961294 0.275523 0
    outer loop
      vertex 55 -52.5 3
      vertex 66.025 -14.034 59.5
      vertex 55 -52.5 2
    endloop
  endfacet
  facet normal -0.961294 0.275523 0
    outer loop
      vertex 66.025 -14.034 59.5
      vertex 55 -52.5 3
      vertex 66.025 -14.034 60.5
    endloop
  endfacet
endsolid OpenSCAD_Model
