solid OpenSCAD_Model
  facet normal -0.831458 0.555587 0
    outer loop
      vertex -59.6194 56.9134 -0.5
      vertex -58.5355 58.5355 -1
      vertex -59.6194 56.9134 -1
    endloop
  endfacet
  facet normal -0.831458 0.555587 0
    outer loop
      vertex -58.5355 58.5355 -1
      vertex -59.6194 56.9134 -0.5
      vertex -58.5355 58.5355 1
    endloop
  endfacet
  facet normal -0.831458 0.555587 0
    outer loop
      vertex -59.6194 56.9134 0.5
      vertex -58.5355 58.5355 1
      vertex -59.6194 56.9134 -0.5
    endloop
  endfacet
  facet normal -0.831458 0.555587 0
    outer loop
      vertex -58.5355 58.5355 1
      vertex -59.6194 56.9134 0.5
      vertex -59.6194 56.9134 1
    endloop
  endfacet
  facet normal 0.994522 -0.104529 0
    outer loop
      vertex 78.2518 -16.6329 50.5
      vertex 80 0 49.5
      vertex 80 0 50.5
    endloop
  endfacet
  facet normal 0.994522 -0.104529 0
    outer loop
      vertex 80 0 49.5
      vertex 78.2518 -16.6329 50.5
      vertex 78.2518 -16.6329 49.5
    endloop
  endfacet
  facet normal 0.86598 0.499969 0.0105352
    outer loop
      vertex 73.0836 32.5389 50.5
      vertex 59.6194 56.9134 0.5
      vertex 64.7214 47.0228 50.5
    endloop
  endfacet
  facet normal 0.960172 -0.190991 -0.203942
    outer loop
      vertex 78.2518 -16.6329 49.5
      vertex 59.6194 -56.9134 -0.5
      vertex 60 -55 -0.5
    endloop
  endfacet
  facet normal 0.204327 0.961264 -0.184993
    outer loop
      vertex 56.9134 59.6194 -0.5
      vertex 8.36228 79.5618 49.5
      vertex 24.7214 76.0845 49.5
    endloop
  endfacet
  facet normal -0.406738 -0.913545 0
    outer loop
      vertex -40 -69.282 49.5
      vertex -24.7214 -76.0845 50.5
      vertex -40 -69.282 50.5
    endloop
  endfacet
  facet normal -0.406738 -0.913545 -0
    outer loop
      vertex -24.7214 -76.0845 50.5
      vertex -40 -69.282 49.5
      vertex -24.7214 -76.0845 49.5
    endloop
  endfacet
  facet normal 0.875331 -0.483523 0
    outer loop
      vertex 59.6194 -56.9134 0.5
      vertex 73.0836 -32.5389 49.5
      vertex 73.0836 -32.5389 50.5
    endloop
  endfacet
  facet normal 0.875331 -0.483523 0
    outer loop
      vertex 73.0836 -32.5389 49.5
      vertex 59.6194 -56.9134 0.5
      vertex 59.6194 -56.9134 -0.5
    endloop
  endfacet
  facet normal 0.86598 -0.499969 0.0105352
    outer loop
      vertex 64.7214 -47.0228 50.5
      vertex 59.6194 -56.9134 0.5
      vertex 73.0836 -32.5389 50.5
    endloop
  endfacet
  facet normal 0.994522 0.104529 0
    outer loop
      vertex 80 0 50.5
      vertex 78.2518 16.6329 49.5
      vertex 78.2518 16.6329 50.5
    endloop
  endfacet
  facet normal 0.994522 0.104529 0
    outer loop
      vertex 78.2518 16.6329 49.5
      vertex 80 0 50.5
      vertex 80 0 49.5
    endloop
  endfacet
  facet normal -0.191238 0.961415 -0.197762
    outer loop
      vertex -55 60 -0.5
      vertex -56.9134 59.6194 -0.5
      vertex -8.36228 79.5618 49.5
    endloop
  endfacet
  facet normal 0.191238 0.961415 -0.197762
    outer loop
      vertex 55 60 -0.5
      vertex 8.36228 79.5618 49.5
      vertex 56.9134 59.6194 -0.5
    endloop
  endfacet
  facet normal -0.191238 -0.961415 -0.197762
    outer loop
      vertex -8.36228 -79.5618 49.5
      vertex -56.9134 -59.6194 -0.5
      vertex -55 -60 -0.5
    endloop
  endfacet
  facet normal 0.960172 0.190991 -0.203942
    outer loop
      vertex 60 55 -0.5
      vertex 59.6194 56.9134 -0.5
      vertex 78.2518 16.6329 49.5
    endloop
  endfacet
  facet normal -0.207915 -0.978147 0
    outer loop
      vertex -24.7214 -76.0845 49.5
      vertex -8.36228 -79.5618 50.5
      vertex -24.7214 -76.0845 50.5
    endloop
  endfacet
  facet normal -0.207915 -0.978147 -0
    outer loop
      vertex -8.36228 -79.5618 50.5
      vertex -24.7214 -76.0845 49.5
      vertex -8.36228 -79.5618 49.5
    endloop
  endfacet
  facet normal -0.928477 0 -0.371391
    outer loop
      vertex -60 -55 -0.5
      vertex -80 0 49.5
      vertex -60 55 -0.5
    endloop
  endfacet
  facet normal -0.555587 0.831458 0
    outer loop
      vertex -56.9134 59.6194 0.5
      vertex -58.5355 58.5355 1
      vertex -56.9134 59.6194 1
    endloop
  endfacet
  facet normal -0.555587 0.831458 0
    outer loop
      vertex -56.9134 59.6194 -0.5
      vertex -58.5355 58.5355 1
      vertex -56.9134 59.6194 0.5
    endloop
  endfacet
  facet normal -0.555587 0.831458 0
    outer loop
      vertex -58.5355 58.5355 -1
      vertex -56.9134 59.6194 -0.5
      vertex -56.9134 59.6194 -1
    endloop
  endfacet
  facet normal -0.555587 0.831458 0
    outer loop
      vertex -56.9134 59.6194 -0.5
      vertex -58.5355 58.5355 -1
      vertex -58.5355 58.5355 1
    endloop
  endfacet
  facet normal -0.831315 0.555239 0.0250055
    outer loop
      vertex -59.6194 56.9134 0.5
      vertex -64.7214 47.0228 50.5
      vertex -59.6258 56.8813 1
    endloop
  endfacet
  facet normal -0.831207 0.555398 0.0250484
    outer loop
      vertex -58.5974 58.4204 1
      vertex -59.6258 56.8813 1
      vertex -64.7214 47.0228 50.5
    endloop
  endfacet
  facet normal -0.86598 0.499969 0.0105352
    outer loop
      vertex -59.6194 56.9134 0.5
      vertex -73.0836 32.5389 50.5
      vertex -64.7214 47.0228 50.5
    endloop
  endfacet
  facet normal 0.207915 0.978147 -0
    outer loop
      vertex 24.7214 76.0845 49.5
      vertex 8.36228 79.5618 50.5
      vertex 24.7214 76.0845 50.5
    endloop
  endfacet
  facet normal 0.207915 0.978147 0
    outer loop
      vertex 8.36228 79.5618 50.5
      vertex 24.7214 76.0845 49.5
      vertex 8.36228 79.5618 49.5
    endloop
  endfacet
  facet normal 0.496054 0.868292 0
    outer loop
      vertex 56.9134 59.6194 0.5
      vertex 40 69.282 49.5
      vertex 40 69.282 50.5
    endloop
  endfacet
  facet normal 0.496054 0.868292 0
    outer loop
      vertex 40 69.282 49.5
      vertex 56.9134 59.6194 0.5
      vertex 56.9134 59.6194 -0.5
    endloop
  endfacet
  facet normal -0.406738 0.913545 0
    outer loop
      vertex -24.7214 76.0845 49.5
      vertex -40 69.282 50.5
      vertex -24.7214 76.0845 50.5
    endloop
  endfacet
  facet normal -0.406738 0.913545 0
    outer loop
      vertex -40 69.282 50.5
      vertex -24.7214 76.0845 49.5
      vertex -40 69.282 49.5
    endloop
  endfacet
  facet normal 0.741713 -0.667845 0.0620117
    outer loop
      vertex 53.5304 -59.4516 50.5
      vertex 58.5974 -58.4204 1
      vertex 64.7214 -47.0228 50.5
    endloop
  endfacet
  facet normal 0.741774 -0.667776 0.0620194
    outer loop
      vertex 58.5974 -58.4204 1
      vertex 53.5304 -59.4516 50.5
      vertex 58.4855 -58.5447 1
    endloop
  endfacet
  facet normal -0.831458 -0.555587 0
    outer loop
      vertex -58.5355 -58.5355 -1
      vertex -59.6194 -56.9134 -0.5
      vertex -59.6194 -56.9134 -1
    endloop
  endfacet
  facet normal -0.831458 -0.555587 0
    outer loop
      vertex -59.6194 -56.9134 -0.5
      vertex -58.5355 -58.5355 -1
      vertex -59.6194 -56.9134 0.5
    endloop
  endfacet
  facet normal -0.831458 -0.555587 -0
    outer loop
      vertex -58.5355 -58.5355 1
      vertex -59.6194 -56.9134 0.5
      vertex -58.5355 -58.5355 -1
    endloop
  endfacet
  facet normal -0.831458 -0.555587 0
    outer loop
      vertex -59.6194 -56.9134 0.5
      vertex -58.5355 -58.5355 1
      vertex -59.6194 -56.9134 1
    endloop
  endfacet
  facet normal -0.555341 -0.831177 0.027227
    outer loop
      vertex -56.8785 -59.6263 1
      vertex -40 -69.282 50.5
      vertex -58.3502 -58.643 1
    endloop
  endfacet
  facet normal -0.555507 -0.831063 0.0273057
    outer loop
      vertex -40 -69.282 50.5
      vertex -56.8785 -59.6263 1
      vertex -56.9134 -59.6194 0.5
    endloop
  endfacet
  facet normal -0.555587 -0.831458 0
    outer loop
      vertex -58.5355 -58.5355 1
      vertex -56.9134 -59.6194 0.5
      vertex -56.9134 -59.6194 1
    endloop
  endfacet
  facet normal -0.555587 -0.831458 0
    outer loop
      vertex -58.5355 -58.5355 1
      vertex -56.9134 -59.6194 -0.5
      vertex -56.9134 -59.6194 0.5
    endloop
  endfacet
  facet normal -0.555587 -0.831458 0
    outer loop
      vertex -58.5355 -58.5355 -1
      vertex -56.9134 -59.6194 -0.5
      vertex -58.5355 -58.5355 1
    endloop
  endfacet
  facet normal -0.555587 -0.831458 -0
    outer loop
      vertex -56.9134 -59.6194 -0.5
      vertex -58.5355 -58.5355 -1
      vertex -56.9134 -59.6194 -1
    endloop
  endfacet
  facet normal 0 0.931264 -0.364344
    outer loop
      vertex 55 60 -0.5
      vertex -8.36228 79.5618 49.5
      vertex 8.36228 79.5618 49.5
    endloop
  endfacet
  facet normal 0 0.931264 -0.364344
    outer loop
      vertex -8.36228 79.5618 49.5
      vertex 55 60 -0.5
      vertex -55 60 -0.5
    endloop
  endfacet
  facet normal 0.951056 0.309018 0
    outer loop
      vertex 78.2518 16.6329 50.5
      vertex 73.0836 32.5389 49.5
      vertex 73.0836 32.5389 50.5
    endloop
  endfacet
  facet normal 0.951056 0.309018 0
    outer loop
      vertex 73.0836 32.5389 49.5
      vertex 78.2518 16.6329 50.5
      vertex 78.2518 16.6329 49.5
    endloop
  endfacet
  facet normal -0.555507 0.831063 0.0273057
    outer loop
      vertex -40 69.282 50.5
      vertex -56.9134 59.6194 0.5
      vertex -56.8785 59.6263 1
    endloop
  endfacet
  facet normal -0.555341 0.831177 0.027227
    outer loop
      vertex -40 69.282 50.5
      vertex -56.8785 59.6263 1
      vertex -58.3502 58.643 1
    endloop
  endfacet
  facet normal 0 -1 0
    outer loop
      vertex -8.36228 -79.5618 49.5
      vertex 8.36228 -79.5618 50.5
      vertex -8.36228 -79.5618 50.5
    endloop
  endfacet
  facet normal 0 -1 -0
    outer loop
      vertex 8.36228 -79.5618 50.5
      vertex -8.36228 -79.5618 49.5
      vertex 8.36228 -79.5618 49.5
    endloop
  endfacet
  facet normal 0.928477 0 -0.371391
    outer loop
      vertex 80 0 49.5
      vertex 60 -55 -0.5
      vertex 60 55 -0.5
    endloop
  endfacet
  facet normal -0.587212 -0.808238 0.0439738
    outer loop
      vertex -58.3502 -58.643 1
      vertex -53.5304 -59.4516 50.5
      vertex -58.4855 -58.5447 1
    endloop
  endfacet
  facet normal -0.587216 -0.808235 0.0439743
    outer loop
      vertex -53.5304 -59.4516 50.5
      vertex -58.3502 -58.643 1
      vertex -40 -69.282 50.5
    endloop
  endfacet
  facet normal 0.945811 0.307314 -0.104879
    outer loop
      vertex 78.2518 16.6329 49.5
      vertex 59.6194 56.9134 -0.5
      vertex 73.0836 32.5389 49.5
    endloop
  endfacet
  facet normal 0.831315 0.555239 0.0250055
    outer loop
      vertex 59.6194 56.9134 0.5
      vertex 59.6258 56.8813 1
      vertex 64.7214 47.0228 50.5
    endloop
  endfacet
  facet normal 0.831207 0.555398 0.0250484
    outer loop
      vertex 58.5974 58.4204 1
      vertex 64.7214 47.0228 50.5
      vertex 59.6258 56.8813 1
    endloop
  endfacet
  facet normal -0.86598 -0.499969 0.0105352
    outer loop
      vertex -64.7214 -47.0228 50.5
      vertex -73.0836 -32.5389 50.5
      vertex -59.6194 -56.9134 0.5
    endloop
  endfacet
  facet normal 0.204327 -0.961264 -0.184993
    outer loop
      vertex 24.7214 -76.0845 49.5
      vertex 8.36228 -79.5618 49.5
      vertex 56.9134 -59.6194 -0.5
    endloop
  endfacet
  facet normal 0.555507 -0.831063 0.0273057
    outer loop
      vertex 40 -69.282 50.5
      vertex 56.9134 -59.6194 0.5
      vertex 56.8785 -59.6263 1
    endloop
  endfacet
  facet normal 0.555341 -0.831177 0.027227
    outer loop
      vertex 40 -69.282 50.5
      vertex 56.8785 -59.6263 1
      vertex 58.3502 -58.643 1
    endloop
  endfacet
  facet normal -0.994522 -0.104529 0
    outer loop
      vertex -78.2518 -16.6329 49.5
      vertex -80 0 50.5
      vertex -80 0 49.5
    endloop
  endfacet
  facet normal -0.994522 -0.104529 0
    outer loop
      vertex -80 0 50.5
      vertex -78.2518 -16.6329 49.5
      vertex -78.2518 -16.6329 50.5
    endloop
  endfacet
  facet normal 0.956983 0.100584 -0.272151
    outer loop
      vertex 80 0 49.5
      vertex 60 55 -0.5
      vertex 78.2518 16.6329 49.5
    endloop
  endfacet
  facet normal -0.204327 -0.961264 -0.184993
    outer loop
      vertex -24.7214 -76.0845 49.5
      vertex -56.9134 -59.6194 -0.5
      vertex -8.36228 -79.5618 49.5
    endloop
  endfacet
  facet normal 0.555587 0.831458 0
    outer loop
      vertex 58.5355 58.5355 1
      vertex 56.9134 59.6194 0.5
      vertex 56.9134 59.6194 1
    endloop
  endfacet
  facet normal 0.555587 0.831458 0
    outer loop
      vertex 58.5355 58.5355 1
      vertex 56.9134 59.6194 -0.5
      vertex 56.9134 59.6194 0.5
    endloop
  endfacet
  facet normal 0.555587 0.831458 -0
    outer loop
      vertex 58.5355 58.5355 -1
      vertex 56.9134 59.6194 -0.5
      vertex 58.5355 58.5355 1
    endloop
  endfacet
  facet normal 0.555587 0.831458 0
    outer loop
      vertex 56.9134 59.6194 -0.5
      vertex 58.5355 58.5355 -1
      vertex 56.9134 59.6194 -1
    endloop
  endfacet
  facet normal -0.875331 0.483523 0
    outer loop
      vertex -73.0836 32.5389 49.5
      vertex -59.6194 56.9134 0.5
      vertex -59.6194 56.9134 -0.5
    endloop
  endfacet
  facet normal -0.875331 0.483523 0
    outer loop
      vertex -59.6194 56.9134 0.5
      vertex -73.0836 32.5389 49.5
      vertex -73.0836 32.5389 50.5
    endloop
  endfacet
  facet normal -0.960172 0.190991 -0.203942
    outer loop
      vertex -60 55 -0.5
      vertex -78.2518 16.6329 49.5
      vertex -59.6194 56.9134 -0.5
    endloop
  endfacet
  facet normal -0.956983 0.100584 -0.272151
    outer loop
      vertex -60 55 -0.5
      vertex -80 0 49.5
      vertex -78.2518 16.6329 49.5
    endloop
  endfacet
  facet normal -0.741774 0.667776 0.0620194
    outer loop
      vertex -58.5974 58.4204 1
      vertex -53.5304 59.4516 50.5
      vertex -58.4855 58.5447 1
    endloop
  endfacet
  facet normal -0.741713 0.667845 0.0620117
    outer loop
      vertex -53.5304 59.4516 50.5
      vertex -58.5974 58.4204 1
      vertex -64.7214 47.0228 50.5
    endloop
  endfacet
  facet normal 0.40643 0.912852 -0.0389284
    outer loop
      vertex 56.9134 59.6194 -0.5
      vertex 24.7214 76.0845 49.5
      vertex 40 69.282 49.5
    endloop
  endfacet
  facet normal -0.956983 -0.100584 -0.272151
    outer loop
      vertex -78.2518 -16.6329 49.5
      vertex -80 0 49.5
      vertex -60 -55 -0.5
    endloop
  endfacet
  facet normal -0.960172 -0.190991 -0.203942
    outer loop
      vertex -59.6194 -56.9134 -0.5
      vertex -78.2518 -16.6329 49.5
      vertex -60 -55 -0.5
    endloop
  endfacet
  facet normal 0.741774 0.667776 0.0620194
    outer loop
      vertex 53.5304 59.4516 50.5
      vertex 58.5974 58.4204 1
      vertex 58.4855 58.5447 1
    endloop
  endfacet
  facet normal 0.741713 0.667845 0.0620117
    outer loop
      vertex 58.5974 58.4204 1
      vertex 53.5304 59.4516 50.5
      vertex 64.7214 47.0228 50.5
    endloop
  endfacet
  facet normal 0.831458 0.555587 -0
    outer loop
      vertex 59.6194 56.9134 0.5
      vertex 58.5355 58.5355 1
      vertex 59.6194 56.9134 1
    endloop
  endfacet
  facet normal 0.831458 0.555587 0
    outer loop
      vertex 58.5355 58.5355 1
      vertex 59.6194 56.9134 0.5
      vertex 58.5355 58.5355 -1
    endloop
  endfacet
  facet normal 0.831458 0.555587 -0
    outer loop
      vertex 59.6194 56.9134 -0.5
      vertex 58.5355 58.5355 -1
      vertex 59.6194 56.9134 0.5
    endloop
  endfacet
  facet normal 0.831458 0.555587 0
    outer loop
      vertex 58.5355 58.5355 -1
      vertex 59.6194 56.9134 -0.5
      vertex 59.6194 56.9134 -1
    endloop
  endfacet
  facet normal 0.191238 -0.961415 -0.197762
    outer loop
      vertex 56.9134 -59.6194 -0.5
      vertex 8.36228 -79.5618 49.5
      vertex 55 -60 -0.5
    endloop
  endfacet
  facet normal 0 -0.931264 -0.364344
    outer loop
      vertex -55 -60 -0.5
      vertex 8.36228 -79.5618 49.5
      vertex -8.36228 -79.5618 49.5
    endloop
  endfacet
  facet normal 0 -0.931264 -0.364344
    outer loop
      vertex 8.36228 -79.5618 49.5
      vertex -55 -60 -0.5
      vertex 55 -60 -0.5
    endloop
  endfacet
  facet normal 0.587212 0.808238 0.0439738
    outer loop
      vertex 58.3502 58.643 1
      vertex 53.5304 59.4516 50.5
      vertex 58.4855 58.5447 1
    endloop
  endfacet
  facet normal 0.587216 0.808235 0.0439743
    outer loop
      vertex 53.5304 59.4516 50.5
      vertex 58.3502 58.643 1
      vertex 40 69.282 50.5
    endloop
  endfacet
  facet normal 0.587216 -0.808235 0.0439743
    outer loop
      vertex 58.3502 -58.643 1
      vertex 53.5304 -59.4516 50.5
      vertex 40 -69.282 50.5
    endloop
  endfacet
  facet normal 0.587212 -0.808238 0.0439738
    outer loop
      vertex 53.5304 -59.4516 50.5
      vertex 58.3502 -58.643 1
      vertex 58.4855 -58.5447 1
    endloop
  endfacet
  facet normal 0.496054 -0.868292 0
    outer loop
      vertex 40 -69.282 49.5
      vertex 56.9134 -59.6194 0.5
      vertex 40 -69.282 50.5
    endloop
  endfacet
  facet normal 0.496054 -0.868292 0
    outer loop
      vertex 56.9134 -59.6194 0.5
      vertex 40 -69.282 49.5
      vertex 56.9134 -59.6194 -0.5
    endloop
  endfacet
  facet normal 0.40643 -0.912852 -0.0389284
    outer loop
      vertex 40 -69.282 49.5
      vertex 24.7214 -76.0845 49.5
      vertex 56.9134 -59.6194 -0.5
    endloop
  endfacet
  facet normal 0.555587 -0.831458 0
    outer loop
      vertex 56.9134 -59.6194 0.5
      vertex 58.5355 -58.5355 1
      vertex 56.9134 -59.6194 1
    endloop
  endfacet
  facet normal 0.555587 -0.831458 0
    outer loop
      vertex 56.9134 -59.6194 -0.5
      vertex 58.5355 -58.5355 1
      vertex 56.9134 -59.6194 0.5
    endloop
  endfacet
  facet normal 0.555587 -0.831458 0
    outer loop
      vertex 58.5355 -58.5355 -1
      vertex 56.9134 -59.6194 -0.5
      vertex 56.9134 -59.6194 -1
    endloop
  endfacet
  facet normal 0.555587 -0.831458 0
    outer loop
      vertex 56.9134 -59.6194 -0.5
      vertex 58.5355 -58.5355 -1
      vertex 58.5355 -58.5355 1
    endloop
  endfacet
  facet normal 0.875331 0.483523 -0
    outer loop
      vertex 73.0836 32.5389 49.5
      vertex 59.6194 56.9134 0.5
      vertex 73.0836 32.5389 50.5
    endloop
  endfacet
  facet normal 0.875331 0.483523 0
    outer loop
      vertex 59.6194 56.9134 0.5
      vertex 73.0836 32.5389 49.5
      vertex 59.6194 56.9134 -0.5
    endloop
  endfacet
  facet normal 0.831207 -0.555398 0.0250484
    outer loop
      vertex 64.7214 -47.0228 50.5
      vertex 58.5974 -58.4204 1
      vertex 59.6258 -56.8813 1
    endloop
  endfacet
  facet normal 0.831315 -0.555239 0.0250055
    outer loop
      vertex 64.7214 -47.0228 50.5
      vertex 59.6258 -56.8813 1
      vertex 59.6194 -56.9134 0.5
    endloop
  endfacet
  facet normal 0.207915 -0.978147 0
    outer loop
      vertex 8.36228 -79.5618 49.5
      vertex 24.7214 -76.0845 50.5
      vertex 8.36228 -79.5618 50.5
    endloop
  endfacet
  facet normal 0.207915 -0.978147 0
    outer loop
      vertex 24.7214 -76.0845 50.5
      vertex 8.36228 -79.5618 49.5
      vertex 24.7214 -76.0845 49.5
    endloop
  endfacet
  facet normal 0.406738 -0.913545 0
    outer loop
      vertex 24.7214 -76.0845 49.5
      vertex 40 -69.282 50.5
      vertex 24.7214 -76.0845 50.5
    endloop
  endfacet
  facet normal 0.406738 -0.913545 0
    outer loop
      vertex 40 -69.282 50.5
      vertex 24.7214 -76.0845 49.5
      vertex 40 -69.282 49.5
    endloop
  endfacet
  facet normal 0.945811 -0.307314 -0.104879
    outer loop
      vertex 73.0836 -32.5389 49.5
      vertex 59.6194 -56.9134 -0.5
      vertex 78.2518 -16.6329 49.5
    endloop
  endfacet
  facet normal -0.994522 0.104529 0
    outer loop
      vertex -80 0 49.5
      vertex -78.2518 16.6329 50.5
      vertex -78.2518 16.6329 49.5
    endloop
  endfacet
  facet normal -0.994522 0.104529 0
    outer loop
      vertex -78.2518 16.6329 50.5
      vertex -80 0 49.5
      vertex -80 0 50.5
    endloop
  endfacet
  facet normal -0.945811 0.307314 -0.104879
    outer loop
      vertex -59.6194 56.9134 -0.5
      vertex -78.2518 16.6329 49.5
      vertex -73.0836 32.5389 49.5
    endloop
  endfacet
  facet normal -0.207915 0.978147 0
    outer loop
      vertex -8.36228 79.5618 49.5
      vertex -24.7214 76.0845 50.5
      vertex -8.36228 79.5618 50.5
    endloop
  endfacet
  facet normal -0.207915 0.978147 0
    outer loop
      vertex -24.7214 76.0845 50.5
      vertex -8.36228 79.5618 49.5
      vertex -24.7214 76.0845 49.5
    endloop
  endfacet
  facet normal -0.951056 0.309018 0
    outer loop
      vertex -78.2518 16.6329 49.5
      vertex -73.0836 32.5389 50.5
      vertex -73.0836 32.5389 49.5
    endloop
  endfacet
  facet normal -0.951056 0.309018 0
    outer loop
      vertex -73.0836 32.5389 50.5
      vertex -78.2518 16.6329 49.5
      vertex -78.2518 16.6329 50.5
    endloop
  endfacet
  facet normal -0.587216 0.808235 0.0439743
    outer loop
      vertex -58.3502 58.643 1
      vertex -53.5304 59.4516 50.5
      vertex -40 69.282 50.5
    endloop
  endfacet
  facet normal -0.587212 0.808238 0.0439738
    outer loop
      vertex -53.5304 59.4516 50.5
      vertex -58.3502 58.643 1
      vertex -58.4855 58.5447 1
    endloop
  endfacet
  facet normal -0.204327 0.961264 -0.184993
    outer loop
      vertex -8.36228 79.5618 49.5
      vertex -56.9134 59.6194 -0.5
      vertex -24.7214 76.0845 49.5
    endloop
  endfacet
  facet normal 0 1 -0
    outer loop
      vertex 8.36228 79.5618 49.5
      vertex -8.36228 79.5618 50.5
      vertex 8.36228 79.5618 50.5
    endloop
  endfacet
  facet normal 0 1 0
    outer loop
      vertex -8.36228 79.5618 50.5
      vertex 8.36228 79.5618 49.5
      vertex -8.36228 79.5618 49.5
    endloop
  endfacet
  facet normal -0.40643 0.912852 -0.0389284
    outer loop
      vertex -24.7214 76.0845 49.5
      vertex -56.9134 59.6194 -0.5
      vertex -40 69.282 49.5
    endloop
  endfacet
  facet normal -0.496054 0.868292 0
    outer loop
      vertex -40 69.282 49.5
      vertex -56.9134 59.6194 0.5
      vertex -40 69.282 50.5
    endloop
  endfacet
  facet normal -0.496054 0.868292 0
    outer loop
      vertex -56.9134 59.6194 0.5
      vertex -40 69.282 49.5
      vertex -56.9134 59.6194 -0.5
    endloop
  endfacet
  facet normal 0.831458 -0.555587 0
    outer loop
      vertex 58.5355 -58.5355 1
      vertex 59.6194 -56.9134 0.5
      vertex 59.6194 -56.9134 1
    endloop
  endfacet
  facet normal 0.831458 -0.555587 0
    outer loop
      vertex 59.6194 -56.9134 0.5
      vertex 58.5355 -58.5355 1
      vertex 59.6194 -56.9134 -0.5
    endloop
  endfacet
  facet normal 0.831458 -0.555587 0
    outer loop
      vertex 58.5355 -58.5355 -1
      vertex 59.6194 -56.9134 -0.5
      vertex 58.5355 -58.5355 1
    endloop
  endfacet
  facet normal 0.831458 -0.555587 0
    outer loop
      vertex 59.6194 -56.9134 -0.5
      vertex 58.5355 -58.5355 -1
      vertex 59.6194 -56.9134 -1
    endloop
  endfacet
  facet normal -0.951056 -0.309018 0
    outer loop
      vertex -73.0836 -32.5389 49.5
      vertex -78.2518 -16.6329 50.5
      vertex -78.2518 -16.6329 49.5
    endloop
  endfacet
  facet normal -0.951056 -0.309018 0
    outer loop
      vertex -78.2518 -16.6329 50.5
      vertex -73.0836 -32.5389 49.5
      vertex -73.0836 -32.5389 50.5
    endloop
  endfacet
  facet normal -0.945811 -0.307314 -0.104879
    outer loop
      vertex -73.0836 -32.5389 49.5
      vertex -78.2518 -16.6329 49.5
      vertex -59.6194 -56.9134 -0.5
    endloop
  endfacet
  facet normal 0.951056 -0.309018 0
    outer loop
      vertex 73.0836 -32.5389 50.5
      vertex 78.2518 -16.6329 49.5
      vertex 78.2518 -16.6329 50.5
    endloop
  endfacet
  facet normal 0.951056 -0.309018 0
    outer loop
      vertex 78.2518 -16.6329 49.5
      vertex 73.0836 -32.5389 50.5
      vertex 73.0836 -32.5389 49.5
    endloop
  endfacet
  facet normal 0 0 1
    outer loop
      vertex 78.2518 16.6329 50.5
      vertex 78.2518 -16.6329 50.5
      vertex 80 0 50.5
    endloop
  endfacet
  facet normal 0 0 1
    outer loop
      vertex 73.0836 32.5389 50.5
      vertex 78.2518 -16.6329 50.5
      vertex 78.2518 16.6329 50.5
    endloop
  endfacet
  facet normal 0 0 1
    outer loop
      vertex 73.0836 32.5389 50.5
      vertex 73.0836 -32.5389 50.5
      vertex 78.2518 -16.6329 50.5
    endloop
  endfacet
  facet normal 0 0 1
    outer loop
      vertex 64.7214 47.0228 50.5
      vertex 73.0836 -32.5389 50.5
      vertex 73.0836 32.5389 50.5
    endloop
  endfacet
  facet normal 0 0 1
    outer loop
      vertex 64.7214 47.0228 50.5
      vertex 64.7214 -47.0228 50.5
      vertex 73.0836 -32.5389 50.5
    endloop
  endfacet
  facet normal 0 0 1
    outer loop
      vertex 53.5304 59.4516 50.5
      vertex 64.7214 -47.0228 50.5
      vertex 64.7214 47.0228 50.5
    endloop
  endfacet
  facet normal 0 0 1
    outer loop
      vertex 53.5304 59.4516 50.5
      vertex 53.5304 -59.4516 50.5
      vertex 64.7214 -47.0228 50.5
    endloop
  endfacet
  facet normal 0 0 1
    outer loop
      vertex 40 69.282 50.5
      vertex 53.5304 -59.4516 50.5
      vertex 53.5304 59.4516 50.5
    endloop
  endfacet
  facet normal 0 0 1
    outer loop
      vertex 40 69.282 50.5
      vertex 40 -69.282 50.5
      vertex 53.5304 -59.4516 50.5
    endloop
  endfacet
  facet normal 0 0 1
    outer loop
      vertex 24.7214 76.0845 50.5
      vertex 40 -69.282 50.5
      vertex 40 69.282 50.5
    endloop
  endfacet
  facet normal 0 0 1
    outer loop
      vertex 24.7214 76.0845 50.5
      vertex 24.7214 -76.0845 50.5
      vertex 40 -69.282 50.5
    endloop
  endfacet
  facet normal 0 0 1
    outer loop
      vertex 8.36228 79.5618 50.5
      vertex 24.7214 -76.0845 50.5
      vertex 24.7214 76.0845 50.5
    endloop
  endfacet
  facet normal 0 0 1
    outer loop
      vertex 8.36228 79.5618 50.5
      vertex 8.36228 -79.5618 50.5
      vertex 24.7214 -76.0845 50.5
    endloop
  endfacet
  facet normal -0 0 1
    outer loop
      vertex -8.36228 79.5618 50.5
      vertex 8.36228 -79.5618 50.5
      vertex 8.36228 79.5618 50.5
    endloop
  endfacet
  facet normal 0 0 1
    outer loop
      vertex -8.36228 79.5618 50.5
      vertex -8.36228 -79.5618 50.5
      vertex 8.36228 -79.5618 50.5
    endloop
  endfacet
  facet normal -0 0 1
    outer loop
      vertex -24.7214 76.0845 50.5
      vertex -8.36228 -79.5618 50.5
      vertex -8.36228 79.5618 50.5
    endloop
  endfacet
  facet normal 0 0 1
    outer loop
      vertex -24.7214 76.0845 50.5
      vertex -24.7214 -76.0845 50.5
      vertex -8.36228 -79.5618 50.5
    endloop
  endfacet
  facet normal -0 0 1
    outer loop
      vertex -40 69.282 50.5
      vertex -24.7214 -76.0845 50.5
      vertex -24.7214 76.0845 50.5
    endloop
  endfacet
  facet normal 0 0 1
    outer loop
      vertex -40 69.282 50.5
      vertex -40 -69.282 50.5
      vertex -24.7214 -76.0845 50.5
    endloop
  endfacet
  facet normal -0 0 1
    outer loop
      vertex -53.5304 59.4516 50.5
      vertex -40 -69.282 50.5
      vertex -40 69.282 50.5
    endloop
  endfacet
  facet normal 0 0 1
    outer loop
      vertex -53.5304 59.4516 50.5
      vertex -53.5304 -59.4516 50.5
      vertex -40 -69.282 50.5
    endloop
  endfacet
  facet normal -0 0 1
    outer loop
      vertex -64.7214 47.0228 50.5
      vertex -53.5304 -59.4516 50.5
      vertex -53.5304 59.4516 50.5
    endloop
  endfacet
  facet normal 0 0 1
    outer loop
      vertex -64.7214 47.0228 50.5
      vertex -64.7214 -47.0228 50.5
      vertex -53.5304 -59.4516 50.5
    endloop
  endfacet
  facet normal -0 0 1
    outer loop
      vertex -73.0836 32.5389 50.5
      vertex -64.7214 -47.0228 50.5
      vertex -64.7214 47.0228 50.5
    endloop
  endfacet
  facet normal 0 0 1
    outer loop
      vertex -73.0836 32.5389 50.5
      vertex -73.0836 -32.5389 50.5
      vertex -64.7214 -47.0228 50.5
    endloop
  endfacet
  facet normal -0 0 1
    outer loop
      vertex -78.2518 16.6329 50.5
      vertex -73.0836 -32.5389 50.5
      vertex -73.0836 32.5389 50.5
    endloop
  endfacet
  facet normal 0 0 1
    outer loop
      vertex -78.2518 16.6329 50.5
      vertex -78.2518 -16.6329 50.5
      vertex -73.0836 -32.5389 50.5
    endloop
  endfacet
  facet normal 0 -0 1
    outer loop
      vertex -78.2518 -16.6329 50.5
      vertex -78.2518 16.6329 50.5
      vertex -80 0 50.5
    endloop
  endfacet
  facet normal 0.406738 0.913545 -0
    outer loop
      vertex 40 69.282 49.5
      vertex 24.7214 76.0845 50.5
      vertex 40 69.282 50.5
    endloop
  endfacet
  facet normal 0.406738 0.913545 0
    outer loop
      vertex 24.7214 76.0845 50.5
      vertex 40 69.282 49.5
      vertex 24.7214 76.0845 49.5
    endloop
  endfacet
  facet normal 0.555341 0.831177 0.027227
    outer loop
      vertex 56.8785 59.6263 1
      vertex 40 69.282 50.5
      vertex 58.3502 58.643 1
    endloop
  endfacet
  facet normal 0.555507 0.831063 0.0273057
    outer loop
      vertex 40 69.282 50.5
      vertex 56.8785 59.6263 1
      vertex 56.9134 59.6194 0.5
    endloop
  endfacet
  facet normal -0.741774 -0.667776 0.0620194
    outer loop
      vertex -53.5304 -59.4516 50.5
      vertex -58.5974 -58.4204 1
      vertex -58.4855 -58.5447 1
    endloop
  endfacet
  facet normal -0.741713 -0.667845 0.0620117
    outer loop
      vertex -58.5974 -58.4204 1
      vertex -53.5304 -59.4516 50.5
      vertex -64.7214 -47.0228 50.5
    endloop
  endfacet
  facet normal -0.831315 -0.555239 0.0250055
    outer loop
      vertex -64.7214 -47.0228 50.5
      vertex -59.6194 -56.9134 0.5
      vertex -59.6258 -56.8813 1
    endloop
  endfacet
  facet normal -0.831207 -0.555398 0.0250484
    outer loop
      vertex -64.7214 -47.0228 50.5
      vertex -59.6258 -56.8813 1
      vertex -58.5974 -58.4204 1
    endloop
  endfacet
  facet normal -0.875331 -0.483523 -0
    outer loop
      vertex -59.6194 -56.9134 0.5
      vertex -73.0836 -32.5389 49.5
      vertex -59.6194 -56.9134 -0.5
    endloop
  endfacet
  facet normal -0.875331 -0.483523 0
    outer loop
      vertex -73.0836 -32.5389 49.5
      vertex -59.6194 -56.9134 0.5
      vertex -73.0836 -32.5389 50.5
    endloop
  endfacet
  facet normal 0.956983 -0.100584 -0.272151
    outer loop
      vertex 78.2518 -16.6329 49.5
      vertex 60 -55 -0.5
      vertex 80 0 49.5
    endloop
  endfacet
  facet normal -0.40643 -0.912852 -0.0389284
    outer loop
      vertex -40 -69.282 49.5
      vertex -56.9134 -59.6194 -0.5
      vertex -24.7214 -76.0845 49.5
    endloop
  endfacet
  facet normal -0.496054 -0.868292 0
    outer loop
      vertex -56.9134 -59.6194 0.5
      vertex -40 -69.282 49.5
      vertex -40 -69.282 50.5
    endloop
  endfacet
  facet normal -0.496054 -0.868292 0
    outer loop
      vertex -40 -69.282 49.5
      vertex -56.9134 -59.6194 0.5
      vertex -56.9134 -59.6194 -0.5
    endloop
  endfacet
  facet normal 1 -0 0
    outer loop
      vertex 60 -55 -0.5
      vertex 60 55 -1
      vertex 60 55 -0.5
    endloop
  endfacet
  facet normal 1 0 0
    outer loop
      vertex 60 55 -1
      vertex 60 -55 -0.5
      vertex 60 -55 -1
    endloop
  endfacet
  facet normal -0.980785 0.195091 0
    outer loop
      vertex -60 55 -1
      vertex -59.6194 56.9134 -0.5
      vertex -59.6194 56.9134 -1
    endloop
  endfacet
  facet normal -0.980785 0.195091 0
    outer loop
      vertex -59.6194 56.9134 -0.5
      vertex -60 55 -1
      vertex -60 55 -0.5
    endloop
  endfacet
  facet normal -0.980698 0.195529 0
    outer loop
      vertex -59.6194 56.9134 0.5
      vertex -59.6258 56.8813 1
      vertex -59.6194 56.9134 1
    endloop
  endfacet
  facet normal 0 0 -1
    outer loop
      vertex -50.909 50.909 -1
      vertex 50.909 50.909 -1
      vertex -50.909 -50.909 -1
    endloop
  endfacet
  facet normal 0 0 -1
    outer loop
      vertex 50.909 50.909 -1
      vertex -50.909 50.909 -1
      vertex -50.25 52.5 -1
    endloop
  endfacet
  facet normal 0 0 -1
    outer loop
      vertex -52.5 -50.25 -1
      vertex -50.909 50.909 -1
      vertex -50.909 -50.909 -1
    endloop
  endfacet
  facet normal 0 0 -1
    outer loop
      vertex -52.5 -50.25 -1
      vertex -52.5 50.25 -1
      vertex -50.909 50.909 -1
    endloop
  endfacet
  facet normal 0 0 -1
    outer loop
      vertex -54.091 -50.909 -1
      vertex -52.5 50.25 -1
      vertex -52.5 -50.25 -1
    endloop
  endfacet
  facet normal 0 0 -1
    outer loop
      vertex -54.091 -50.909 -1
      vertex -54.091 50.909 -1
      vertex -52.5 50.25 -1
    endloop
  endfacet
  facet normal 0 0 -1
    outer loop
      vertex -60 -55 -1
      vertex -54.091 -50.909 -1
      vertex -54.75 -52.5 -1
    endloop
  endfacet
  facet normal -0 0 -1
    outer loop
      vertex -54.091 -50.909 -1
      vertex -60 -55 -1
      vertex -54.091 50.909 -1
    endloop
  endfacet
  facet normal 0 0 -1
    outer loop
      vertex 54.091 50.909 -1
      vertex 60 55 -1
      vertex 54.091 -50.909 -1
    endloop
  endfacet
  facet normal 0 0 -1
    outer loop
      vertex 60 55 -1
      vertex 54.091 50.909 -1
      vertex 54.75 52.5 -1
    endloop
  endfacet
  facet normal 0 0 -1
    outer loop
      vertex 52.5 -50.25 -1
      vertex 54.091 50.909 -1
      vertex 54.091 -50.909 -1
    endloop
  endfacet
  facet normal 0 0 -1
    outer loop
      vertex 52.5 -50.25 -1
      vertex 52.5 50.25 -1
      vertex 54.091 50.909 -1
    endloop
  endfacet
  facet normal 0 0 -1
    outer loop
      vertex 50.909 -50.909 -1
      vertex 52.5 50.25 -1
      vertex 52.5 -50.25 -1
    endloop
  endfacet
  facet normal 0 0 -1
    outer loop
      vertex 50.909 -50.909 -1
      vertex 50.909 50.909 -1
      vertex 52.5 50.25 -1
    endloop
  endfacet
  facet normal 0 0 -1
    outer loop
      vertex -50.25 -52.5 -1
      vertex 50.909 -50.909 -1
      vertex 50.25 -52.5 -1
    endloop
  endfacet
  facet normal 0 0 -1
    outer loop
      vertex -50.909 -50.909 -1
      vertex 50.909 -50.909 -1
      vertex -50.25 -52.5 -1
    endloop
  endfacet
  facet normal 0 0 -1
    outer loop
      vertex 54.091 -54.091 -1
      vertex 60 -55 -1
      vertex 59.6194 -56.9134 -1
    endloop
  endfacet
  facet normal 0 0 -1
    outer loop
      vertex 54.091 -50.909 -1
      vertex 60 -55 -1
      vertex 54.75 -52.5 -1
    endloop
  endfacet
  facet normal 0 0 -1
    outer loop
      vertex 54.091 -54.091 -1
      vertex 59.6194 -56.9134 -1
      vertex 58.5355 -58.5355 -1
    endloop
  endfacet
  facet normal 0 0 -1
    outer loop
      vertex 60 -55 -1
      vertex 54.091 -50.909 -1
      vertex 60 55 -1
    endloop
  endfacet
  facet normal 0 0 -1
    outer loop
      vertex 54.091 -54.091 -1
      vertex 58.5355 -58.5355 -1
      vertex 56.9134 -59.6194 -1
    endloop
  endfacet
  facet normal 0 0 -1
    outer loop
      vertex 54.091 54.091 -1
      vertex 60 55 -1
      vertex 54.75 52.5 -1
    endloop
  endfacet
  facet normal 0 0 -1
    outer loop
      vertex 54.091 -54.091 -1
      vertex 56.9134 -59.6194 -1
      vertex 55 -60 -1
    endloop
  endfacet
  facet normal -0 0 -1
    outer loop
      vertex 60 55 -1
      vertex 54.091 54.091 -1
      vertex 59.6194 56.9134 -1
    endloop
  endfacet
  facet normal -0 0 -1
    outer loop
      vertex 59.6194 56.9134 -1
      vertex 54.091 54.091 -1
      vertex 58.5355 58.5355 -1
    endloop
  endfacet
  facet normal 0 0 -1
    outer loop
      vertex 60 -55 -1
      vertex 54.091 -54.091 -1
      vertex 54.75 -52.5 -1
    endloop
  endfacet
  facet normal 0 0 -1
    outer loop
      vertex 55 -60 -1
      vertex 52.5 -54.75 -1
      vertex 54.091 -54.091 -1
    endloop
  endfacet
  facet normal 0 0 -1
    outer loop
      vertex 55 -60 -1
      vertex 50.909 -54.091 -1
      vertex 52.5 -54.75 -1
    endloop
  endfacet
  facet normal 0 0 -1
    outer loop
      vertex 50.909 -50.909 -1
      vertex -50.909 -50.909 -1
      vertex 50.909 50.909 -1
    endloop
  endfacet
  facet normal 0 0 -1
    outer loop
      vertex 50.909 -54.091 -1
      vertex -50.25 -52.5 -1
      vertex 50.25 -52.5 -1
    endloop
  endfacet
  facet normal 0 0 -1
    outer loop
      vertex -50.909 -54.091 -1
      vertex 50.909 -54.091 -1
      vertex 55 -60 -1
    endloop
  endfacet
  facet normal 0 0 -1
    outer loop
      vertex 50.909 -54.091 -1
      vertex -50.909 -54.091 -1
      vertex -50.25 -52.5 -1
    endloop
  endfacet
  facet normal 0 0 -1
    outer loop
      vertex -55 -60 -1
      vertex -50.909 -54.091 -1
      vertex 55 -60 -1
    endloop
  endfacet
  facet normal 0 0 -1
    outer loop
      vertex -58.5355 -58.5355 -1
      vertex -54.091 -54.091 -1
      vertex -56.9134 -59.6194 -1
    endloop
  endfacet
  facet normal 0 0 -1
    outer loop
      vertex -56.9134 -59.6194 -1
      vertex -54.091 -54.091 -1
      vertex -55 -60 -1
    endloop
  endfacet
  facet normal -0 0 -1
    outer loop
      vertex -52.5 -54.75 -1
      vertex -55 -60 -1
      vertex -54.091 -54.091 -1
    endloop
  endfacet
  facet normal 0 0 -1
    outer loop
      vertex -50.909 -54.091 -1
      vertex -55 -60 -1
      vertex -52.5 -54.75 -1
    endloop
  endfacet
  facet normal -0 0 -1
    outer loop
      vertex 58.5355 58.5355 -1
      vertex 54.091 54.091 -1
      vertex 56.9134 59.6194 -1
    endloop
  endfacet
  facet normal -0 0 -1
    outer loop
      vertex 56.9134 59.6194 -1
      vertex 54.091 54.091 -1
      vertex 55 60 -1
    endloop
  endfacet
  facet normal 0 0 -1
    outer loop
      vertex 52.5 54.75 -1
      vertex 55 60 -1
      vertex 54.091 54.091 -1
    endloop
  endfacet
  facet normal 0 0 -1
    outer loop
      vertex 50.909 54.091 -1
      vertex 55 60 -1
      vertex 52.5 54.75 -1
    endloop
  endfacet
  facet normal 0 0 -1
    outer loop
      vertex 50.909 50.909 -1
      vertex -50.25 52.5 -1
      vertex 50.25 52.5 -1
    endloop
  endfacet
  facet normal 0 0 -1
    outer loop
      vertex 50.25 52.5 -1
      vertex -50.25 52.5 -1
      vertex 50.909 54.091 -1
    endloop
  endfacet
  facet normal 0 0 -1
    outer loop
      vertex -50.909 54.091 -1
      vertex 50.909 54.091 -1
      vertex -50.25 52.5 -1
    endloop
  endfacet
  facet normal 0 0 -1
    outer loop
      vertex 50.909 54.091 -1
      vertex -50.909 54.091 -1
      vertex 55 60 -1
    endloop
  endfacet
  facet normal 0 0 -1
    outer loop
      vertex -55 60 -1
      vertex -50.909 54.091 -1
      vertex -52.5 54.75 -1
    endloop
  endfacet
  facet normal 0 0 -1
    outer loop
      vertex -50.909 54.091 -1
      vertex -55 60 -1
      vertex 55 60 -1
    endloop
  endfacet
  facet normal 0 0 -1
    outer loop
      vertex -54.091 54.091 -1
      vertex -55 60 -1
      vertex -52.5 54.75 -1
    endloop
  endfacet
  facet normal 0 0 -1
    outer loop
      vertex -60 55 -1
      vertex -54.091 54.091 -1
      vertex -54.75 52.5 -1
    endloop
  endfacet
  facet normal 0 0 -1
    outer loop
      vertex -60 55 -1
      vertex -54.091 50.909 -1
      vertex -60 -55 -1
    endloop
  endfacet
  facet normal 0 0 -1
    outer loop
      vertex -59.6194 -56.9134 -1
      vertex -54.091 -54.091 -1
      vertex -58.5355 -58.5355 -1
    endloop
  endfacet
  facet normal 0 0 -1
    outer loop
      vertex -54.091 50.909 -1
      vertex -60 55 -1
      vertex -54.75 52.5 -1
    endloop
  endfacet
  facet normal 0 0 -1
    outer loop
      vertex -60 -55 -1
      vertex -54.091 -54.091 -1
      vertex -59.6194 -56.9134 -1
    endloop
  endfacet
  facet normal 0 0 -1
    outer loop
      vertex -54.091 54.091 -1
      vertex -60 55 -1
      vertex -59.6194 56.9134 -1
    endloop
  endfacet
  facet normal -0 0 -1
    outer loop
      vertex -54.091 -54.091 -1
      vertex -60 -55 -1
      vertex -54.75 -52.5 -1
    endloop
  endfacet
  facet normal 0 0 -1
    outer loop
      vertex -54.091 54.091 -1
      vertex -56.9134 59.6194 -1
      vertex -55 60 -1
    endloop
  endfacet
  facet normal 0 0 -1
    outer loop
      vertex -54.091 54.091 -1
      vertex -58.5355 58.5355 -1
      vertex -56.9134 59.6194 -1
    endloop
  endfacet
  facet normal 0 0 -1
    outer loop
      vertex -54.091 54.091 -1
      vertex -59.6194 56.9134 -1
      vertex -58.5355 58.5355 -1
    endloop
  endfacet
  facet normal 0 1 -0
    outer loop
      vertex 55 60 -1
      vertex -55 60 -0.5
      vertex 55 60 -0.5
    endloop
  endfacet
  facet normal 0 1 0
    outer loop
      vertex -55 60 -0.5
      vertex 55 60 -1
      vertex -55 60 -1
    endloop
  endfacet
  facet normal -0.195091 -0.980785 0
    outer loop
      vertex -56.9134 -59.6194 -1
      vertex -55 -60 -0.5
      vertex -56.9134 -59.6194 -0.5
    endloop
  endfacet
  facet normal -0.195091 -0.980785 -0
    outer loop
      vertex -55 -60 -0.5
      vertex -56.9134 -59.6194 -1
      vertex -55 -60 -1
    endloop
  endfacet
  facet normal -0.193953 -0.981011 -0
    outer loop
      vertex -56.9134 -59.6194 1
      vertex -56.9134 -59.6194 0.5
      vertex -56.8785 -59.6263 1
    endloop
  endfacet
  facet normal 0.980698 0.195529 0
    outer loop
      vertex 59.6258 56.8813 1
      vertex 59.6194 56.9134 0.5
      vertex 59.6194 56.9134 1
    endloop
  endfacet
  facet normal 0.980785 0.195091 0
    outer loop
      vertex 60 55 -0.5
      vertex 59.6194 56.9134 -1
      vertex 59.6194 56.9134 -0.5
    endloop
  endfacet
  facet normal 0.980785 0.195091 0
    outer loop
      vertex 59.6194 56.9134 -1
      vertex 60 55 -0.5
      vertex 60 55 -1
    endloop
  endfacet
  facet normal 0 -1 0
    outer loop
      vertex -55 -60 -1
      vertex 55 -60 -0.5
      vertex -55 -60 -0.5
    endloop
  endfacet
  facet normal 0 -1 -0
    outer loop
      vertex 55 -60 -0.5
      vertex -55 -60 -1
      vertex 55 -60 -1
    endloop
  endfacet
  facet normal 0.193953 -0.981011 0
    outer loop
      vertex 56.9134 -59.6194 1
      vertex 56.8785 -59.6263 1
      vertex 56.9134 -59.6194 0.5
    endloop
  endfacet
  facet normal 0.195091 -0.980785 0
    outer loop
      vertex 55 -60 -1
      vertex 56.9134 -59.6194 -0.5
      vertex 55 -60 -0.5
    endloop
  endfacet
  facet normal 0.195091 -0.980785 0
    outer loop
      vertex 56.9134 -59.6194 -0.5
      vertex 55 -60 -1
      vertex 56.9134 -59.6194 -1
    endloop
  endfacet
  facet normal -1 0 0
    outer loop
      vertex -60 -55 -1
      vertex -60 55 -0.5
      vertex -60 55 -1
    endloop
  endfacet
  facet normal -1 -0 0
    outer loop
      vertex -60 55 -0.5
      vertex -60 -55 -1
      vertex -60 -55 -0.5
    endloop
  endfacet
  facet normal 0.193953 0.981011 -0
    outer loop
      vertex 56.9134 59.6194 0.5
      vertex 56.8785 59.6263 1
      vertex 56.9134 59.6194 1
    endloop
  endfacet
  facet normal 0.195091 0.980785 -0
    outer loop
      vertex 56.9134 59.6194 -1
      vertex 55 60 -0.5
      vertex 56.9134 59.6194 -0.5
    endloop
  endfacet
  facet normal 0.195091 0.980785 0
    outer loop
      vertex 55 60 -0.5
      vertex 56.9134 59.6194 -1
      vertex 55 60 -1
    endloop
  endfacet
  facet normal -0.195091 0.980785 0
    outer loop
      vertex -55 60 -1
      vertex -56.9134 59.6194 -0.5
      vertex -55 60 -0.5
    endloop
  endfacet
  facet normal -0.195091 0.980785 0
    outer loop
      vertex -56.9134 59.6194 -0.5
      vertex -55 60 -1
      vertex -56.9134 59.6194 -1
    endloop
  endfacet
  facet normal -0.193953 0.981011 0
    outer loop
      vertex -56.8785 59.6263 1
      vertex -56.9134 59.6194 0.5
      vertex -56.9134 59.6194 1
    endloop
  endfacet
  facet normal -0.980785 -0.195091 0
    outer loop
      vertex -59.6194 -56.9134 -1
      vertex -60 -55 -0.5
      vertex -60 -55 -1
    endloop
  endfacet
  facet normal -0.980785 -0.195091 0
    outer loop
      vertex -60 -55 -0.5
      vertex -59.6194 -56.9134 -1
      vertex -59.6194 -56.9134 -0.5
    endloop
  endfacet
  facet normal -0.980698 -0.195529 -0
    outer loop
      vertex -59.6194 -56.9134 1
      vertex -59.6258 -56.8813 1
      vertex -59.6194 -56.9134 0.5
    endloop
  endfacet
  facet normal 0.980785 -0.195091 0
    outer loop
      vertex 59.6194 -56.9134 -0.5
      vertex 60 -55 -1
      vertex 60 -55 -0.5
    endloop
  endfacet
  facet normal 0.980785 -0.195091 0
    outer loop
      vertex 60 -55 -1
      vertex 59.6194 -56.9134 -0.5
      vertex 59.6194 -56.9134 -1
    endloop
  endfacet
  facet normal 0.980698 -0.195529 0
    outer loop
      vertex 59.6194 -56.9134 1
      vertex 59.6194 -56.9134 0.5
      vertex 59.6258 -56.8813 1
    endloop
  endfacet
  facet normal 0 0 1
    outer loop
      vertex 58.5974 -58.4204 1
      vertex 59.6194 -56.9134 1
      vertex 59.6258 -56.8813 1
    endloop
  endfacet
  facet normal -0 0 1
    outer loop
      vertex 58.5974 -58.4204 1
      vertex 58.5355 -58.5355 1
      vertex 59.6194 -56.9134 1
    endloop
  endfacet
  facet normal 0 0 1
    outer loop
      vertex 58.4855 -58.5447 1
      vertex 58.5355 -58.5355 1
      vertex 58.5974 -58.4204 1
    endloop
  endfacet
  facet normal 0 0 1
    outer loop
      vertex 58.3502 -58.643 1
      vertex 58.5355 -58.5355 1
      vertex 58.4855 -58.5447 1
    endloop
  endfacet
  facet normal -0 0 1
    outer loop
      vertex 58.3502 -58.643 1
      vertex 56.9134 -59.6194 1
      vertex 58.5355 -58.5355 1
    endloop
  endfacet
  facet normal 0 -0 1
    outer loop
      vertex 56.9134 -59.6194 1
      vertex 58.3502 -58.643 1
      vertex 56.8785 -59.6263 1
    endloop
  endfacet
  facet normal 0 0 1
    outer loop
      vertex 59.6194 56.9134 1
      vertex 58.5974 58.4204 1
      vertex 59.6258 56.8813 1
    endloop
  endfacet
  facet normal 0 0 1
    outer loop
      vertex 58.5355 58.5355 1
      vertex 58.5974 58.4204 1
      vertex 59.6194 56.9134 1
    endloop
  endfacet
  facet normal 0 0 1
    outer loop
      vertex 58.5355 58.5355 1
      vertex 58.4855 58.5447 1
      vertex 58.5974 58.4204 1
    endloop
  endfacet
  facet normal 0 0 1
    outer loop
      vertex 58.5355 58.5355 1
      vertex 58.3502 58.643 1
      vertex 58.4855 58.5447 1
    endloop
  endfacet
  facet normal 0 0 1
    outer loop
      vertex 56.9134 59.6194 1
      vertex 58.3502 58.643 1
      vertex 58.5355 58.5355 1
    endloop
  endfacet
  facet normal 0 0 1
    outer loop
      vertex 58.3502 58.643 1
      vertex 56.9134 59.6194 1
      vertex 56.8785 59.6263 1
    endloop
  endfacet
  facet normal 0 0 1
    outer loop
      vertex -58.3502 -58.643 1
      vertex -56.9134 -59.6194 1
      vertex -56.8785 -59.6263 1
    endloop
  endfacet
  facet normal 0 0 1
    outer loop
      vertex -58.3502 -58.643 1
      vertex -58.5355 -58.5355 1
      vertex -56.9134 -59.6194 1
    endloop
  endfacet
  facet normal 0 0 1
    outer loop
      vertex -58.4855 -58.5447 1
      vertex -58.5355 -58.5355 1
      vertex -58.3502 -58.643 1
    endloop
  endfacet
  facet normal 0 0 1
    outer loop
      vertex -58.5974 -58.4204 1
      vertex -58.5355 -58.5355 1
      vertex -58.4855 -58.5447 1
    endloop
  endfacet
  facet normal 0 0 1
    outer loop
      vertex -58.5974 -58.4204 1
      vertex -59.6194 -56.9134 1
      vertex -58.5355 -58.5355 1
    endloop
  endfacet
  facet normal -0 -0 1
    outer loop
      vertex -59.6194 -56.9134 1
      vertex -58.5974 -58.4204 1
      vertex -59.6258 -56.8813 1
    endloop
  endfacet
  facet normal -0 0 1
    outer loop
      vertex -56.9134 59.6194 1
      vertex -58.3502 58.643 1
      vertex -56.8785 59.6263 1
    endloop
  endfacet
  facet normal 0 0 1
    outer loop
      vertex -58.5355 58.5355 1
      vertex -58.3502 58.643 1
      vertex -56.9134 59.6194 1
    endloop
  endfacet
  facet normal 0 0 1
    outer loop
      vertex -58.5355 58.5355 1
      vertex -58.4855 58.5447 1
      vertex -58.3502 58.643 1
    endloop
  endfacet
  facet normal -0 0 1
    outer loop
      vertex -58.5355 58.5355 1
      vertex -58.5974 58.4204 1
      vertex -58.4855 58.5447 1
    endloop
  endfacet
  facet normal 0 0 1
    outer loop
      vertex -59.6194 56.9134 1
      vertex -58.5974 58.4204 1
      vertex -58.5355 58.5355 1
    endloop
  endfacet
  facet normal 0 0 1
    outer loop
      vertex -58.5974 58.4204 1
      vertex -59.6194 56.9134 1
      vertex -59.6258 56.8813 1
    endloop
  endfacet
  facet normal -0.382677 -0.923882 0
    outer loop
      vertex -52.5 -50.25 -1
      vertex -50.909 -50.909 1
      vertex -52.5 -50.25 1
    endloop
  endfacet
  facet normal -0.382677 -0.923882 -0
    outer loop
      vertex -50.909 -50.909 1
      vertex -52.5 -50.25 -1
      vertex -50.909 -50.909 -1
    endloop
  endfacet
  facet normal -0.923882 -0.382677 0
    outer loop
      vertex -50.25 -52.5 -1
      vertex -50.909 -50.909 1
      vertex -50.909 -50.909 -1
    endloop
  endfacet
  facet normal -0.923882 -0.382677 0
    outer loop
      vertex -50.909 -50.909 1
      vertex -50.25 -52.5 -1
      vertex -50.25 -52.5 1
    endloop
  endfacet
  facet normal 0.382677 -0.923882 0
    outer loop
      vertex -54.091 -50.909 -1
      vertex -52.5 -50.25 1
      vertex -54.091 -50.909 1
    endloop
  endfacet
  facet normal 0.382677 -0.923882 0
    outer loop
      vertex -52.5 -50.25 1
      vertex -54.091 -50.909 -1
      vertex -52.5 -50.25 -1
    endloop
  endfacet
  facet normal 0.923882 -0.382677 0
    outer loop
      vertex -54.75 -52.5 1
      vertex -54.091 -50.909 -1
      vertex -54.091 -50.909 1
    endloop
  endfacet
  facet normal 0.923882 -0.382677 0
    outer loop
      vertex -54.091 -50.909 -1
      vertex -54.75 -52.5 1
      vertex -54.75 -52.5 -1
    endloop
  endfacet
  facet normal 0 0 -1
    outer loop
      vertex -50.909 -54.091 1
      vertex -50.909 -50.909 1
      vertex -50.25 -52.5 1
    endloop
  endfacet
  facet normal 0 0 -1
    outer loop
      vertex -52.5 -54.75 1
      vertex -50.909 -50.909 1
      vertex -50.909 -54.091 1
    endloop
  endfacet
  facet normal 0 0 -1
    outer loop
      vertex -52.5 -54.75 1
      vertex -52.5 -50.25 1
      vertex -50.909 -50.909 1
    endloop
  endfacet
  facet normal 0 0 -1
    outer loop
      vertex -54.091 -54.091 1
      vertex -52.5 -50.25 1
      vertex -52.5 -54.75 1
    endloop
  endfacet
  facet normal 0 0 -1
    outer loop
      vertex -54.091 -54.091 1
      vertex -54.091 -50.909 1
      vertex -52.5 -50.25 1
    endloop
  endfacet
  facet normal 0 -0 -1
    outer loop
      vertex -54.091 -50.909 1
      vertex -54.091 -54.091 1
      vertex -54.75 -52.5 1
    endloop
  endfacet
  facet normal -0.382677 0.923882 0
    outer loop
      vertex -50.909 -54.091 -1
      vertex -52.5 -54.75 1
      vertex -50.909 -54.091 1
    endloop
  endfacet
  facet normal -0.382677 0.923882 0
    outer loop
      vertex -52.5 -54.75 1
      vertex -50.909 -54.091 -1
      vertex -52.5 -54.75 -1
    endloop
  endfacet
  facet normal 0.923882 0.382677 0
    outer loop
      vertex -54.091 -54.091 1
      vertex -54.75 -52.5 -1
      vertex -54.75 -52.5 1
    endloop
  endfacet
  facet normal 0.923882 0.382677 0
    outer loop
      vertex -54.75 -52.5 -1
      vertex -54.091 -54.091 1
      vertex -54.091 -54.091 -1
    endloop
  endfacet
  facet normal -0.923882 0.382677 0
    outer loop
      vertex -50.909 -54.091 -1
      vertex -50.25 -52.5 1
      vertex -50.25 -52.5 -1
    endloop
  endfacet
  facet normal -0.923882 0.382677 0
    outer loop
      vertex -50.25 -52.5 1
      vertex -50.909 -54.091 -1
      vertex -50.909 -54.091 1
    endloop
  endfacet
  facet normal 0.382677 0.923882 -0
    outer loop
      vertex -52.5 -54.75 -1
      vertex -54.091 -54.091 1
      vertex -52.5 -54.75 1
    endloop
  endfacet
  facet normal 0.382677 0.923882 0
    outer loop
      vertex -54.091 -54.091 1
      vertex -52.5 -54.75 -1
      vertex -54.091 -54.091 -1
    endloop
  endfacet
  facet normal 0.923882 0.382677 0
    outer loop
      vertex -54.091 50.909 1
      vertex -54.75 52.5 -1
      vertex -54.75 52.5 1
    endloop
  endfacet
  facet normal 0.923882 0.382677 0
    outer loop
      vertex -54.75 52.5 -1
      vertex -54.091 50.909 1
      vertex -54.091 50.909 -1
    endloop
  endfacet
  facet normal -0.382677 -0.923882 0
    outer loop
      vertex -52.5 54.75 -1
      vertex -50.909 54.091 1
      vertex -52.5 54.75 1
    endloop
  endfacet
  facet normal -0.382677 -0.923882 -0
    outer loop
      vertex -50.909 54.091 1
      vertex -52.5 54.75 -1
      vertex -50.909 54.091 -1
    endloop
  endfacet
  facet normal -0.923882 -0.382677 0
    outer loop
      vertex -50.25 52.5 -1
      vertex -50.909 54.091 1
      vertex -50.909 54.091 -1
    endloop
  endfacet
  facet normal -0.923882 -0.382677 0
    outer loop
      vertex -50.909 54.091 1
      vertex -50.25 52.5 -1
      vertex -50.25 52.5 1
    endloop
  endfacet
  facet normal -0.382677 0.923882 0
    outer loop
      vertex -50.909 50.909 -1
      vertex -52.5 50.25 1
      vertex -50.909 50.909 1
    endloop
  endfacet
  facet normal -0.382677 0.923882 0
    outer loop
      vertex -52.5 50.25 1
      vertex -50.909 50.909 -1
      vertex -52.5 50.25 -1
    endloop
  endfacet
  facet normal 0.923882 -0.382677 0
    outer loop
      vertex -54.75 52.5 1
      vertex -54.091 54.091 -1
      vertex -54.091 54.091 1
    endloop
  endfacet
  facet normal 0.923882 -0.382677 0
    outer loop
      vertex -54.091 54.091 -1
      vertex -54.75 52.5 1
      vertex -54.75 52.5 -1
    endloop
  endfacet
  facet normal -0.923882 0.382677 0
    outer loop
      vertex -50.909 50.909 -1
      vertex -50.25 52.5 1
      vertex -50.25 52.5 -1
    endloop
  endfacet
  facet normal -0.923882 0.382677 0
    outer loop
      vertex -50.25 52.5 1
      vertex -50.909 50.909 -1
      vertex -50.909 50.909 1
    endloop
  endfacet
  facet normal 0 0 -1
    outer loop
      vertex -50.909 50.909 1
      vertex -50.909 54.091 1
      vertex -50.25 52.5 1
    endloop
  endfacet
  facet normal 0 0 -1
    outer loop
      vertex -52.5 50.25 1
      vertex -50.909 54.091 1
      vertex -50.909 50.909 1
    endloop
  endfacet
  facet normal 0 0 -1
    outer loop
      vertex -52.5 50.25 1
      vertex -52.5 54.75 1
      vertex -50.909 54.091 1
    endloop
  endfacet
  facet normal 0 0 -1
    outer loop
      vertex -54.091 50.909 1
      vertex -52.5 54.75 1
      vertex -52.5 50.25 1
    endloop
  endfacet
  facet normal 0 0 -1
    outer loop
      vertex -54.091 50.909 1
      vertex -54.091 54.091 1
      vertex -52.5 54.75 1
    endloop
  endfacet
  facet normal 0 -0 -1
    outer loop
      vertex -54.091 54.091 1
      vertex -54.091 50.909 1
      vertex -54.75 52.5 1
    endloop
  endfacet
  facet normal 0.382677 -0.923882 0
    outer loop
      vertex -54.091 54.091 -1
      vertex -52.5 54.75 1
      vertex -54.091 54.091 1
    endloop
  endfacet
  facet normal 0.382677 -0.923882 0
    outer loop
      vertex -52.5 54.75 1
      vertex -54.091 54.091 -1
      vertex -52.5 54.75 -1
    endloop
  endfacet
  facet normal 0.382677 0.923882 -0
    outer loop
      vertex -52.5 50.25 -1
      vertex -54.091 50.909 1
      vertex -52.5 50.25 1
    endloop
  endfacet
  facet normal 0.382677 0.923882 0
    outer loop
      vertex -54.091 50.909 1
      vertex -52.5 50.25 -1
      vertex -54.091 50.909 -1
    endloop
  endfacet
  facet normal -0.382677 -0.923882 0
    outer loop
      vertex 52.5 -50.25 -1
      vertex 54.091 -50.909 1
      vertex 52.5 -50.25 1
    endloop
  endfacet
  facet normal -0.382677 -0.923882 -0
    outer loop
      vertex 54.091 -50.909 1
      vertex 52.5 -50.25 -1
      vertex 54.091 -50.909 -1
    endloop
  endfacet
  facet normal -0.923882 -0.382677 0
    outer loop
      vertex 54.75 -52.5 -1
      vertex 54.091 -50.909 1
      vertex 54.091 -50.909 -1
    endloop
  endfacet
  facet normal -0.923882 -0.382677 0
    outer loop
      vertex 54.091 -50.909 1
      vertex 54.75 -52.5 -1
      vertex 54.75 -52.5 1
    endloop
  endfacet
  facet normal 0.382677 -0.923882 0
    outer loop
      vertex 50.909 -50.909 -1
      vertex 52.5 -50.25 1
      vertex 50.909 -50.909 1
    endloop
  endfacet
  facet normal 0.382677 -0.923882 0
    outer loop
      vertex 52.5 -50.25 1
      vertex 50.909 -50.909 -1
      vertex 52.5 -50.25 -1
    endloop
  endfacet
  facet normal 0 0 -1
    outer loop
      vertex 54.091 -54.091 1
      vertex 54.091 -50.909 1
      vertex 54.75 -52.5 1
    endloop
  endfacet
  facet normal 0 0 -1
    outer loop
      vertex 52.5 -54.75 1
      vertex 54.091 -50.909 1
      vertex 54.091 -54.091 1
    endloop
  endfacet
  facet normal 0 0 -1
    outer loop
      vertex 52.5 -54.75 1
      vertex 52.5 -50.25 1
      vertex 54.091 -50.909 1
    endloop
  endfacet
  facet normal 0 0 -1
    outer loop
      vertex 50.909 -54.091 1
      vertex 52.5 -50.25 1
      vertex 52.5 -54.75 1
    endloop
  endfacet
  facet normal 0 0 -1
    outer loop
      vertex 50.909 -54.091 1
      vertex 50.909 -50.909 1
      vertex 52.5 -50.25 1
    endloop
  endfacet
  facet normal 0 -0 -1
    outer loop
      vertex 50.909 -50.909 1
      vertex 50.909 -54.091 1
      vertex 50.25 -52.5 1
    endloop
  endfacet
  facet normal -0.923882 0.382677 0
    outer loop
      vertex 54.091 -54.091 -1
      vertex 54.75 -52.5 1
      vertex 54.75 -52.5 -1
    endloop
  endfacet
  facet normal -0.923882 0.382677 0
    outer loop
      vertex 54.75 -52.5 1
      vertex 54.091 -54.091 -1
      vertex 54.091 -54.091 1
    endloop
  endfacet
  facet normal 0.923882 -0.382677 0
    outer loop
      vertex 50.25 -52.5 1
      vertex 50.909 -50.909 -1
      vertex 50.909 -50.909 1
    endloop
  endfacet
  facet normal 0.923882 -0.382677 0
    outer loop
      vertex 50.909 -50.909 -1
      vertex 50.25 -52.5 1
      vertex 50.25 -52.5 -1
    endloop
  endfacet
  facet normal 0.382677 0.923882 -0
    outer loop
      vertex 52.5 -54.75 -1
      vertex 50.909 -54.091 1
      vertex 52.5 -54.75 1
    endloop
  endfacet
  facet normal 0.382677 0.923882 0
    outer loop
      vertex 50.909 -54.091 1
      vertex 52.5 -54.75 -1
      vertex 50.909 -54.091 -1
    endloop
  endfacet
  facet normal -0.382677 0.923882 0
    outer loop
      vertex 54.091 -54.091 -1
      vertex 52.5 -54.75 1
      vertex 54.091 -54.091 1
    endloop
  endfacet
  facet normal -0.382677 0.923882 0
    outer loop
      vertex 52.5 -54.75 1
      vertex 54.091 -54.091 -1
      vertex 52.5 -54.75 -1
    endloop
  endfacet
  facet normal 0.923882 0.382677 0
    outer loop
      vertex 50.909 -54.091 1
      vertex 50.25 -52.5 -1
      vertex 50.25 -52.5 1
    endloop
  endfacet
  facet normal 0.923882 0.382677 0
    outer loop
      vertex 50.25 -52.5 -1
      vertex 50.909 -54.091 1
      vertex 50.909 -54.091 -1
    endloop
  endfacet
  facet normal 0.382677 0.923882 -0
    outer loop
      vertex 52.5 50.25 -1
      vertex 50.909 50.909 1
      vertex 52.5 50.25 1
    endloop
  endfacet
  facet normal 0.382677 0.923882 0
    outer loop
      vertex 50.909 50.909 1
      vertex 52.5 50.25 -1
      vertex 50.909 50.909 -1
    endloop
  endfacet
  facet normal -0.382677 -0.923882 0
    outer loop
      vertex 52.5 54.75 -1
      vertex 54.091 54.091 1
      vertex 52.5 54.75 1
    endloop
  endfacet
  facet normal -0.382677 -0.923882 -0
    outer loop
      vertex 54.091 54.091 1
      vertex 52.5 54.75 -1
      vertex 54.091 54.091 -1
    endloop
  endfacet
  facet normal -0.923882 -0.382677 0
    outer loop
      vertex 54.75 52.5 -1
      vertex 54.091 54.091 1
      vertex 54.091 54.091 -1
    endloop
  endfacet
  facet normal -0.923882 -0.382677 0
    outer loop
      vertex 54.091 54.091 1
      vertex 54.75 52.5 -1
      vertex 54.75 52.5 1
    endloop
  endfacet
  facet normal 0.382677 -0.923882 0
    outer loop
      vertex 50.909 54.091 -1
      vertex 52.5 54.75 1
      vertex 50.909 54.091 1
    endloop
  endfacet
  facet normal 0.382677 -0.923882 0
    outer loop
      vertex 52.5 54.75 1
      vertex 50.909 54.091 -1
      vertex 52.5 54.75 -1
    endloop
  endfacet
  facet normal -0.382677 0.923882 0
    outer loop
      vertex 54.091 50.909 -1
      vertex 52.5 50.25 1
      vertex 54.091 50.909 1
    endloop
  endfacet
  facet normal -0.382677 0.923882 0
    outer loop
      vertex 52.5 50.25 1
      vertex 54.091 50.909 -1
      vertex 52.5 50.25 -1
    endloop
  endfacet
  facet normal -0.923882 0.382677 0
    outer loop
      vertex 54.091 50.909 -1
      vertex 54.75 52.5 1
      vertex 54.75 52.5 -1
    endloop
  endfacet
  facet normal -0.923882 0.382677 0
    outer loop
      vertex 54.75 52.5 1
      vertex 54.091 50.909 -1
      vertex 54.091 50.909 1
    endloop
  endfacet
  facet normal 0.923882 0.382677 0
    outer loop
      vertex 50.909 50.909 1
      vertex 50.25 52.5 -1
      vertex 50.25 52.5 1
    endloop
  endfacet
  facet normal 0.923882 0.382677 0
    outer loop
      vertex 50.25 52.5 -1
      vertex 50.909 50.909 1
      vertex 50.909 50.909 -1
    endloop
  endfacet
  facet normal 0.923882 -0.382677 0
    outer loop
      vertex 50.25 52.5 1
      vertex 50.909 54.091 -1
      vertex 50.909 54.091 1
    endloop
  endfacet
  facet normal 0.923882 -0.382677 0
    outer loop
      vertex 50.909 54.091 -1
      vertex 50.25 52.5 1
      vertex 50.25 52.5 -1
    endloop
  endfacet
  facet normal 0 0 -1
    outer loop
      vertex 54.091 50.909 1
      vertex 54.091 54.091 1
      vertex 54.75 52.5 1
    endloop
  endfacet
  facet normal 0 0 -1
    outer loop
      vertex 52.5 50.25 1
      vertex 54.091 54.091 1
      vertex 54.091 50.909 1
    endloop
  endfacet
  facet normal 0 0 -1
    outer loop
      vertex 52.5 50.25 1
      vertex 52.5 54.75 1
      vertex 54.091 54.091 1
    endloop
  endfacet
  facet normal 0 0 -1
    outer loop
      vertex 50.909 50.909 1
      vertex 52.5 54.75 1
      vertex 52.5 50.25 1
    endloop
  endfacet
  facet normal 0 0 -1
    outer loop
      vertex 50.909 50.909 1
      vertex 50.909 54.091 1
      vertex 52.5 54.75 1
    endloop
  endfacet
  facet normal 0 -0 -1
    outer loop
      vertex 50.909 54.091 1
      vertex 50.909 50.909 1
      vertex 50.25 52.5 1
    endloop
  endfacet
  facet normal -0.864842 0.499319 0.0522435
    outer loop
      vertex 63.1033 -45.8472 48
      vertex 71.2565 -31.7255 48
      vertex 54.7634 -55.427 1.5
    endloop
  endfacet
  facet normal -0.938282 0.0986182 0.331515
    outer loop
      vertex 76.2955 -16.2171 48
      vertex 78 0 48
      vertex 56 -53 1.5
    endloop
  endfacet
  facet normal 0 0.907133 0.420845
    outer loop
      vertex 53 -56 1.5
      vertex -8.15322 -77.5727 48
      vertex 8.15322 -77.5727 48
    endloop
  endfacet
  facet normal 0 0.907133 0.420845
    outer loop
      vertex -8.15322 -77.5727 48
      vertex 53 -56 1.5
      vertex -53 -56 1.5
    endloop
  endfacet
  facet normal -0.866025 0.500002 0
    outer loop
      vertex 63.1033 -45.8472 48
      vertex 71.2565 -31.7255 49
      vertex 71.2565 -31.7255 48
    endloop
  endfacet
  facet normal -0.866025 0.500002 0
    outer loop
      vertex 71.2565 -31.7255 49
      vertex 63.1033 -45.8472 48
      vertex 63.1033 -45.8472 49
    endloop
  endfacet
  facet normal 0.452368 0.887835 0.08433
    outer loop
      vertex -39 -67.55 48
      vertex -53 -56 1.5
      vertex -55.427 -54.7634 1.5
    endloop
  endfacet
  facet normal -0.587785 0.809017 0
    outer loop
      vertex 52.1922 -57.9653 48
      vertex 39 -67.55 49
      vertex 52.1922 -57.9653 49
    endloop
  endfacet
  facet normal -0.587785 0.809017 0
    outer loop
      vertex 39 -67.55 49
      vertex 52.1922 -57.9653 48
      vertex 39 -67.55 48
    endloop
  endfacet
  facet normal -0.404705 0.908987 0.0997876
    outer loop
      vertex 39 -67.55 48
      vertex 54.7634 -55.427 1.5
      vertex 24.1033 -74.1824 48
    endloop
  endfacet
  facet normal 0.201548 -0.948208 0.245519
    outer loop
      vertex -8.15322 77.5727 48
      vertex -24.1033 74.1824 48
      vertex -53 56 1.5
    endloop
  endfacet
  facet normal -0.743136 -0.669117 -0.00562257
    outer loop
      vertex 55.427 54.7634 2.5
      vertex 63.1033 45.8472 49
      vertex 52.1922 57.9653 49
    endloop
  endfacet
  facet normal -0.406735 -0.913546 0
    outer loop
      vertex 24.1033 74.1824 48
      vertex 39 67.55 49
      vertex 24.1033 74.1824 49
    endloop
  endfacet
  facet normal -0.406735 -0.913546 -0
    outer loop
      vertex 39 67.55 49
      vertex 24.1033 74.1824 48
      vertex 39 67.55 48
    endloop
  endfacet
  facet normal -0.587785 -0.809017 0
    outer loop
      vertex 39 67.55 48
      vertex 52.1922 57.9653 49
      vertex 39 67.55 49
    endloop
  endfacet
  facet normal -0.587785 -0.809017 -0
    outer loop
      vertex 52.1922 57.9653 49
      vertex 39 67.55 48
      vertex 52.1922 57.9653 48
    endloop
  endfacet
  facet normal 0.994522 0.104529 0
    outer loop
      vertex -76.2955 -16.2171 49
      vertex -78 0 48
      vertex -78 0 49
    endloop
  endfacet
  facet normal 0.994522 0.104529 0
    outer loop
      vertex -78 0 48
      vertex -76.2955 -16.2171 49
      vertex -76.2955 -16.2171 48
    endloop
  endfacet
  facet normal -0.994522 -0.104529 0
    outer loop
      vertex 78 0 48
      vertex 76.2955 16.2171 49
      vertex 76.2955 16.2171 48
    endloop
  endfacet
  facet normal -0.994522 -0.104529 0
    outer loop
      vertex 76.2955 16.2171 49
      vertex 78 0 48
      vertex 78 0 49
    endloop
  endfacet
  facet normal 0.404534 0.908603 0.10389
    outer loop
      vertex -39 -67.55 48
      vertex -24.1033 -74.1824 48
      vertex -53 -56 1.5
    endloop
  endfacet
  facet normal -0.201548 0.948208 0.245519
    outer loop
      vertex 24.1033 -74.1824 48
      vertex 53 -56 1.5
      vertex 8.15322 -77.5727 48
    endloop
  endfacet
  facet normal -0.304156 0.936035 0.176995
    outer loop
      vertex 54.7634 -55.427 1.5
      vertex 53 -56 1.5
      vertex 24.1033 -74.1824 48
    endloop
  endfacet
  facet normal 0.951056 -0.309018 0
    outer loop
      vertex -76.2955 16.2171 49
      vertex -71.2565 31.7255 48
      vertex -71.2565 31.7255 49
    endloop
  endfacet
  facet normal 0.951056 -0.309018 0
    outer loop
      vertex -71.2565 31.7255 48
      vertex -76.2955 16.2171 49
      vertex -76.2955 16.2171 48
    endloop
  endfacet
  facet normal 0 -0.907133 0.420845
    outer loop
      vertex -53 56 1.5
      vertex 8.15322 77.5727 48
      vertex -8.15322 77.5727 48
    endloop
  endfacet
  facet normal 0 -0.907133 0.420845
    outer loop
      vertex 8.15322 77.5727 48
      vertex -53 56 1.5
      vertex 53 56 1.5
    endloop
  endfacet
  facet normal -0.207912 0.978148 0
    outer loop
      vertex 24.1033 -74.1824 48
      vertex 8.15322 -77.5727 49
      vertex 24.1033 -74.1824 49
    endloop
  endfacet
  facet normal -0.207912 0.978148 0
    outer loop
      vertex 8.15322 -77.5727 49
      vertex 24.1033 -74.1824 48
      vertex 8.15322 -77.5727 48
    endloop
  endfacet
  facet normal -0.866025 -0.500002 0
    outer loop
      vertex 71.2565 31.7255 48
      vertex 63.1033 45.8472 49
      vertex 63.1033 45.8472 48
    endloop
  endfacet
  facet normal -0.866025 -0.500002 0
    outer loop
      vertex 63.1033 45.8472 49
      vertex 71.2565 31.7255 48
      vertex 71.2565 31.7255 49
    endloop
  endfacet
  facet normal -0.201548 -0.948208 0.245519
    outer loop
      vertex 53 56 1.5
      vertex 24.1033 74.1824 48
      vertex 8.15322 77.5727 48
    endloop
  endfacet
  facet normal 0.304156 -0.936035 0.176995
    outer loop
      vertex -53 56 1.5
      vertex -24.1033 74.1824 48
      vertex -54.7634 55.427 1.5
    endloop
  endfacet
  facet normal -0.452368 -0.887835 0.08433
    outer loop
      vertex 53 56 1.5
      vertex 55.427 54.7634 1.5
      vertex 39 67.55 48
    endloop
  endfacet
  facet normal -0.404534 -0.908603 0.10389
    outer loop
      vertex 53 56 1.5
      vertex 39 67.55 48
      vertex 24.1033 74.1824 48
    endloop
  endfacet
  facet normal -0.937502 0.304614 0.168226
    outer loop
      vertex 71.2565 -31.7255 48
      vertex 76.2955 -16.2171 48
      vertex 56 -53 1.5
    endloop
  endfacet
  facet normal -0.937498 -0.304631 0.168217
    outer loop
      vertex 56 53 1.5
      vertex 71.2565 31.7255 48
      vertex 55.427 54.7634 1.5
    endloop
  endfacet
  facet normal -0.702539 0.711645 0
    outer loop
      vertex 54.7634 -55.427 2.5
      vertex 52.1922 -57.9653 48
      vertex 52.1922 -57.9653 49
    endloop
  endfacet
  facet normal -0.702539 0.711645 0
    outer loop
      vertex 52.1922 -57.9653 48
      vertex 54.7634 -55.427 2.5
      vertex 54.7634 -55.427 1.5
    endloop
  endfacet
  facet normal -0.887835 0.452368 0.0843302
    outer loop
      vertex 71.2565 -31.7255 48
      vertex 56 -53 1.5
      vertex 54.7634 -55.427 1.5
    endloop
  endfacet
  facet normal -0.207912 -0.978148 0
    outer loop
      vertex 8.15322 77.5727 48
      vertex 24.1033 74.1824 49
      vertex 8.15322 77.5727 49
    endloop
  endfacet
  facet normal -0.207912 -0.978148 -0
    outer loop
      vertex 24.1033 74.1824 49
      vertex 8.15322 77.5727 48
      vertex 24.1033 74.1824 48
    endloop
  endfacet
  facet normal 0.587785 0.809017 -0
    outer loop
      vertex -39 -67.55 48
      vertex -52.1922 -57.9653 49
      vertex -39 -67.55 49
    endloop
  endfacet
  facet normal 0.587785 0.809017 0
    outer loop
      vertex -52.1922 -57.9653 49
      vertex -39 -67.55 48
      vertex -52.1922 -57.9653 48
    endloop
  endfacet
  facet normal 0.406735 0.913546 -0
    outer loop
      vertex -24.1033 -74.1824 48
      vertex -39 -67.55 49
      vertex -24.1033 -74.1824 49
    endloop
  endfacet
  facet normal 0.406735 0.913546 0
    outer loop
      vertex -39 -67.55 49
      vertex -24.1033 -74.1824 48
      vertex -39 -67.55 48
    endloop
  endfacet
  facet normal -0.865066 -0.499448 0.0470393
    outer loop
      vertex 71.2565 31.7255 48
      vertex 63.1033 45.8472 48
      vertex 55.427 54.7634 1.5
    endloop
  endfacet
  facet normal -0.406735 0.913546 0
    outer loop
      vertex 39 -67.55 48
      vertex 24.1033 -74.1824 49
      vertex 39 -67.55 49
    endloop
  endfacet
  facet normal -0.406735 0.913546 0
    outer loop
      vertex 24.1033 -74.1824 49
      vertex 39 -67.55 48
      vertex 24.1033 -74.1824 48
    endloop
  endfacet
  facet normal -0.75423 0.656611 0
    outer loop
      vertex 54.7634 -55.427 2.5
      vertex 63.1033 -45.8472 48
      vertex 54.7634 -55.427 1.5
    endloop
  endfacet
  facet normal -0.75423 0.656611 0
    outer loop
      vertex 63.1033 -45.8472 48
      vertex 54.7634 -55.427 2.5
      vertex 63.1033 -45.8472 49
    endloop
  endfacet
  facet normal -0.587746 0.808962 0.0116597
    outer loop
      vertex 52.1922 -57.9653 48
      vertex 54.7634 -55.427 1.5
      vertex 39 -67.55 48
    endloop
  endfacet
  facet normal 0 1 -0
    outer loop
      vertex 8.15322 -77.5727 48
      vertex -8.15322 -77.5727 49
      vertex 8.15322 -77.5727 49
    endloop
  endfacet
  facet normal 0 1 0
    outer loop
      vertex -8.15322 -77.5727 49
      vertex 8.15322 -77.5727 48
      vertex -8.15322 -77.5727 48
    endloop
  endfacet
  facet normal -0.937502 -0.304614 0.168226
    outer loop
      vertex 76.2955 16.2171 48
      vertex 71.2565 31.7255 48
      vertex 56 53 1.5
    endloop
  endfacet
  facet normal -0.903936 0 0.427668
    outer loop
      vertex 78 0 48
      vertex 56 53 1.5
      vertex 56 -53 1.5
    endloop
  endfacet
  facet normal 0.937502 -0.304614 0.168226
    outer loop
      vertex -56 53 1.5
      vertex -71.2565 31.7255 48
      vertex -76.2955 16.2171 48
    endloop
  endfacet
  facet normal -0.757833 -0.652448 0
    outer loop
      vertex 63.1033 45.8472 48
      vertex 55.427 54.7634 2.5
      vertex 55.427 54.7634 1.5
    endloop
  endfacet
  facet normal -0.757833 -0.652448 0
    outer loop
      vertex 55.427 54.7634 2.5
      vertex 63.1033 45.8472 48
      vertex 63.1033 45.8472 49
    endloop
  endfacet
  facet normal -0.703483 -0.710712 0
    outer loop
      vertex 52.1922 57.9653 48
      vertex 55.427 54.7634 2.5
      vertex 52.1922 57.9653 49
    endloop
  endfacet
  facet normal -0.703483 -0.710712 -0
    outer loop
      vertex 55.427 54.7634 2.5
      vertex 52.1922 57.9653 48
      vertex 55.427 54.7634 1.5
    endloop
  endfacet
  facet normal 0.951056 0.309018 0
    outer loop
      vertex -71.2565 -31.7255 49
      vertex -76.2955 -16.2171 48
      vertex -76.2955 -16.2171 49
    endloop
  endfacet
  facet normal 0.951056 0.309018 0
    outer loop
      vertex -76.2955 -16.2171 48
      vertex -71.2565 -31.7255 49
      vertex -71.2565 -31.7255 48
    endloop
  endfacet
  facet normal -0.587721 -0.808928 0.0148161
    outer loop
      vertex 55.427 54.7634 1.5
      vertex 52.1922 57.9653 48
      vertex 39 67.55 48
    endloop
  endfacet
  facet normal 0.404705 -0.908987 0.0997876
    outer loop
      vertex -24.1033 74.1824 48
      vertex -39 67.55 48
      vertex -54.7634 55.427 1.5
    endloop
  endfacet
  facet normal -0.994522 0.104529 0
    outer loop
      vertex 76.2955 -16.2171 48
      vertex 78 0 49
      vertex 78 0 48
    endloop
  endfacet
  facet normal -0.994522 0.104529 0
    outer loop
      vertex 78 0 49
      vertex 76.2955 -16.2171 48
      vertex 76.2955 -16.2171 49
    endloop
  endfacet
  facet normal 0.207912 -0.978148 0
    outer loop
      vertex -24.1033 74.1824 48
      vertex -8.15322 77.5727 49
      vertex -24.1033 74.1824 49
    endloop
  endfacet
  facet normal 0.207912 -0.978148 0
    outer loop
      vertex -8.15322 77.5727 49
      vertex -24.1033 74.1824 48
      vertex -8.15322 77.5727 48
    endloop
  endfacet
  facet normal 0.865066 0.499448 0.0470393
    outer loop
      vertex -63.1033 -45.8472 48
      vertex -55.427 -54.7634 1.5
      vertex -71.2565 -31.7255 48
    endloop
  endfacet
  facet normal -0.938282 -0.0986182 0.331515
    outer loop
      vertex 78 0 48
      vertex 76.2955 16.2171 48
      vertex 56 53 1.5
    endloop
  endfacet
  facet normal 0 -1 0
    outer loop
      vertex -8.15322 77.5727 48
      vertex 8.15322 77.5727 49
      vertex -8.15322 77.5727 49
    endloop
  endfacet
  facet normal 0 -1 -0
    outer loop
      vertex 8.15322 77.5727 49
      vertex -8.15322 77.5727 48
      vertex 8.15322 77.5727 48
    endloop
  endfacet
  facet normal 0.937498 0.304631 0.168217
    outer loop
      vertex -55.427 -54.7634 1.5
      vertex -56 -53 1.5
      vertex -71.2565 -31.7255 48
    endloop
  endfacet
  facet normal 0.866025 0.500002 0
    outer loop
      vertex -63.1033 -45.8472 49
      vertex -71.2565 -31.7255 48
      vertex -71.2565 -31.7255 49
    endloop
  endfacet
  facet normal 0.866025 0.500002 0
    outer loop
      vertex -71.2565 -31.7255 48
      vertex -63.1033 -45.8472 49
      vertex -63.1033 -45.8472 48
    endloop
  endfacet
  facet normal 0.937502 0.304614 0.168226
    outer loop
      vertex -71.2565 -31.7255 48
      vertex -56 -53 1.5
      vertex -76.2955 -16.2171 48
    endloop
  endfacet
  facet normal 0.406735 -0.913546 0
    outer loop
      vertex -39 67.55 48
      vertex -24.1033 74.1824 49
      vertex -39 67.55 49
    endloop
  endfacet
  facet normal 0.406735 -0.913546 0
    outer loop
      vertex -24.1033 74.1824 49
      vertex -39 67.55 48
      vertex -24.1033 74.1824 48
    endloop
  endfacet
  facet normal 0.587785 -0.809017 0
    outer loop
      vertex -52.1922 57.9653 48
      vertex -39 67.55 49
      vertex -52.1922 57.9653 49
    endloop
  endfacet
  facet normal 0.587785 -0.809017 0
    outer loop
      vertex -39 67.55 49
      vertex -52.1922 57.9653 48
      vertex -39 67.55 48
    endloop
  endfacet
  facet normal 0 0 1
    outer loop
      vertex 53 56 1.5
      vertex 56 53 1.5
      vertex 55.427 54.7634 1.5
    endloop
  endfacet
  facet normal 0 0 1
    outer loop
      vertex 56 53 1.5
      vertex 53 56 1.5
      vertex 56 -53 1.5
    endloop
  endfacet
  facet normal 0 0 1
    outer loop
      vertex 56 -53 1.5
      vertex 53 56 1.5
      vertex 53 -56 1.5
    endloop
  endfacet
  facet normal 0 0 1
    outer loop
      vertex 56 -53 1.5
      vertex 53 -56 1.5
      vertex 54.7634 -55.427 1.5
    endloop
  endfacet
  facet normal -0 0 1
    outer loop
      vertex -53 56 1.5
      vertex 53 -56 1.5
      vertex 53 56 1.5
    endloop
  endfacet
  facet normal 0 0 1
    outer loop
      vertex -53 56 1.5
      vertex -53 -56 1.5
      vertex 53 -56 1.5
    endloop
  endfacet
  facet normal 0 0 1
    outer loop
      vertex -56 53 1.5
      vertex -53 56 1.5
      vertex -54.7634 55.427 1.5
    endloop
  endfacet
  facet normal 0 0 1
    outer loop
      vertex -53 56 1.5
      vertex -56 53 1.5
      vertex -53 -56 1.5
    endloop
  endfacet
  facet normal 0 0 1
    outer loop
      vertex -53 -56 1.5
      vertex -56 53 1.5
      vertex -56 -53 1.5
    endloop
  endfacet
  facet normal 0 0 1
    outer loop
      vertex -53 -56 1.5
      vertex -56 -53 1.5
      vertex -55.427 -54.7634 1.5
    endloop
  endfacet
  facet normal -0.951056 -0.309018 0
    outer loop
      vertex 76.2955 16.2171 48
      vertex 71.2565 31.7255 49
      vertex 71.2565 31.7255 48
    endloop
  endfacet
  facet normal -0.951056 -0.309018 0
    outer loop
      vertex 71.2565 31.7255 49
      vertex 76.2955 16.2171 48
      vertex 76.2955 16.2171 49
    endloop
  endfacet
  facet normal 0.887835 -0.452368 0.0843302
    outer loop
      vertex -56 53 1.5
      vertex -54.7634 55.427 1.5
      vertex -71.2565 31.7255 48
    endloop
  endfacet
  facet normal 0 0 -1
    outer loop
      vertex 76.2955 -16.2171 49
      vertex 76.2955 16.2171 49
      vertex 78 0 49
    endloop
  endfacet
  facet normal 0 0 -1
    outer loop
      vertex 71.2565 -31.7255 49
      vertex 76.2955 16.2171 49
      vertex 76.2955 -16.2171 49
    endloop
  endfacet
  facet normal 0 0 -1
    outer loop
      vertex 71.2565 -31.7255 49
      vertex 71.2565 31.7255 49
      vertex 76.2955 16.2171 49
    endloop
  endfacet
  facet normal 0 0 -1
    outer loop
      vertex 63.1033 -45.8472 49
      vertex 71.2565 31.7255 49
      vertex 71.2565 -31.7255 49
    endloop
  endfacet
  facet normal 0 0 -1
    outer loop
      vertex 63.1033 -45.8472 49
      vertex 63.1033 45.8472 49
      vertex 71.2565 31.7255 49
    endloop
  endfacet
  facet normal 0 0 -1
    outer loop
      vertex 52.1922 -57.9653 49
      vertex 63.1033 45.8472 49
      vertex 63.1033 -45.8472 49
    endloop
  endfacet
  facet normal 0 0 -1
    outer loop
      vertex 52.1922 -57.9653 49
      vertex 52.1922 57.9653 49
      vertex 63.1033 45.8472 49
    endloop
  endfacet
  facet normal 0 0 -1
    outer loop
      vertex 39 -67.55 49
      vertex 52.1922 57.9653 49
      vertex 52.1922 -57.9653 49
    endloop
  endfacet
  facet normal 0 0 -1
    outer loop
      vertex 39 -67.55 49
      vertex 39 67.55 49
      vertex 52.1922 57.9653 49
    endloop
  endfacet
  facet normal 0 0 -1
    outer loop
      vertex 24.1033 -74.1824 49
      vertex 39 67.55 49
      vertex 39 -67.55 49
    endloop
  endfacet
  facet normal 0 0 -1
    outer loop
      vertex 24.1033 -74.1824 49
      vertex 24.1033 74.1824 49
      vertex 39 67.55 49
    endloop
  endfacet
  facet normal 0 0 -1
    outer loop
      vertex 8.15322 -77.5727 49
      vertex 24.1033 74.1824 49
      vertex 24.1033 -74.1824 49
    endloop
  endfacet
  facet normal 0 0 -1
    outer loop
      vertex 8.15322 -77.5727 49
      vertex 8.15322 77.5727 49
      vertex 24.1033 74.1824 49
    endloop
  endfacet
  facet normal 0 0 -1
    outer loop
      vertex -8.15322 -77.5727 49
      vertex 8.15322 77.5727 49
      vertex 8.15322 -77.5727 49
    endloop
  endfacet
  facet normal 0 0 -1
    outer loop
      vertex -8.15322 -77.5727 49
      vertex -8.15322 77.5727 49
      vertex 8.15322 77.5727 49
    endloop
  endfacet
  facet normal 0 0 -1
    outer loop
      vertex -24.1033 -74.1824 49
      vertex -8.15322 77.5727 49
      vertex -8.15322 -77.5727 49
    endloop
  endfacet
  facet normal 0 0 -1
    outer loop
      vertex -24.1033 -74.1824 49
      vertex -24.1033 74.1824 49
      vertex -8.15322 77.5727 49
    endloop
  endfacet
  facet normal 0 0 -1
    outer loop
      vertex -39 -67.55 49
      vertex -24.1033 74.1824 49
      vertex -24.1033 -74.1824 49
    endloop
  endfacet
  facet normal 0 0 -1
    outer loop
      vertex -39 -67.55 49
      vertex -39 67.55 49
      vertex -24.1033 74.1824 49
    endloop
  endfacet
  facet normal 0 0 -1
    outer loop
      vertex -52.1922 -57.9653 49
      vertex -39 67.55 49
      vertex -39 -67.55 49
    endloop
  endfacet
  facet normal 0 0 -1
    outer loop
      vertex -52.1922 -57.9653 49
      vertex -52.1922 57.9653 49
      vertex -39 67.55 49
    endloop
  endfacet
  facet normal 0 0 -1
    outer loop
      vertex -63.1033 -45.8472 49
      vertex -52.1922 57.9653 49
      vertex -52.1922 -57.9653 49
    endloop
  endfacet
  facet normal 0 0 -1
    outer loop
      vertex -63.1033 -45.8472 49
      vertex -63.1033 45.8472 49
      vertex -52.1922 57.9653 49
    endloop
  endfacet
  facet normal 0 0 -1
    outer loop
      vertex -71.2565 -31.7255 49
      vertex -63.1033 45.8472 49
      vertex -63.1033 -45.8472 49
    endloop
  endfacet
  facet normal 0 0 -1
    outer loop
      vertex -71.2565 -31.7255 49
      vertex -71.2565 31.7255 49
      vertex -63.1033 45.8472 49
    endloop
  endfacet
  facet normal 0 0 -1
    outer loop
      vertex -76.2955 -16.2171 49
      vertex -71.2565 31.7255 49
      vertex -71.2565 -31.7255 49
    endloop
  endfacet
  facet normal 0 0 -1
    outer loop
      vertex -76.2955 -16.2171 49
      vertex -76.2955 16.2171 49
      vertex -71.2565 31.7255 49
    endloop
  endfacet
  facet normal 0 -0 -1
    outer loop
      vertex -76.2955 16.2171 49
      vertex -76.2955 -16.2171 49
      vertex -78 0 49
    endloop
  endfacet
  facet normal 0.587746 -0.808962 0.0116597
    outer loop
      vertex -39 67.55 48
      vertex -52.1922 57.9653 48
      vertex -54.7634 55.427 1.5
    endloop
  endfacet
  facet normal 0.702539 -0.711645 0
    outer loop
      vertex -54.7634 55.427 2.5
      vertex -52.1922 57.9653 48
      vertex -52.1922 57.9653 49
    endloop
  endfacet
  facet normal 0.702539 -0.711645 0
    outer loop
      vertex -52.1922 57.9653 48
      vertex -54.7634 55.427 2.5
      vertex -54.7634 55.427 1.5
    endloop
  endfacet
  facet normal 0.75423 -0.656611 0
    outer loop
      vertex -63.1033 45.8472 48
      vertex -54.7634 55.427 2.5
      vertex -63.1033 45.8472 49
    endloop
  endfacet
  facet normal 0.75423 -0.656611 0
    outer loop
      vertex -54.7634 55.427 2.5
      vertex -63.1033 45.8472 48
      vertex -54.7634 55.427 1.5
    endloop
  endfacet
  facet normal 0.74314 -0.669121 -0.00456627
    outer loop
      vertex -54.7634 55.427 2.5
      vertex -52.1922 57.9653 49
      vertex -63.1033 45.8472 49
    endloop
  endfacet
  facet normal -0.74314 0.669121 -0.00456627
    outer loop
      vertex 63.1033 -45.8472 49
      vertex 54.7634 -55.427 2.5
      vertex 52.1922 -57.9653 49
    endloop
  endfacet
  facet normal 0.903936 -0 0.427668
    outer loop
      vertex -56 -53 1.5
      vertex -56 53 1.5
      vertex -78 0 48
    endloop
  endfacet
  facet normal -0.951056 0.309018 0
    outer loop
      vertex 71.2565 -31.7255 48
      vertex 76.2955 -16.2171 49
      vertex 76.2955 -16.2171 48
    endloop
  endfacet
  facet normal -0.951056 0.309018 0
    outer loop
      vertex 76.2955 -16.2171 49
      vertex 71.2565 -31.7255 48
      vertex 71.2565 -31.7255 49
    endloop
  endfacet
  facet normal 0.201548 0.948208 0.245519
    outer loop
      vertex -24.1033 -74.1824 48
      vertex -8.15322 -77.5727 48
      vertex -53 -56 1.5
    endloop
  endfacet
  facet normal 0.207912 0.978148 -0
    outer loop
      vertex -8.15322 -77.5727 48
      vertex -24.1033 -74.1824 49
      vertex -8.15322 -77.5727 49
    endloop
  endfacet
  facet normal 0.207912 0.978148 0
    outer loop
      vertex -24.1033 -74.1824 49
      vertex -8.15322 -77.5727 48
      vertex -24.1033 -74.1824 48
    endloop
  endfacet
  facet normal 0.864842 -0.499319 0.0522435
    outer loop
      vertex -54.7634 55.427 1.5
      vertex -63.1033 45.8472 48
      vertex -71.2565 31.7255 48
    endloop
  endfacet
  facet normal 0.866025 -0.500002 0
    outer loop
      vertex -71.2565 31.7255 49
      vertex -63.1033 45.8472 48
      vertex -63.1033 45.8472 49
    endloop
  endfacet
  facet normal 0.866025 -0.500002 0
    outer loop
      vertex -63.1033 45.8472 48
      vertex -71.2565 31.7255 49
      vertex -71.2565 31.7255 48
    endloop
  endfacet
  facet normal 0.938282 0.0986182 0.331515
    outer loop
      vertex -76.2955 -16.2171 48
      vertex -56 -53 1.5
      vertex -78 0 48
    endloop
  endfacet
  facet normal 0.703483 0.710712 -0
    outer loop
      vertex -52.1922 -57.9653 48
      vertex -55.427 -54.7634 2.5
      vertex -52.1922 -57.9653 49
    endloop
  endfacet
  facet normal 0.703483 0.710712 0
    outer loop
      vertex -55.427 -54.7634 2.5
      vertex -52.1922 -57.9653 48
      vertex -55.427 -54.7634 1.5
    endloop
  endfacet
  facet normal 0.587721 0.808928 0.0148161
    outer loop
      vertex -52.1922 -57.9653 48
      vertex -39 -67.55 48
      vertex -55.427 -54.7634 1.5
    endloop
  endfacet
  facet normal 0.743136 0.669117 -0.00562257
    outer loop
      vertex -52.1922 -57.9653 49
      vertex -55.427 -54.7634 2.5
      vertex -63.1033 -45.8472 49
    endloop
  endfacet
  facet normal 0.757833 0.652448 0
    outer loop
      vertex -55.427 -54.7634 2.5
      vertex -63.1033 -45.8472 48
      vertex -63.1033 -45.8472 49
    endloop
  endfacet
  facet normal 0.757833 0.652448 0
    outer loop
      vertex -63.1033 -45.8472 48
      vertex -55.427 -54.7634 2.5
      vertex -55.427 -54.7634 1.5
    endloop
  endfacet
  facet normal 0.994522 -0.104529 0
    outer loop
      vertex -78 0 49
      vertex -76.2955 16.2171 48
      vertex -76.2955 16.2171 49
    endloop
  endfacet
  facet normal 0.994522 -0.104529 0
    outer loop
      vertex -76.2955 16.2171 48
      vertex -78 0 49
      vertex -78 0 48
    endloop
  endfacet
  facet normal 0.938282 -0.0986182 0.331515
    outer loop
      vertex -56 53 1.5
      vertex -76.2955 16.2171 48
      vertex -78 0 48
    endloop
  endfacet
endsolid OpenSCAD_Model
